<svg id="Object" xmlns="http://www.w3.org/2000/svg" viewBox="0 0 1185 661.65">
  <defs>
    <style>
      .cls-1 {
      opacity: .2;
      }

      .cls-2 {
      opacity: .5;
      }

      .cls-3 {
      opacity: .71;
      }
    </style>
  </defs>
  <g class="cls-1">
    <polygon class="cls-3"
      points="1151.55 106.93 1151.55 55.4 1061.18 55.4 1061.18 0 944.99 0 944.99 140.43 918 140.43 918 173.28 896.87 173.28 896.87 251.87 872.23 251.87 872.23 143.65 811.2 143.65 811.2 112.09 776.58 112.09 776.58 162.65 744.3 180.37 744.3 282.15 668.02 282.15 668.02 58.62 585.87 58.62 585.87 100.49 521.32 100.49 503.71 110.15 503.71 133.34 422.73 133.34 407.47 141.72 407.47 220.31 373.44 220.31 373.44 99.2 310.06 99.2 310.06 120.46 209.72 120.46 209.72 171.67 191.53 181.66 191.53 231.96 161.27 231.96 161.27 107.82 120.2 98.8 120.2 65.3 9.88 65.3 9.88 207.02 0 207.02 0 661.65 88.66 661.65 161.27 661.65 366.77 661.65 366.77 660.77 1185 660.77 1185 125.29 1151.55 106.93" />
  </g>
  <polygon class="cls-2"
    points="1114.57 202.71 1098.06 220.85 1098.06 276.49 1080.46 276.49 1080.46 124.08 1001.77 124.08 1001.77 479.11 978.11 453.1 978.11 248.67 803.14 248.67 803.14 300.69 710.7 300.69 710.7 463.99 710.7 623.98 629.49 623.98 629.49 323.53 606.01 323.53 606.01 240.91 557.85 240.91 557.85 377.75 535.54 377.75 535.54 403.57 507.35 354.51 458.03 354.51 458.03 177.65 362.9 177.65 354.68 186.69 354.68 240.91 354.68 301.58 327.67 301.58 327.67 140.22 246.63 140.22 246.63 167.33 230.78 184.76 230.78 459.72 212.57 459.72 212.57 238.97 202 238.97 202 217.67 108.63 217.67 92.78 235.1 92.78 259.63 4.7 259.63 0 660.77 293.61 660.77 293.61 660.12 591.91 660.12 591.91 660.77 710.7 660.77 882 660.77 1185 660.77 1185 202.71 1114.57 202.71" />
  <polygon
    points="1114.56 231.26 1114.56 432.48 1088.59 432.48 1088.59 352.4 1051.8 321.2 1051.8 200.05 1005.27 200.05 978.21 177.11 943.59 177.11 943.59 299.17 860.27 299.17 860.27 437.75 838.62 437.75 838.62 244.11 778.03 270.72 778.03 386.36 761.8 386.36 761.8 208.31 741.24 208.31 741.24 156 720.68 156 720.68 144.07 712.02 144.07 712.02 154.17 661.16 154.17 661.16 194.55 613.55 194.55 601.65 208.31 601.65 373.51 561.07 373.51 561.07 340.01 535.64 318.44 535.64 239.52 446.91 239.52 446.91 304.68 414.44 304.68 414.44 359.74 375.49 396.45 350.6 396.45 350.6 222.08 281.34 181.7 281.34 343.22 265.11 343.22 265.11 232.17 182.87 232.17 182.87 270.72 145 270.72 145 455.19 128.77 455.19 128.77 375.34 73.58 375.34 73.58 350.57 63.84 338.63 4.33 338.63 0 660.77 1027.08 660.77 1088.59 660.77 1114.56 660.77 1185 660.77 1185 231.26 1114.56 231.26" />
</svg>