<svg width="4612" height="29236" viewBox="0 0 4612 29236" fill="none" xmlns="http://www.w3.org/2000/svg">
<path fill-rule="evenodd" clip-rule="evenodd" d="M4045.11 2931.88H3450.87V3428.52H4045.11V2931.88ZM4587.27 3027.82H4045.11V3332.58H4587.27V3027.82Z" fill="black"/>
<path fill-rule="evenodd" clip-rule="evenodd" d="M4045.11 0.375H3450.87V497.01H4045.11V0.375ZM4587.27 96.3096H4045.11V401.076H4587.27V96.3096Z" fill="black"/>
<rect x="2907.95" y="5366.78" width="416.614" height="416.614" fill="black"/>
<rect x="2907.95" y="2435.27" width="416.614" height="416.614" fill="black"/>
<rect x="4059.07" y="4243.32" width="552.719" height="552.719" fill="black"/>
<rect x="4059.07" y="1311.81" width="552.719" height="552.719" fill="black"/>
<path fill-rule="evenodd" clip-rule="evenodd" d="M3380.89 4816.62L3380.89 5166.47H3257.42V5244.03H3157.69V5286.78H3059.54V5225.04H2920.23V5131.64H2842.67V4887.85H2966.14V4816.62H3257.42V4872.02H3380.89L3380.89 4816.62ZM2842.67 4796.04V4796.04H3257.42L2966.14 4796.04H2842.67Z" fill="black"/>
<path fill-rule="evenodd" clip-rule="evenodd" d="M3380.89 1885.11L3380.89 2234.96H3257.42V2312.53H3157.69V2355.27H3059.54V2293.53H2920.23V2200.13H2842.67V1956.35H2966.14V1885.11H3257.42V1940.52H3380.89L3380.89 1885.11ZM3380.89 2402.76L3257.42 2402.76H3157.69H3059.54L2842.67 2402.76H3380.89ZM2842.67 1864.53V1864.53H3257.42L2966.14 1864.53H2842.67Z" fill="black"/>
<path fill-rule="evenodd" clip-rule="evenodd" d="M2720.36 2931.88H2879.29V2989.49H2915.77H3021.96H3069.27V2931.88H3228.2V2989.49H3370.87V3428.52H3021.96H2915.77H2566.86V3332.62H2351.95V3085.39H2566.86V2989.49H2720.36V2931.88Z" fill="black"/>
<path fill-rule="evenodd" clip-rule="evenodd" d="M2720.36 0.375H2879.29V57.9785H2915.77H3021.96H3069.27V0.375H3228.2V57.9785H3370.87V497.009H3021.96H2915.77H2566.86V401.108H2351.95V153.88H2566.86V57.9785H2720.36V0.375Z" fill="black"/>
<path fill-rule="evenodd" clip-rule="evenodd" d="M2842.67 5640.72L2842.67 5481.8L2785.06 5481.8L2785.06 5328.29L2689.16 5328.29L2689.16 5113.38L2441.93 5113.38L2441.93 5328.29L2346.03 5328.29L2346.03 5783.39L2785.06 5783.39L2785.06 5640.72L2842.67 5640.72Z" fill="black"/>
<path fill-rule="evenodd" clip-rule="evenodd" d="M2842.67 2709.21L2842.67 2550.29L2785.06 2550.29L2785.06 2396.78L2689.16 2396.78L2689.16 2181.88L2441.93 2181.88L2441.93 2396.78L2346.03 2396.78L2346.03 2851.88L2785.06 2851.88L2785.06 2709.21L2842.67 2709.21Z" fill="black"/>
<path fill-rule="evenodd" clip-rule="evenodd" d="M3593.54 5292.67L3752.46 5292.67L3752.46 5235.07L3905.96 5235.07L3905.96 5139.17L4120.87 5139.17L4120.87 4891.94L3905.96 4891.94L3905.96 4796.04L3450.87 4796.04L3450.87 5235.07L3593.54 5235.07L3593.54 5292.67Z" fill="black"/>
<path fill-rule="evenodd" clip-rule="evenodd" d="M3593.54 2361.17L3752.46 2361.17L3752.46 2303.56L3905.96 2303.56L3905.96 2207.66L4120.87 2207.66L4120.87 1960.43L3905.96 1960.43L3905.96 1864.53L3450.87 1864.53L3450.87 2303.56L3593.54 2303.56L3593.54 2361.17Z" fill="black"/>
<path fill-rule="evenodd" clip-rule="evenodd" d="M4173.34 3527.01H4587.27V4004.42H4472.99V4004.42H4368.88V4081.53H4173.34V4004.42H4059.07V3669.22H4173.34V3527.01Z" fill="black"/>
<path fill-rule="evenodd" clip-rule="evenodd" d="M4173.34 595.506H4587.27V1072.92H4472.99V1072.92H4368.88V1150.02H4173.34V1072.92H4059.07V737.714H4173.34V595.506Z" fill="black"/>
<path fill-rule="evenodd" clip-rule="evenodd" d="M2956.94 3527.01H3370.87V4004.43H3256.59V4004.43H3152.48V4081.53H2956.94V4004.43H2842.67V3669.22H2956.94V3527.01Z" fill="black"/>
<path fill-rule="evenodd" clip-rule="evenodd" d="M2956.94 595.506H3370.87V1072.92H3256.59V1072.92H3152.48V1150.02H2956.94V1072.92H2842.67V737.714H2956.94V595.506Z" fill="black"/>
<path fill-rule="evenodd" clip-rule="evenodd" d="M3864.79 3527.01H3450.87V4004.43H3565.14V4004.43H3669.26V4081.53H3864.79V4004.43H3979.07V3669.22H3864.79V3527.01Z" fill="black"/>
<path fill-rule="evenodd" clip-rule="evenodd" d="M3864.79 595.506H3450.87V1072.92H3565.14V1072.92H3669.26V1150.02H3864.79V1072.92H3979.07V737.714H3864.79V595.506Z" fill="black"/>
<path fill-rule="evenodd" clip-rule="evenodd" d="M2956.94 4716.04H3370.87V4238.63H3256.59H3152.48V4161.53H2956.94V4238.63H2842.67V4573.83H2956.94V4716.04Z" fill="black"/>
<path fill-rule="evenodd" clip-rule="evenodd" d="M2956.94 1784.53H3370.87V1307.12H3256.59V1307.12H3152.48V1230.02H2956.94V1307.12H2842.67V1642.32H2956.94V1784.53Z" fill="black"/>
<path fill-rule="evenodd" clip-rule="evenodd" d="M3864.79 4716.04H3450.87V4238.63H3565.14H3669.26V4161.53H3864.79V4238.63H3979.07V4573.83H3864.79V4716.04Z" fill="black"/>
<path fill-rule="evenodd" clip-rule="evenodd" d="M3864.79 1784.53H3450.87V1307.12H3565.14V1307.12H3669.26V1230.02H3864.79V1307.12H3979.07V1642.32H3864.79V1784.53Z" fill="black"/>
<path fill-rule="evenodd" clip-rule="evenodd" d="M2351.95 3527.01H2762.67V3760.5V4002.63V4243.32H2351.95V4002.63H2393.75V3760.5H2351.95V3527.01Z" fill="black"/>
<path fill-rule="evenodd" clip-rule="evenodd" d="M2351.95 595.506H2762.67V828.99V1071.12V1071.12V1311.81H2351.95V1071.12H2393.75V828.99H2351.95V595.506Z" fill="black"/>
<path fill-rule="evenodd" clip-rule="evenodd" d="M3404.56 5783.39L3404.56 5372.67L3638.05 5372.67L3880.18 5372.67L4120.87 5372.67L4120.87 5783.39L3880.18 5783.39L3880.18 5741.59L3638.05 5741.59L3638.05 5783.39L3404.56 5783.39Z" fill="black"/>
<path fill-rule="evenodd" clip-rule="evenodd" d="M3404.56 2851.88L3404.56 2441.17L3638.05 2441.17L3880.18 2441.17L4120.87 2441.17L4120.87 2851.88L3880.18 2851.88L3880.18 2810.09L3638.05 2810.09L3638.05 2851.88L3404.56 2851.88Z" fill="black"/>
<path fill-rule="evenodd" clip-rule="evenodd" d="M2351.95 4298.58H2762.67V4532.07V4774.2V5014.89H2351.95V4774.2H2393.75V4532.07H2351.95V4298.58Z" fill="black"/>
<path fill-rule="evenodd" clip-rule="evenodd" d="M2351.95 1367.07H2762.67V1600.56V1842.69V1842.69V2083.38H2351.95V1842.69H2393.75V1600.56H2351.95V1367.07Z" fill="black"/>
<path fill-rule="evenodd" clip-rule="evenodd" d="M4611.59 5613.77L4200.87 5613.77L4200.87 5380.29L4200.87 5138.16L4200.87 4897.47L4611.59 4897.47L4611.59 5138.16L4569.79 5138.16L4569.79 5380.29L4611.59 5380.29L4611.59 5613.77Z" fill="black"/>
<path fill-rule="evenodd" clip-rule="evenodd" d="M4611.59 2682.27L4200.87 2682.27L4200.87 2448.78L4200.87 2206.65L4200.87 2206.65L4200.87 1965.96L4611.59 1965.96L4611.59 2206.65L4569.79 2206.65L4569.79 2448.78L4611.59 2448.78L4611.59 2682.27Z" fill="black"/>
<path fill-rule="evenodd" clip-rule="evenodd" d="M1699.36 2931.88H1105.11V3428.52H1699.36V2931.88ZM2241.51 3027.82H1699.36V3332.58H2241.51V3027.82Z" fill="black"/>
<path fill-rule="evenodd" clip-rule="evenodd" d="M1699.36 0.375H1105.11V497.01H1699.36V0.375ZM2241.51 96.3096H1699.36V401.076H2241.51V96.3096Z" fill="black"/>
<rect x="562.196" y="5366.78" width="416.614" height="416.614" fill="black"/>
<rect x="562.196" y="2435.27" width="416.614" height="416.614" fill="black"/>
<rect x="1713.31" y="4243.32" width="552.719" height="552.719" fill="black"/>
<rect x="1713.31" y="1311.81" width="552.719" height="552.719" fill="black"/>
<path fill-rule="evenodd" clip-rule="evenodd" d="M1035.14 4816.62L1035.14 5166.47H911.662V5244.03H811.932V5286.78H713.785V5225.04H574.48V5131.64H496.912V4887.85H620.387V4816.62H911.662V4872.02H1035.14L1035.14 4816.62ZM496.912 4796.04V4796.04H911.662L620.387 4796.04H496.912Z" fill="black"/>
<path fill-rule="evenodd" clip-rule="evenodd" d="M1035.14 1885.11L1035.14 2234.96H911.662V2312.53H811.932V2355.27H713.785V2293.53H574.48V2200.13H496.912V1956.35H620.387V1885.11H911.662V1940.52H1035.14L1035.14 1885.11ZM1035.14 2402.76L911.662 2402.76H811.932H713.785L496.912 2402.76H1035.14ZM496.912 1864.53V1864.53H911.662L620.387 1864.53H496.912Z" fill="black"/>
<path fill-rule="evenodd" clip-rule="evenodd" d="M374.609 2931.88H533.532V2989.49H570.014H676.202H723.519V2931.88H882.442V2989.49H1025.11V3428.52H676.202H570.014H221.104V3332.62H6.1965V3085.39H221.104V2989.49H374.609V2931.88Z" fill="black"/>
<path fill-rule="evenodd" clip-rule="evenodd" d="M374.609 0.375H533.532V57.9785H570.014H676.202H723.519V0.375H882.442V57.9785H1025.11V497.009H676.202H570.014H221.104V401.108H6.1965V153.88H221.104V57.9785H374.609V0.375Z" fill="black"/>
<path fill-rule="evenodd" clip-rule="evenodd" d="M496.912 5640.72L496.912 5481.8L439.308 5481.8L439.308 5328.29L343.406 5328.29L343.406 5113.38L96.1783 5113.38L96.1783 5328.29L0.276907 5328.29L0.276887 5783.39L439.308 5783.39L439.308 5640.72L496.912 5640.72Z" fill="black"/>
<path fill-rule="evenodd" clip-rule="evenodd" d="M496.912 2709.21L496.912 2550.29L439.308 2550.29L439.308 2396.78L343.406 2396.78L343.406 2181.88L96.1783 2181.88L96.1783 2396.78L0.276907 2396.78L0.276887 2851.88L439.308 2851.88L439.308 2709.21L496.912 2709.21Z" fill="black"/>
<path fill-rule="evenodd" clip-rule="evenodd" d="M1247.78 5292.67L1406.7 5292.67L1406.7 5235.07L1560.21 5235.07L1560.21 5139.17L1775.12 5139.17L1775.12 4891.94L1560.21 4891.94L1560.21 4796.04L1105.11 4796.04L1105.11 5235.07L1247.78 5235.07L1247.78 5292.67Z" fill="black"/>
<path fill-rule="evenodd" clip-rule="evenodd" d="M1247.78 2361.17L1406.7 2361.17L1406.7 2303.56L1560.21 2303.56L1560.21 2207.66L1775.12 2207.66L1775.12 1960.43L1560.21 1960.43L1560.21 1864.53L1105.11 1864.53L1105.11 2303.56L1247.78 2303.56L1247.78 2361.17Z" fill="black"/>
<path fill-rule="evenodd" clip-rule="evenodd" d="M1827.59 3527.01H2241.51V4004.42H2127.24V4004.42H2023.12V4081.53H1827.59V4004.42H1713.31V3669.22H1827.59V3527.01Z" fill="black"/>
<path fill-rule="evenodd" clip-rule="evenodd" d="M1827.59 595.506H2241.51V1072.92H2127.24V1072.92H2023.12V1150.02H1827.59V1072.92H1713.31V737.714H1827.59V595.506Z" fill="black"/>
<path fill-rule="evenodd" clip-rule="evenodd" d="M611.186 3527.01H1025.11V4004.43H910.838V4004.43H806.721V4081.53H611.186V4004.43H496.912V3669.22H611.186V3527.01Z" fill="black"/>
<path fill-rule="evenodd" clip-rule="evenodd" d="M611.186 595.506H1025.11V1072.92H910.838V1072.92H806.721V1150.02H611.186V1072.92H496.912V737.714H611.186V595.506Z" fill="black"/>
<path fill-rule="evenodd" clip-rule="evenodd" d="M1519.04 3527.01H1105.11V4004.43H1219.39V4004.43H1323.5V4081.53H1519.04V4004.43H1633.31V3669.22H1519.04V3527.01Z" fill="black"/>
<path fill-rule="evenodd" clip-rule="evenodd" d="M1519.04 595.506H1105.11V1072.92H1219.39V1072.92H1323.5V1150.02H1519.04V1072.92H1633.31V737.714H1519.04V595.506Z" fill="black"/>
<path fill-rule="evenodd" clip-rule="evenodd" d="M611.186 4716.04H1025.11V4238.63H910.838H806.721V4161.53H611.186V4238.63H496.912V4573.83H611.186V4716.04Z" fill="black"/>
<path fill-rule="evenodd" clip-rule="evenodd" d="M611.186 1784.53H1025.11V1307.12H910.838V1307.12H806.721V1230.02H611.186V1307.12H496.912V1642.32H611.186V1784.53Z" fill="black"/>
<path fill-rule="evenodd" clip-rule="evenodd" d="M1519.04 4716.04H1105.11V4238.63H1219.39H1323.5V4161.53H1519.04V4238.63H1633.31V4573.83H1519.04V4716.04Z" fill="black"/>
<path fill-rule="evenodd" clip-rule="evenodd" d="M1519.04 1784.53H1105.11V1307.12H1219.39V1307.12H1323.5V1230.02H1519.04V1307.12H1633.31V1642.32H1519.04V1784.53Z" fill="black"/>
<path fill-rule="evenodd" clip-rule="evenodd" d="M6.1965 3527.01H416.912V3760.5V4002.63V4243.32H6.1965V4002.63H47.9931V3760.5H6.1965V3527.01Z" fill="black"/>
<path fill-rule="evenodd" clip-rule="evenodd" d="M6.1965 595.506H416.912V828.99V1071.12V1071.12V1311.81H6.1965V1071.12H47.9931V828.99H6.1965V595.506Z" fill="black"/>
<path fill-rule="evenodd" clip-rule="evenodd" d="M1058.81 5783.39L1058.81 5372.67L1292.29 5372.67L1534.43 5372.67L1775.12 5372.67L1775.12 5783.39L1534.43 5783.39L1534.43 5741.59L1292.29 5741.59L1292.29 5783.39L1058.81 5783.39Z" fill="black"/>
<path fill-rule="evenodd" clip-rule="evenodd" d="M1058.81 2851.88L1058.81 2441.17L1292.29 2441.17L1534.43 2441.17L1775.12 2441.17L1775.12 2851.88L1534.43 2851.88L1534.43 2810.09L1292.29 2810.09L1292.29 2851.88L1058.81 2851.88Z" fill="black"/>
<path fill-rule="evenodd" clip-rule="evenodd" d="M6.1965 4298.58H416.912V4532.07V4774.2V5014.89H6.1965V4774.2H47.9931V4532.07H6.1965V4298.58Z" fill="black"/>
<path fill-rule="evenodd" clip-rule="evenodd" d="M6.1965 1367.07H416.912V1600.56V1842.69V1842.69V2083.38H6.1965V1842.69H47.9931V1600.56H6.1965V1367.07Z" fill="black"/>
<path fill-rule="evenodd" clip-rule="evenodd" d="M2265.83 5613.77L1855.12 5613.77L1855.12 5380.29L1855.12 5138.16L1855.12 4897.47L2265.83 4897.47L2265.83 5138.16L2224.04 5138.16L2224.04 5380.29L2265.83 5380.29L2265.83 5613.77Z" fill="black"/>
<path fill-rule="evenodd" clip-rule="evenodd" d="M2265.83 2682.27L1855.12 2682.27L1855.12 2448.78L1855.12 2206.65L1855.12 2206.65L1855.12 1965.96L2265.83 1965.96L2265.83 2206.65L2224.04 2206.65L2224.04 2448.78L2265.83 2448.78L2265.83 2682.27Z" fill="black"/>
<path fill-rule="evenodd" clip-rule="evenodd" d="M4045.11 8794.9H3450.87V9291.53H4045.11V8794.9ZM4587.27 8890.83H4045.11V9195.6H4587.27V8890.83Z" fill="black"/>
<path fill-rule="evenodd" clip-rule="evenodd" d="M4045.11 5863.39H3450.87V6360.02H4045.11V5863.39ZM4587.27 5959.32H4045.11V6264.09H4587.27V5959.32Z" fill="black"/>
<rect x="2907.95" y="11229.8" width="416.614" height="416.614" fill="black"/>
<rect x="2907.95" y="8298.28" width="416.614" height="416.614" fill="black"/>
<rect x="4059.07" y="10106.3" width="552.719" height="552.719" fill="black"/>
<rect x="4059.07" y="7174.83" width="552.719" height="552.719" fill="black"/>
<path fill-rule="evenodd" clip-rule="evenodd" d="M3380.89 10679.6L3380.89 11029.5H3257.42V11107H3157.69V11149.8H3059.54V11088.1H2920.23V10994.7H2842.67V10750.9H2966.14V10679.6H3257.42V10735H3380.89L3380.89 10679.6ZM2842.67 10659.1V10659.1H3257.42L2966.14 10659.1H2842.67Z" fill="black"/>
<path fill-rule="evenodd" clip-rule="evenodd" d="M3380.89 7748.13L3380.89 8097.97H3257.42V8175.54H3157.69V8218.28H3059.54V8156.54H2920.23V8063.15H2842.67V7819.36H2966.14V7748.13H3257.42V7803.53H3380.89L3380.89 7748.13ZM3380.89 8265.77L3257.42 8265.77H3157.69H3059.54L2842.67 8265.77H3380.89ZM2842.67 7727.55V7727.55H3257.42L2966.14 7727.55H2842.67Z" fill="black"/>
<path fill-rule="evenodd" clip-rule="evenodd" d="M2720.36 8794.9H2879.29V8852.5H2915.77H3021.96H3069.27V8794.9H3228.2V8852.5H3370.87V9291.53H3021.96H2915.77H2566.86V9195.63H2351.95V8948.4H2566.86V8852.5H2720.36V8794.9Z" fill="black"/>
<path fill-rule="evenodd" clip-rule="evenodd" d="M2720.36 5863.39H2879.29V5920.99H2915.77H3021.96H3069.27V5863.39H3228.2V5920.99H3370.87V6360.02H3021.96H2915.77H2566.86V6264.12H2351.95V6016.89H2566.86V5920.99H2720.36V5863.39Z" fill="black"/>
<path fill-rule="evenodd" clip-rule="evenodd" d="M2842.67 11503.7L2842.67 11344.8L2785.06 11344.8L2785.06 11191.3L2689.16 11191.3L2689.16 10976.4L2441.93 10976.4L2441.93 11191.3L2346.03 11191.3L2346.03 11646.4L2785.06 11646.4L2785.06 11503.7L2842.67 11503.7Z" fill="black"/>
<path fill-rule="evenodd" clip-rule="evenodd" d="M2842.67 8572.23L2842.67 8413.3L2785.06 8413.3L2785.06 8259.8L2689.16 8259.8L2689.16 8044.89L2441.93 8044.89L2441.93 8259.8L2346.03 8259.8L2346.03 8714.9L2785.06 8714.9L2785.06 8572.23L2842.67 8572.23Z" fill="black"/>
<path fill-rule="evenodd" clip-rule="evenodd" d="M3593.54 11155.7L3752.46 11155.7L3752.46 11098.1L3905.96 11098.1L3905.96 11002.2L4120.87 11002.2L4120.87 10755L3905.96 10755L3905.96 10659.1L3450.87 10659.1L3450.87 11098.1L3593.54 11098.1L3593.54 11155.7Z" fill="black"/>
<path fill-rule="evenodd" clip-rule="evenodd" d="M3593.54 8224.18L3752.46 8224.18L3752.46 8166.58L3905.96 8166.58L3905.96 8070.68L4120.87 8070.68L4120.87 7823.45L3905.96 7823.45L3905.96 7727.55L3450.87 7727.55L3450.87 8166.58L3593.54 8166.58L3593.54 8224.18Z" fill="black"/>
<path fill-rule="evenodd" clip-rule="evenodd" d="M4173.34 9390.03H4587.27V9867.44H4472.99V9867.44H4368.88V9944.54H4173.34V9867.44H4059.07V9532.24H4173.34V9390.03Z" fill="black"/>
<path fill-rule="evenodd" clip-rule="evenodd" d="M4173.34 6458.52H4587.27V6935.93H4472.99V6935.93H4368.88V7013.03H4173.34V6935.93H4059.07V6600.73H4173.34V6458.52Z" fill="black"/>
<path fill-rule="evenodd" clip-rule="evenodd" d="M2956.94 9390.03H3370.87V9867.44H3256.59V9867.44H3152.48V9944.54H2956.94V9867.44H2842.67V9532.24H2956.94V9390.03Z" fill="black"/>
<path fill-rule="evenodd" clip-rule="evenodd" d="M2956.94 6458.52H3370.87V6935.93H3256.59V6935.93H3152.48V7013.03H2956.94V6935.93H2842.67V6600.73H2956.94V6458.52Z" fill="black"/>
<path fill-rule="evenodd" clip-rule="evenodd" d="M3864.79 9390.03H3450.87V9867.44H3565.14V9867.44H3669.26V9944.54H3864.79V9867.44H3979.07V9532.24H3864.79V9390.03Z" fill="black"/>
<path fill-rule="evenodd" clip-rule="evenodd" d="M3864.79 6458.52H3450.87V6935.93H3565.14V6935.93H3669.26V7013.03H3864.79V6935.93H3979.07V6600.73H3864.79V6458.52Z" fill="black"/>
<path fill-rule="evenodd" clip-rule="evenodd" d="M2956.94 10579.1H3370.87V10101.6H3256.59H3152.48V10024.5H2956.94V10101.6H2842.67V10436.8H2956.94V10579.1Z" fill="black"/>
<path fill-rule="evenodd" clip-rule="evenodd" d="M2956.94 7647.55H3370.87V7170.14H3256.59V7170.14H3152.48V7093.03H2956.94V7170.14H2842.67V7505.34H2956.94V7647.55Z" fill="black"/>
<path fill-rule="evenodd" clip-rule="evenodd" d="M3864.79 10579.1H3450.87V10101.6H3565.14H3669.26V10024.5H3864.79V10101.6H3979.07V10436.8H3864.79V10579.1Z" fill="black"/>
<path fill-rule="evenodd" clip-rule="evenodd" d="M3864.79 7647.55H3450.87V7170.14H3565.14V7170.14H3669.26V7093.03H3864.79V7170.14H3979.07V7505.34H3864.79V7647.55Z" fill="black"/>
<path fill-rule="evenodd" clip-rule="evenodd" d="M2351.95 9390.03H2762.67V9623.51V9865.64V10106.3H2351.95V9865.64H2393.75V9623.51H2351.95V9390.03Z" fill="black"/>
<path fill-rule="evenodd" clip-rule="evenodd" d="M2351.95 6458.52H2762.67V6692.01V6934.14V6934.14V7174.83H2351.95V6934.14H2393.75V6692.01H2351.95V6458.52Z" fill="black"/>
<path fill-rule="evenodd" clip-rule="evenodd" d="M3404.56 11646.4L3404.56 11235.7L3638.05 11235.7L3880.18 11235.7L4120.87 11235.7L4120.87 11646.4L3880.18 11646.4L3880.18 11604.6L3638.05 11604.6L3638.05 11646.4L3404.56 11646.4Z" fill="black"/>
<path fill-rule="evenodd" clip-rule="evenodd" d="M3404.56 8714.9L3404.56 8304.18L3638.05 8304.18L3880.18 8304.18L4120.87 8304.18L4120.87 8714.9L3880.18 8714.9L3880.18 8673.1L3638.05 8673.1L3638.05 8714.9L3404.56 8714.9Z" fill="black"/>
<path fill-rule="evenodd" clip-rule="evenodd" d="M2351.95 10161.6H2762.67V10395.1V10637.2V10877.9H2351.95V10637.2H2393.75V10395.1H2351.95V10161.6Z" fill="black"/>
<path fill-rule="evenodd" clip-rule="evenodd" d="M2351.95 7230.09H2762.67V7463.57V7705.71V7705.71V7946.4H2351.95V7705.71H2393.75V7463.57H2351.95V7230.09Z" fill="black"/>
<path fill-rule="evenodd" clip-rule="evenodd" d="M4611.59 11476.8L4200.87 11476.8L4200.87 11243.3L4200.87 11001.2L4200.87 10760.5L4611.59 10760.5L4611.59 11001.2L4569.79 11001.2L4569.79 11243.3L4611.59 11243.3L4611.59 11476.8Z" fill="black"/>
<path fill-rule="evenodd" clip-rule="evenodd" d="M4611.59 8545.28L4200.87 8545.28L4200.87 8311.8L4200.87 8069.67L4200.87 8069.66L4200.87 7828.97L4611.59 7828.97L4611.59 8069.67L4569.79 8069.67L4569.79 8311.8L4611.59 8311.8L4611.59 8545.28Z" fill="black"/>
<path fill-rule="evenodd" clip-rule="evenodd" d="M1699.36 8794.9H1105.11V9291.53H1699.36V8794.9ZM2241.51 8890.83H1699.36V9195.6H2241.51V8890.83Z" fill="black"/>
<path fill-rule="evenodd" clip-rule="evenodd" d="M1699.36 5863.39H1105.11V6360.02H1699.36V5863.39ZM2241.51 5959.32H1699.36V6264.09H2241.51V5959.32Z" fill="black"/>
<rect x="562.196" y="11229.8" width="416.614" height="416.614" fill="black"/>
<rect x="562.196" y="8298.28" width="416.614" height="416.614" fill="black"/>
<rect x="1713.31" y="10106.3" width="552.719" height="552.719" fill="black"/>
<rect x="1713.31" y="7174.83" width="552.719" height="552.719" fill="black"/>
<path fill-rule="evenodd" clip-rule="evenodd" d="M1035.14 10679.6L1035.14 11029.5H911.662V11107H811.932V11149.8H713.785V11088.1H574.48V10994.7H496.912V10750.9H620.387V10679.6H911.662V10735H1035.14L1035.14 10679.6ZM496.912 10659.1V10659.1H911.662L620.387 10659.1H496.912Z" fill="black"/>
<path fill-rule="evenodd" clip-rule="evenodd" d="M1035.14 7748.13L1035.14 8097.97H911.662V8175.54H811.932V8218.28H713.785V8156.54H574.48V8063.15H496.912V7819.36H620.387V7748.13H911.662V7803.53H1035.14L1035.14 7748.13ZM1035.14 8265.77L911.662 8265.77H811.932H713.785L496.912 8265.77H1035.14ZM496.912 7727.55V7727.55H911.662L620.387 7727.55H496.912Z" fill="black"/>
<path fill-rule="evenodd" clip-rule="evenodd" d="M374.609 8794.9H533.532V8852.5H570.014H676.202H723.519V8794.9H882.442V8852.5H1025.11V9291.53H676.202H570.014H221.104V9195.63H6.1965V8948.4H221.104V8852.5H374.609V8794.9Z" fill="black"/>
<path fill-rule="evenodd" clip-rule="evenodd" d="M374.609 5863.39H533.532V5920.99H570.014H676.202H723.519V5863.39H882.442V5920.99H1025.11V6360.02H676.202H570.014H221.104V6264.12H6.1965V6016.89H221.104V5920.99H374.609V5863.39Z" fill="black"/>
<path fill-rule="evenodd" clip-rule="evenodd" d="M496.912 11503.7L496.912 11344.8L439.308 11344.8L439.308 11191.3L343.406 11191.3L343.406 10976.4L96.1783 10976.4L96.1783 11191.3L0.276907 11191.3L0.276887 11646.4L439.308 11646.4L439.308 11503.7L496.912 11503.7Z" fill="black"/>
<path fill-rule="evenodd" clip-rule="evenodd" d="M496.912 8572.23L496.912 8413.3L439.308 8413.3L439.308 8259.8L343.406 8259.8L343.406 8044.89L96.1783 8044.89L96.1783 8259.8L0.276891 8259.8L0.276871 8714.9L439.308 8714.9L439.308 8572.23L496.912 8572.23Z" fill="black"/>
<path fill-rule="evenodd" clip-rule="evenodd" d="M1247.78 11155.7L1406.7 11155.7L1406.7 11098.1L1560.21 11098.1L1560.21 11002.2L1775.12 11002.2L1775.12 10755L1560.21 10755L1560.21 10659.1L1105.11 10659.1L1105.11 11098.1L1247.78 11098.1L1247.78 11155.7Z" fill="black"/>
<path fill-rule="evenodd" clip-rule="evenodd" d="M1247.78 8224.18L1406.7 8224.18L1406.7 8166.58L1560.21 8166.58L1560.21 8070.68L1775.12 8070.68L1775.12 7823.45L1560.21 7823.45L1560.21 7727.55L1105.11 7727.55L1105.11 8166.58L1247.78 8166.58L1247.78 8224.18Z" fill="black"/>
<path fill-rule="evenodd" clip-rule="evenodd" d="M1827.59 9390.03H2241.51V9867.44H2127.24V9867.44H2023.12V9944.54H1827.59V9867.44H1713.31V9532.24H1827.59V9390.03Z" fill="black"/>
<path fill-rule="evenodd" clip-rule="evenodd" d="M1827.59 6458.52H2241.51V6935.93H2127.24V6935.93H2023.12V7013.03H1827.59V6935.93H1713.31V6600.73H1827.59V6458.52Z" fill="black"/>
<path fill-rule="evenodd" clip-rule="evenodd" d="M611.186 9390.03H1025.11V9867.44H910.838V9867.44H806.721V9944.54H611.186V9867.44H496.912V9532.24H611.186V9390.03Z" fill="black"/>
<path fill-rule="evenodd" clip-rule="evenodd" d="M611.186 6458.52H1025.11V6935.93H910.838V6935.93H806.721V7013.03H611.186V6935.93H496.912V6600.73H611.186V6458.52Z" fill="black"/>
<path fill-rule="evenodd" clip-rule="evenodd" d="M1519.04 9390.03H1105.11V9867.44H1219.39V9867.44H1323.5V9944.54H1519.04V9867.44H1633.31V9532.24H1519.04V9390.03Z" fill="black"/>
<path fill-rule="evenodd" clip-rule="evenodd" d="M1519.04 6458.52H1105.11V6935.93H1219.39V6935.93H1323.5V7013.03H1519.04V6935.93H1633.31V6600.73H1519.04V6458.52Z" fill="black"/>
<path fill-rule="evenodd" clip-rule="evenodd" d="M611.186 10579.1H1025.11V10101.6H910.838H806.721V10024.5H611.186V10101.6H496.912V10436.8H611.186V10579.1Z" fill="black"/>
<path fill-rule="evenodd" clip-rule="evenodd" d="M611.186 7647.55H1025.11V7170.14H910.838V7170.14H806.721V7093.03H611.186V7170.14H496.912V7505.34H611.186V7647.55Z" fill="black"/>
<path fill-rule="evenodd" clip-rule="evenodd" d="M1519.04 10579.1H1105.11V10101.6H1219.39H1323.5V10024.5H1519.04V10101.6H1633.31V10436.8H1519.04V10579.1Z" fill="black"/>
<path fill-rule="evenodd" clip-rule="evenodd" d="M1519.04 7647.55H1105.11V7170.14H1219.39V7170.14H1323.5V7093.03H1519.04V7170.14H1633.31V7505.34H1519.04V7647.55Z" fill="black"/>
<path fill-rule="evenodd" clip-rule="evenodd" d="M6.1965 9390.03H416.912V9623.51V9865.64V10106.3H6.1965V9865.64H47.9931V9623.51H6.1965V9390.03Z" fill="black"/>
<path fill-rule="evenodd" clip-rule="evenodd" d="M6.1965 6458.52H416.912V6692.01V6934.14V6934.14V7174.83H6.1965V6934.14H47.9931V6692.01H6.1965V6458.52Z" fill="black"/>
<path fill-rule="evenodd" clip-rule="evenodd" d="M1058.81 11646.4L1058.81 11235.7L1292.29 11235.7L1534.43 11235.7L1775.12 11235.7L1775.12 11646.4L1534.43 11646.4L1534.43 11604.6L1292.29 11604.6L1292.29 11646.4L1058.81 11646.4Z" fill="black"/>
<path fill-rule="evenodd" clip-rule="evenodd" d="M1058.81 8714.9L1058.81 8304.18L1292.29 8304.18L1534.43 8304.18L1775.12 8304.18L1775.12 8714.9L1534.43 8714.9L1534.43 8673.1L1292.29 8673.1L1292.29 8714.9L1058.81 8714.9Z" fill="black"/>
<path fill-rule="evenodd" clip-rule="evenodd" d="M6.1965 10161.6H416.912V10395.1V10637.2V10877.9H6.1965V10637.2H47.9931V10395.1H6.1965V10161.6Z" fill="black"/>
<path fill-rule="evenodd" clip-rule="evenodd" d="M6.1965 7230.09H416.912V7463.57V7705.71V7705.71V7946.4H6.1965V7705.71H47.9931V7463.57H6.1965V7230.09Z" fill="black"/>
<path fill-rule="evenodd" clip-rule="evenodd" d="M2265.83 11476.8L1855.12 11476.8L1855.12 11243.3L1855.12 11001.2L1855.12 10760.5L2265.83 10760.5L2265.83 11001.2L2224.04 11001.2L2224.04 11243.3L2265.83 11243.3L2265.83 11476.8Z" fill="black"/>
<path fill-rule="evenodd" clip-rule="evenodd" d="M2265.83 8545.28L1855.12 8545.28L1855.12 8311.8L1855.12 8069.67L1855.12 8069.66L1855.12 7828.97L2265.83 7828.97L2265.83 8069.67L2224.04 8069.67L2224.04 8311.8L2265.83 8311.8L2265.83 8545.28Z" fill="black"/>
<path fill-rule="evenodd" clip-rule="evenodd" d="M4045.11 14657.9H3450.87V15154.5H4045.11V14657.9ZM4587.27 14753.8H4045.11V15058.6H4587.27V14753.8Z" fill="black"/>
<path fill-rule="evenodd" clip-rule="evenodd" d="M4045.11 11726.4H3450.87V12223H4045.11V11726.4ZM4587.27 11822.3H4045.11V12127.1H4587.27V11822.3Z" fill="black"/>
<rect x="2907.95" y="17092.8" width="416.614" height="416.614" fill="black"/>
<rect x="2907.95" y="14161.3" width="416.614" height="416.614" fill="black"/>
<rect x="4059.07" y="15969.3" width="552.719" height="552.719" fill="black"/>
<rect x="4059.07" y="13037.8" width="552.719" height="552.719" fill="black"/>
<path fill-rule="evenodd" clip-rule="evenodd" d="M3380.89 16542.6L3380.89 16892.5H3257.42V16970.1H3157.69V17012.8H3059.54V16951.1H2920.23V16857.7H2842.67V16613.9H2966.14V16542.6H3257.42V16598.1H3380.89L3380.89 16542.6ZM2842.67 16522.1V16522.1H3257.42L2966.14 16522.1H2842.67Z" fill="black"/>
<path fill-rule="evenodd" clip-rule="evenodd" d="M3380.89 13611.1L3380.89 13961H3257.42V14038.6H3157.69V14081.3H3059.54V14019.6H2920.23V13926.2H2842.67V13682.4H2966.14V13611.1H3257.42V13666.5H3380.89L3380.89 13611.1ZM3380.89 14128.8L3257.42 14128.8H3157.69H3059.54L2842.67 14128.8H3380.89ZM2842.67 13590.6V13590.6H3257.42L2966.14 13590.6H2842.67Z" fill="black"/>
<path fill-rule="evenodd" clip-rule="evenodd" d="M2720.36 14657.9H2879.29V14715.5H2915.77H3021.96H3069.27V14657.9H3228.2V14715.5H3370.87V15154.5H3021.96H2915.77H2566.86V15058.6H2351.95V14811.4H2566.86V14715.5H2720.36V14657.9Z" fill="black"/>
<path fill-rule="evenodd" clip-rule="evenodd" d="M2720.36 11726.4H2879.29V11784H2915.77H3021.96H3069.27V11726.4H3228.2V11784H3370.87V12223H3021.96H2915.77H2566.86V12127.1H2351.95V11879.9H2566.86V11784H2720.36V11726.4Z" fill="black"/>
<path fill-rule="evenodd" clip-rule="evenodd" d="M2842.67 17366.7L2842.67 17207.8L2785.06 17207.8L2785.06 17054.3L2689.16 17054.3L2689.16 16839.4L2441.93 16839.4L2441.93 17054.3L2346.03 17054.3L2346.03 17509.4L2785.06 17509.4L2785.06 17366.7L2842.67 17366.7Z" fill="black"/>
<path fill-rule="evenodd" clip-rule="evenodd" d="M2842.67 14435.2L2842.67 14276.3L2785.06 14276.3L2785.06 14122.8L2689.16 14122.8L2689.16 13907.9L2441.93 13907.9L2441.93 14122.8L2346.03 14122.8L2346.03 14577.9L2785.06 14577.9L2785.06 14435.2L2842.67 14435.2Z" fill="black"/>
<path fill-rule="evenodd" clip-rule="evenodd" d="M3593.54 17018.7L3752.46 17018.7L3752.46 16961.1L3905.96 16961.1L3905.96 16865.2L4120.87 16865.2L4120.87 16618L3905.96 16618L3905.96 16522.1L3450.87 16522.1L3450.87 16961.1L3593.54 16961.1L3593.54 17018.7Z" fill="black"/>
<path fill-rule="evenodd" clip-rule="evenodd" d="M3593.54 14087.2L3752.46 14087.2L3752.46 14029.6L3905.96 14029.6L3905.96 13933.7L4120.87 13933.7L4120.87 13686.5L3905.96 13686.5L3905.96 13590.6L3450.87 13590.6L3450.87 14029.6L3593.54 14029.6L3593.54 14087.2Z" fill="black"/>
<path fill-rule="evenodd" clip-rule="evenodd" d="M4173.34 15253H4587.27V15730.5H4472.99V15730.5H4368.88V15807.6H4173.34V15730.5H4059.07V15395.3H4173.34V15253Z" fill="black"/>
<path fill-rule="evenodd" clip-rule="evenodd" d="M4173.34 12321.5H4587.27V12798.9H4472.99V12798.9H4368.88V12876H4173.34V12798.9H4059.07V12463.7H4173.34V12321.5Z" fill="black"/>
<path fill-rule="evenodd" clip-rule="evenodd" d="M2956.94 15253H3370.87V15730.5H3256.59V15730.5H3152.48V15807.6H2956.94V15730.5H2842.67V15395.3H2956.94V15253Z" fill="black"/>
<path fill-rule="evenodd" clip-rule="evenodd" d="M2956.94 12321.5H3370.87V12798.9H3256.59V12798.9H3152.48V12876H2956.94V12798.9H2842.67V12463.7H2956.94V12321.5Z" fill="black"/>
<path fill-rule="evenodd" clip-rule="evenodd" d="M3864.79 15253H3450.87V15730.5H3565.14V15730.5H3669.26V15807.6H3864.79V15730.5H3979.07V15395.3H3864.79V15253Z" fill="black"/>
<path fill-rule="evenodd" clip-rule="evenodd" d="M3864.79 12321.5H3450.87V12798.9H3565.14V12798.9H3669.26V12876H3864.79V12798.9H3979.07V12463.7H3864.79V12321.5Z" fill="black"/>
<path fill-rule="evenodd" clip-rule="evenodd" d="M2956.94 16442.1H3370.87V15964.7H3256.59H3152.48V15887.6H2956.94V15964.7H2842.67V16299.9H2956.94V16442.1Z" fill="black"/>
<path fill-rule="evenodd" clip-rule="evenodd" d="M2956.94 13510.6H3370.87V13033.2H3256.59V13033.1H3152.48V12956H2956.94V13033.1H2842.67V13368.4H2956.94V13510.6Z" fill="black"/>
<path fill-rule="evenodd" clip-rule="evenodd" d="M3864.79 16442.1H3450.87V15964.7H3565.14H3669.26V15887.6H3864.79V15964.7H3979.07V16299.9H3864.79V16442.1Z" fill="black"/>
<path fill-rule="evenodd" clip-rule="evenodd" d="M3864.79 13510.6H3450.87V13033.2H3565.14V13033.1H3669.26V12956H3864.79V13033.1H3979.07V13368.4H3864.79V13510.6Z" fill="black"/>
<path fill-rule="evenodd" clip-rule="evenodd" d="M2351.95 15253H2762.67V15486.5V15728.7V15969.3H2351.95V15728.7H2393.75V15486.5H2351.95V15253Z" fill="black"/>
<path fill-rule="evenodd" clip-rule="evenodd" d="M2351.95 12321.5H2762.67V12555V12797.2V12797.2V13037.8H2351.95V12797.2H2393.75V12555H2351.95V12321.5Z" fill="black"/>
<path fill-rule="evenodd" clip-rule="evenodd" d="M3404.56 17509.4L3404.56 17098.7L3638.05 17098.7L3880.18 17098.7L4120.87 17098.7L4120.87 17509.4L3880.18 17509.4L3880.18 17467.6L3638.05 17467.6L3638.05 17509.4L3404.56 17509.4Z" fill="black"/>
<path fill-rule="evenodd" clip-rule="evenodd" d="M3404.56 14577.9L3404.56 14167.2L3638.05 14167.2L3880.18 14167.2L4120.87 14167.2L4120.87 14577.9L3880.18 14577.9L3880.18 14536.1L3638.05 14536.1L3638.05 14577.9L3404.56 14577.9Z" fill="black"/>
<path fill-rule="evenodd" clip-rule="evenodd" d="M2351.95 16024.6H2762.67V16258.1V16500.2V16740.9H2351.95V16500.2H2393.75V16258.1H2351.95V16024.6Z" fill="black"/>
<path fill-rule="evenodd" clip-rule="evenodd" d="M2351.95 13093.1H2762.67V13326.6V13568.7V13568.7V13809.4H2351.95V13568.7H2393.75V13326.6H2351.95V13093.1Z" fill="black"/>
<path fill-rule="evenodd" clip-rule="evenodd" d="M4611.59 17339.8L4200.87 17339.8L4200.87 17106.3L4200.87 16864.2L4200.87 16623.5L4611.59 16623.5L4611.59 16864.2L4569.79 16864.2L4569.79 17106.3L4611.59 17106.3L4611.59 17339.8Z" fill="black"/>
<path fill-rule="evenodd" clip-rule="evenodd" d="M4611.59 14408.3L4200.87 14408.3L4200.87 14174.8L4200.87 13932.7L4200.87 13932.7L4200.87 13692L4611.59 13692L4611.59 13932.7L4569.79 13932.7L4569.79 14174.8L4611.59 14174.8L4611.59 14408.3Z" fill="black"/>
<path fill-rule="evenodd" clip-rule="evenodd" d="M1699.36 14657.9H1105.11V15154.5H1699.36V14657.9ZM2241.51 14753.8H1699.36V15058.6H2241.51V14753.8Z" fill="black"/>
<path fill-rule="evenodd" clip-rule="evenodd" d="M1699.36 11726.4H1105.11V12223H1699.36V11726.4ZM2241.51 11822.3H1699.36V12127.1H2241.51V11822.3Z" fill="black"/>
<rect x="562.196" y="17092.8" width="416.614" height="416.614" fill="black"/>
<rect x="562.196" y="14161.3" width="416.614" height="416.614" fill="black"/>
<rect x="1713.31" y="15969.3" width="552.719" height="552.719" fill="black"/>
<rect x="1713.31" y="13037.8" width="552.719" height="552.719" fill="black"/>
<path fill-rule="evenodd" clip-rule="evenodd" d="M1035.14 16542.6L1035.14 16892.5H911.662V16970.1H811.932V17012.8H713.785V16951.1H574.48V16857.7H496.912V16613.9H620.387V16542.6H911.662V16598.1H1035.14L1035.14 16542.6ZM496.912 16522.1V16522.1H911.662L620.387 16522.1H496.912Z" fill="black"/>
<path fill-rule="evenodd" clip-rule="evenodd" d="M1035.14 13611.1L1035.14 13961H911.662V14038.6H811.932V14081.3H713.785V14019.6H574.48V13926.2H496.912V13682.4H620.387V13611.1H911.662V13666.5H1035.14L1035.14 13611.1ZM1035.14 14128.8L911.662 14128.8H811.932H713.785L496.912 14128.8H1035.14ZM496.912 13590.6V13590.6H911.662L620.387 13590.6H496.912Z" fill="black"/>
<path fill-rule="evenodd" clip-rule="evenodd" d="M374.609 14657.9H533.532V14715.5H570.014H676.202H723.519V14657.9H882.442V14715.5H1025.11V15154.5H676.202H570.014H221.104V15058.6H6.1965V14811.4H221.104V14715.5H374.609V14657.9Z" fill="black"/>
<path fill-rule="evenodd" clip-rule="evenodd" d="M374.609 11726.4H533.532V11784H570.014H676.202H723.519V11726.4H882.442V11784H1025.11V12223H676.202H570.014H221.104V12127.1H6.1965V11879.9H221.104V11784H374.609V11726.4Z" fill="black"/>
<path fill-rule="evenodd" clip-rule="evenodd" d="M496.912 17366.7L496.912 17207.8L439.308 17207.8L439.308 17054.3L343.406 17054.3L343.406 16839.4L96.1783 16839.4L96.1783 17054.3L0.276907 17054.3L0.276887 17509.4L439.308 17509.4L439.308 17366.7L496.912 17366.7Z" fill="black"/>
<path fill-rule="evenodd" clip-rule="evenodd" d="M496.912 14435.2L496.912 14276.3L439.308 14276.3L439.308 14122.8L343.406 14122.8L343.406 13907.9L96.1783 13907.9L96.1783 14122.8L0.276891 14122.8L0.276871 14577.9L439.308 14577.9L439.308 14435.2L496.912 14435.2Z" fill="black"/>
<path fill-rule="evenodd" clip-rule="evenodd" d="M1247.78 17018.7L1406.7 17018.7L1406.7 16961.1L1560.21 16961.1L1560.21 16865.2L1775.12 16865.2L1775.12 16618L1560.21 16618L1560.21 16522.1L1105.11 16522.1L1105.11 16961.1L1247.78 16961.1L1247.78 17018.7Z" fill="black"/>
<path fill-rule="evenodd" clip-rule="evenodd" d="M1247.78 14087.2L1406.7 14087.2L1406.7 14029.6L1560.21 14029.6L1560.21 13933.7L1775.12 13933.7L1775.12 13686.5L1560.21 13686.5L1560.21 13590.6L1105.11 13590.6L1105.11 14029.6L1247.78 14029.6L1247.78 14087.2Z" fill="black"/>
<path fill-rule="evenodd" clip-rule="evenodd" d="M1827.59 15253H2241.51V15730.5H2127.24V15730.5H2023.12V15807.6H1827.59V15730.5H1713.31V15395.3H1827.59V15253Z" fill="black"/>
<path fill-rule="evenodd" clip-rule="evenodd" d="M1827.59 12321.5H2241.51V12798.9H2127.24V12798.9H2023.12V12876H1827.59V12798.9H1713.31V12463.7H1827.59V12321.5Z" fill="black"/>
<path fill-rule="evenodd" clip-rule="evenodd" d="M611.186 15253H1025.11V15730.5H910.838V15730.5H806.721V15807.6H611.186V15730.5H496.912V15395.3H611.186V15253Z" fill="black"/>
<path fill-rule="evenodd" clip-rule="evenodd" d="M611.186 12321.5H1025.11V12798.9H910.838V12798.9H806.721V12876H611.186V12798.9H496.912V12463.7H611.186V12321.5Z" fill="black"/>
<path fill-rule="evenodd" clip-rule="evenodd" d="M1519.04 15253H1105.11V15730.5H1219.39V15730.5H1323.5V15807.6H1519.04V15730.5H1633.31V15395.3H1519.04V15253Z" fill="black"/>
<path fill-rule="evenodd" clip-rule="evenodd" d="M1519.04 12321.5H1105.11V12798.9H1219.39V12798.9H1323.5V12876H1519.04V12798.9H1633.31V12463.7H1519.04V12321.5Z" fill="black"/>
<path fill-rule="evenodd" clip-rule="evenodd" d="M611.186 16442.1H1025.11V15964.7H910.838H806.721V15887.6H611.186V15964.7H496.912V16299.9H611.186V16442.1Z" fill="black"/>
<path fill-rule="evenodd" clip-rule="evenodd" d="M611.186 13510.6H1025.11V13033.2H910.838V13033.1H806.721V12956H611.186V13033.1H496.912V13368.4H611.186V13510.6Z" fill="black"/>
<path fill-rule="evenodd" clip-rule="evenodd" d="M1519.04 16442.1H1105.11V15964.7H1219.39H1323.5V15887.6H1519.04V15964.7H1633.31V16299.9H1519.04V16442.1Z" fill="black"/>
<path fill-rule="evenodd" clip-rule="evenodd" d="M1519.04 13510.6H1105.11V13033.2H1219.39V13033.1H1323.5V12956H1519.04V13033.1H1633.31V13368.4H1519.04V13510.6Z" fill="black"/>
<path fill-rule="evenodd" clip-rule="evenodd" d="M6.1965 15253H416.912V15486.5V15728.7V15969.3H6.1965V15728.7H47.9931V15486.5H6.1965V15253Z" fill="black"/>
<path fill-rule="evenodd" clip-rule="evenodd" d="M6.1965 12321.5H416.912V12555V12797.2V12797.2V13037.8H6.1965V12797.2H47.9931V12555H6.1965V12321.5Z" fill="black"/>
<path fill-rule="evenodd" clip-rule="evenodd" d="M1058.81 17509.4L1058.81 17098.7L1292.29 17098.7L1534.43 17098.7L1775.12 17098.7L1775.12 17509.4L1534.43 17509.4L1534.43 17467.6L1292.29 17467.6L1292.29 17509.4L1058.81 17509.4Z" fill="black"/>
<path fill-rule="evenodd" clip-rule="evenodd" d="M1058.81 14577.9L1058.81 14167.2L1292.29 14167.2L1534.43 14167.2L1775.12 14167.2L1775.12 14577.9L1534.43 14577.9L1534.43 14536.1L1292.29 14536.1L1292.29 14577.9L1058.81 14577.9Z" fill="black"/>
<path fill-rule="evenodd" clip-rule="evenodd" d="M6.1965 16024.6H416.912V16258.1V16500.2V16740.9H6.1965V16500.2H47.9931V16258.1H6.1965V16024.6Z" fill="black"/>
<path fill-rule="evenodd" clip-rule="evenodd" d="M6.1965 13093.1H416.912V13326.6V13568.7V13568.7V13809.4H6.1965V13568.7H47.9931V13326.6H6.1965V13093.1Z" fill="black"/>
<path fill-rule="evenodd" clip-rule="evenodd" d="M2265.83 17339.8L1855.12 17339.8L1855.12 17106.3L1855.12 16864.2L1855.12 16623.5L2265.83 16623.5L2265.83 16864.2L2224.04 16864.2L2224.04 17106.3L2265.83 17106.3L2265.83 17339.8Z" fill="black"/>
<path fill-rule="evenodd" clip-rule="evenodd" d="M2265.83 14408.3L1855.12 14408.3L1855.12 14174.8L1855.12 13932.7L1855.12 13932.7L1855.12 13692L2265.83 13692L2265.83 13932.7L2224.04 13932.7L2224.04 14174.8L2265.83 14174.8L2265.83 14408.3Z" fill="black"/>
<path fill-rule="evenodd" clip-rule="evenodd" d="M4045.11 20520.9H3450.87V21017.6H4045.11V20520.9ZM4587.27 20616.9H4045.11V20921.6H4587.27V20616.9Z" fill="black"/>
<path fill-rule="evenodd" clip-rule="evenodd" d="M4045.11 17589.4H3450.87V18086.1H4045.11V17589.4ZM4587.27 17685.4H4045.11V17990.1H4587.27V17685.4Z" fill="black"/>
<rect x="2907.95" y="22955.8" width="416.614" height="416.614" fill="black"/>
<rect x="2907.95" y="20024.3" width="416.614" height="416.614" fill="black"/>
<rect x="4059.07" y="21832.4" width="552.719" height="552.719" fill="black"/>
<rect x="4059.07" y="18900.9" width="552.719" height="552.719" fill="black"/>
<path fill-rule="evenodd" clip-rule="evenodd" d="M3380.89 22405.7L3380.89 22755.5H3257.42V22833.1H3157.69V22875.8H3059.54V22814.1H2920.23V22720.7H2842.67V22476.9H2966.14V22405.7H3257.42V22461.1H3380.89L3380.89 22405.7ZM2842.67 22385.1V22385.1H3257.42L2966.14 22385.1H2842.67Z" fill="black"/>
<path fill-rule="evenodd" clip-rule="evenodd" d="M3380.89 19474.2L3380.89 19824H3257.42V19901.6H3157.69V19944.3H3059.54V19882.6H2920.23V19789.2H2842.67V19545.4H2966.14V19474.2H3257.42V19529.6H3380.89L3380.89 19474.2ZM3380.89 19991.8L3257.42 19991.8H3157.69H3059.54L2842.67 19991.8H3380.89ZM2842.67 19453.6V19453.6H3257.42L2966.14 19453.6H2842.67Z" fill="black"/>
<path fill-rule="evenodd" clip-rule="evenodd" d="M2720.36 20520.9H2879.29V20578.5H2915.77H3021.96H3069.27V20520.9H3228.2V20578.5H3370.87V21017.6H3021.96H2915.77H2566.86V20921.7H2351.95V20674.4H2566.86V20578.5H2720.36V20520.9Z" fill="black"/>
<path fill-rule="evenodd" clip-rule="evenodd" d="M2720.36 17589.4H2879.29V17647H2915.77H3021.96H3069.27V17589.4H3228.2V17647H3370.87V18086.1H3021.96H2915.77H2566.86V17990.2H2351.95V17742.9H2566.86V17647H2720.36V17589.4Z" fill="black"/>
<path fill-rule="evenodd" clip-rule="evenodd" d="M2842.67 23229.8L2842.67 23070.8L2785.06 23070.8L2785.06 22917.3L2689.16 22917.3L2689.16 22702.4L2441.93 22702.4L2441.93 22917.3L2346.03 22917.3L2346.03 23372.4L2785.06 23372.4L2785.06 23229.8L2842.67 23229.8Z" fill="black"/>
<path fill-rule="evenodd" clip-rule="evenodd" d="M2842.67 20298.3L2842.67 20139.3L2785.06 20139.3L2785.06 19985.8L2689.16 19985.8L2689.16 19770.9L2441.93 19770.9L2441.93 19985.8L2346.03 19985.8L2346.03 20440.9L2785.06 20440.9L2785.06 20298.3L2842.67 20298.3Z" fill="black"/>
<path fill-rule="evenodd" clip-rule="evenodd" d="M3593.54 22881.7L3752.46 22881.7L3752.46 22824.1L3905.96 22824.1L3905.96 22728.2L4120.87 22728.2L4120.87 22481L3905.96 22481L3905.96 22385.1L3450.87 22385.1L3450.87 22824.1L3593.54 22824.1L3593.54 22881.7Z" fill="black"/>
<path fill-rule="evenodd" clip-rule="evenodd" d="M3593.54 19950.2L3752.46 19950.2L3752.46 19892.6L3905.96 19892.6L3905.96 19796.7L4120.87 19796.7L4120.87 19549.5L3905.96 19549.5L3905.96 19453.6L3450.87 19453.6L3450.87 19892.6L3593.54 19892.6L3593.54 19950.2Z" fill="black"/>
<path fill-rule="evenodd" clip-rule="evenodd" d="M4173.34 21116.1H4587.27V21593.5H4472.99V21593.5H4368.88V21670.6H4173.34V21593.5H4059.07V21258.3H4173.34V21116.1Z" fill="black"/>
<path fill-rule="evenodd" clip-rule="evenodd" d="M4173.34 18184.5H4587.27V18662H4472.99V18662H4368.88V18739.1H4173.34V18662H4059.07V18326.8H4173.34V18184.5Z" fill="black"/>
<path fill-rule="evenodd" clip-rule="evenodd" d="M2956.94 21116.1H3370.87V21593.5H3256.59V21593.5H3152.48V21670.6H2956.94V21593.5H2842.67V21258.3H2956.94V21116.1Z" fill="black"/>
<path fill-rule="evenodd" clip-rule="evenodd" d="M2956.94 18184.5H3370.87V18662H3256.59V18662H3152.48V18739.1H2956.94V18662H2842.67V18326.8H2956.94V18184.5Z" fill="black"/>
<path fill-rule="evenodd" clip-rule="evenodd" d="M3864.79 21116.1H3450.87V21593.5H3565.14V21593.5H3669.26V21670.6H3864.79V21593.5H3979.07V21258.3H3864.79V21116.1Z" fill="black"/>
<path fill-rule="evenodd" clip-rule="evenodd" d="M3864.79 18184.5H3450.87V18662H3565.14V18662H3669.26V18739.1H3864.79V18662H3979.07V18326.8H3864.79V18184.5Z" fill="black"/>
<path fill-rule="evenodd" clip-rule="evenodd" d="M2956.94 22305.1H3370.87V21827.7H3256.59H3152.48V21750.6H2956.94V21827.7H2842.67V22162.9H2956.94V22305.1Z" fill="black"/>
<path fill-rule="evenodd" clip-rule="evenodd" d="M2956.94 19373.6H3370.87V18896.2H3256.59V18896.2H3152.48V18819.1H2956.94V18896.2H2842.67V19231.4H2956.94V19373.6Z" fill="black"/>
<path fill-rule="evenodd" clip-rule="evenodd" d="M3864.79 22305.1H3450.87V21827.7H3565.14H3669.26V21750.6H3864.79V21827.7H3979.07V22162.9H3864.79V22305.1Z" fill="black"/>
<path fill-rule="evenodd" clip-rule="evenodd" d="M3864.79 19373.6H3450.87V18896.2H3565.14V18896.2H3669.26V18819.1H3864.79V18896.2H3979.07V19231.4H3864.79V19373.6Z" fill="black"/>
<path fill-rule="evenodd" clip-rule="evenodd" d="M2351.95 21116.1H2762.67V21349.5V21591.7V21832.4H2351.95V21591.7H2393.75V21349.5H2351.95V21116.1Z" fill="black"/>
<path fill-rule="evenodd" clip-rule="evenodd" d="M2351.95 18184.5H2762.67V18418V18660.2V18660.2V18900.9H2351.95V18660.2H2393.75V18418H2351.95V18184.5Z" fill="black"/>
<path fill-rule="evenodd" clip-rule="evenodd" d="M3404.56 23372.4L3404.56 22961.7L3638.05 22961.7L3880.18 22961.7L4120.87 22961.7L4120.87 23372.4L3880.18 23372.4L3880.18 23330.6L3638.05 23330.6L3638.05 23372.4L3404.56 23372.4Z" fill="black"/>
<path fill-rule="evenodd" clip-rule="evenodd" d="M3404.56 20440.9L3404.56 20030.2L3638.05 20030.2L3880.18 20030.2L4120.87 20030.2L4120.87 20440.9L3880.18 20440.9L3880.18 20399.1L3638.05 20399.1L3638.05 20440.9L3404.56 20440.9Z" fill="black"/>
<path fill-rule="evenodd" clip-rule="evenodd" d="M2351.95 21887.6H2762.67V22121.1V22363.2V22603.9H2351.95V22363.2H2393.75V22121.1H2351.95V21887.6Z" fill="black"/>
<path fill-rule="evenodd" clip-rule="evenodd" d="M2351.95 18956.1H2762.67V19189.6V19431.7V19431.7V19672.4H2351.95V19431.7H2393.75V19189.6H2351.95V18956.1Z" fill="black"/>
<path fill-rule="evenodd" clip-rule="evenodd" d="M4611.59 23202.8L4200.87 23202.8L4200.87 22969.3L4200.87 22727.2L4200.87 22486.5L4611.59 22486.5L4611.59 22727.2L4569.79 22727.2L4569.79 22969.3L4611.59 22969.3L4611.59 23202.8Z" fill="black"/>
<path fill-rule="evenodd" clip-rule="evenodd" d="M4611.59 20271.3L4200.87 20271.3L4200.87 20037.8L4200.87 19795.7L4200.87 19795.7L4200.87 19555L4611.59 19555L4611.59 19795.7L4569.79 19795.7L4569.79 20037.8L4611.59 20037.8L4611.59 20271.3Z" fill="black"/>
<path fill-rule="evenodd" clip-rule="evenodd" d="M1699.36 20520.9H1105.11V21017.6H1699.36V20520.9ZM2241.51 20616.9H1699.36V20921.6H2241.51V20616.9Z" fill="black"/>
<path fill-rule="evenodd" clip-rule="evenodd" d="M1699.36 17589.4H1105.11V18086.1H1699.36V17589.4ZM2241.51 17685.4H1699.36V17990.1H2241.51V17685.4Z" fill="black"/>
<rect x="562.196" y="22955.8" width="416.614" height="416.614" fill="black"/>
<rect x="562.196" y="20024.3" width="416.614" height="416.614" fill="black"/>
<rect x="1713.31" y="21832.4" width="552.719" height="552.719" fill="black"/>
<rect x="1713.31" y="18900.9" width="552.719" height="552.719" fill="black"/>
<path fill-rule="evenodd" clip-rule="evenodd" d="M1035.14 22405.7L1035.14 22755.5H911.662V22833.1H811.932V22875.8H713.785V22814.1H574.48V22720.7H496.912V22476.9H620.387V22405.7H911.662V22461.1H1035.14L1035.14 22405.7ZM496.912 22385.1V22385.1H911.662L620.387 22385.1H496.912Z" fill="black"/>
<path fill-rule="evenodd" clip-rule="evenodd" d="M1035.14 19474.2L1035.14 19824H911.662V19901.6H811.932V19944.3H713.785V19882.6H574.48V19789.2H496.912V19545.4H620.387V19474.2H911.662V19529.6H1035.14L1035.14 19474.2ZM1035.14 19991.8L911.662 19991.8H811.932H713.785L496.912 19991.8H1035.14ZM496.912 19453.6V19453.6H911.662L620.387 19453.6H496.912Z" fill="black"/>
<path fill-rule="evenodd" clip-rule="evenodd" d="M374.609 20520.9H533.532V20578.5H570.014H676.202H723.519V20520.9H882.442V20578.5H1025.11V21017.6H676.202H570.014H221.104V20921.7H6.1965V20674.4H221.104V20578.5H374.609V20520.9Z" fill="black"/>
<path fill-rule="evenodd" clip-rule="evenodd" d="M374.609 17589.4H533.532V17647H570.014H676.202H723.519V17589.4H882.442V17647H1025.11V18086.1H676.202H570.014H221.104V17990.2H6.1965V17742.9H221.104V17647H374.609V17589.4Z" fill="black"/>
<path fill-rule="evenodd" clip-rule="evenodd" d="M496.912 23229.8L496.912 23070.8L439.308 23070.8L439.308 22917.3L343.406 22917.3L343.406 22702.4L96.1783 22702.4L96.1783 22917.3L0.276907 22917.3L0.276887 23372.4L439.308 23372.4L439.308 23229.8L496.912 23229.8Z" fill="black"/>
<path fill-rule="evenodd" clip-rule="evenodd" d="M496.912 20298.3L496.912 20139.3L439.308 20139.3L439.308 19985.8L343.406 19985.8L343.406 19770.9L96.1783 19770.9L96.1783 19985.8L0.276891 19985.8L0.276871 20440.9L439.308 20440.9L439.308 20298.3L496.912 20298.3Z" fill="black"/>
<path fill-rule="evenodd" clip-rule="evenodd" d="M1247.78 22881.7L1406.7 22881.7L1406.7 22824.1L1560.21 22824.1L1560.21 22728.2L1775.12 22728.2L1775.12 22481L1560.21 22481L1560.21 22385.1L1105.11 22385.1L1105.11 22824.1L1247.78 22824.1L1247.78 22881.7Z" fill="black"/>
<path fill-rule="evenodd" clip-rule="evenodd" d="M1247.78 19950.2L1406.7 19950.2L1406.7 19892.6L1560.21 19892.6L1560.21 19796.7L1775.12 19796.7L1775.12 19549.5L1560.21 19549.5L1560.21 19453.6L1105.11 19453.6L1105.11 19892.6L1247.78 19892.6L1247.78 19950.2Z" fill="black"/>
<path fill-rule="evenodd" clip-rule="evenodd" d="M1827.59 21116.1H2241.51V21593.5H2127.24V21593.5H2023.12V21670.6H1827.59V21593.5H1713.31V21258.3H1827.59V21116.1Z" fill="black"/>
<path fill-rule="evenodd" clip-rule="evenodd" d="M1827.59 18184.5H2241.51V18662H2127.24V18662H2023.12V18739.1H1827.59V18662H1713.31V18326.8H1827.59V18184.5Z" fill="black"/>
<path fill-rule="evenodd" clip-rule="evenodd" d="M611.186 21116.1H1025.11V21593.5H910.838V21593.5H806.721V21670.6H611.186V21593.5H496.912V21258.3H611.186V21116.1Z" fill="black"/>
<path fill-rule="evenodd" clip-rule="evenodd" d="M611.186 18184.5H1025.11V18662H910.838V18662H806.721V18739.1H611.186V18662H496.912V18326.8H611.186V18184.5Z" fill="black"/>
<path fill-rule="evenodd" clip-rule="evenodd" d="M1519.04 21116.1H1105.11V21593.5H1219.39V21593.5H1323.5V21670.6H1519.04V21593.5H1633.31V21258.3H1519.04V21116.1Z" fill="black"/>
<path fill-rule="evenodd" clip-rule="evenodd" d="M1519.04 18184.5H1105.11V18662H1219.39V18662H1323.5V18739.1H1519.04V18662H1633.31V18326.8H1519.04V18184.5Z" fill="black"/>
<path fill-rule="evenodd" clip-rule="evenodd" d="M611.186 22305.1H1025.11V21827.7H910.838H806.721V21750.6H611.186V21827.7H496.912V22162.9H611.186V22305.1Z" fill="black"/>
<path fill-rule="evenodd" clip-rule="evenodd" d="M611.186 19373.6H1025.11V18896.2H910.838V18896.2H806.721V18819.1H611.186V18896.2H496.912V19231.4H611.186V19373.6Z" fill="black"/>
<path fill-rule="evenodd" clip-rule="evenodd" d="M1519.04 22305.1H1105.11V21827.7H1219.39H1323.5V21750.6H1519.04V21827.7H1633.31V22162.9H1519.04V22305.1Z" fill="black"/>
<path fill-rule="evenodd" clip-rule="evenodd" d="M1519.04 19373.6H1105.11V18896.2H1219.39V18896.2H1323.5V18819.1H1519.04V18896.2H1633.31V19231.4H1519.04V19373.6Z" fill="black"/>
<path fill-rule="evenodd" clip-rule="evenodd" d="M6.1965 21116.1H416.912V21349.5V21591.7V21832.4H6.1965V21591.7H47.9931V21349.5H6.1965V21116.1Z" fill="black"/>
<path fill-rule="evenodd" clip-rule="evenodd" d="M6.1965 18184.5H416.912V18418V18660.2V18660.2V18900.9H6.1965V18660.2H47.9931V18418H6.1965V18184.5Z" fill="black"/>
<path fill-rule="evenodd" clip-rule="evenodd" d="M1058.81 23372.4L1058.81 22961.7L1292.29 22961.7L1534.43 22961.7L1775.12 22961.7L1775.12 23372.4L1534.43 23372.4L1534.43 23330.6L1292.29 23330.6L1292.29 23372.4L1058.81 23372.4Z" fill="black"/>
<path fill-rule="evenodd" clip-rule="evenodd" d="M1058.81 20440.9L1058.81 20030.2L1292.29 20030.2L1534.43 20030.2L1775.12 20030.2L1775.12 20440.9L1534.43 20440.9L1534.43 20399.1L1292.29 20399.1L1292.29 20440.9L1058.81 20440.9Z" fill="black"/>
<path fill-rule="evenodd" clip-rule="evenodd" d="M6.1965 21887.6H416.912V22121.1V22363.2V22603.9H6.1965V22363.2H47.9931V22121.1H6.1965V21887.6Z" fill="black"/>
<path fill-rule="evenodd" clip-rule="evenodd" d="M6.1965 18956.1H416.912V19189.6V19431.7V19431.7V19672.4H6.1965V19431.7H47.9931V19189.6H6.1965V18956.1Z" fill="black"/>
<path fill-rule="evenodd" clip-rule="evenodd" d="M2265.83 23202.8L1855.12 23202.8L1855.12 22969.3L1855.12 22727.2L1855.12 22486.5L2265.83 22486.5L2265.83 22727.2L2224.04 22727.2L2224.04 22969.3L2265.83 22969.3L2265.83 23202.8Z" fill="black"/>
<path fill-rule="evenodd" clip-rule="evenodd" d="M2265.83 20271.3L1855.12 20271.3L1855.12 20037.8L1855.12 19795.7L1855.12 19795.7L1855.12 19555L2265.83 19555L2265.83 19795.7L2224.04 19795.7L2224.04 20037.8L2265.83 20037.8L2265.83 20271.3Z" fill="black"/>
<path fill-rule="evenodd" clip-rule="evenodd" d="M2912.9 26303.9H3507.15V25807.3H2912.9V26303.9ZM2370.75 26208H2912.9V25903.2H2370.75V26208Z" fill="black"/>
<path fill-rule="evenodd" clip-rule="evenodd" d="M2912.9 29235.4H3507.15V28738.8H2912.9V29235.4ZM2370.75 29139.5H2912.9V28834.7H2370.75V29139.5Z" fill="black"/>
<rect x="4050.06" y="23869" width="416.614" height="416.614" transform="rotate(180 4050.06 23869)" fill="black"/>
<rect x="4050.06" y="26800.6" width="416.614" height="416.614" transform="rotate(180 4050.06 26800.6)" fill="black"/>
<rect x="2898.95" y="24992.5" width="552.719" height="552.719" transform="rotate(180 2898.95 24992.5)" fill="black"/>
<rect x="2898.95" y="27924" width="552.719" height="552.719" transform="rotate(180 2898.95 27924)" fill="black"/>
<path fill-rule="evenodd" clip-rule="evenodd" d="M4115.35 24104.2H4037.78V24010.8H3898.48V23949H3800.33V23991.8H3700.6V24069.4H3577.12L3577.12 24419.2L3577.12 24363.8H3700.6V24419.2H3991.87V24348H4115.35V24104.2ZM4115.35 24439.8V24439.8H3700.6L3991.87 24439.8H4115.35Z" fill="black"/>
<path fill-rule="evenodd" clip-rule="evenodd" d="M3577.12 27350.7L3577.12 27000.9H3700.6V26923.3H3800.33V26880.6H3898.48V26942.3H4037.78V27035.7H4115.35V27279.5H3991.87V27350.7H3700.6V27295.3H3577.12L3577.12 27350.7ZM4115.35 27371.3V27371.3H3700.6L3991.87 27371.3H4115.35Z" fill="black"/>
<path fill-rule="evenodd" clip-rule="evenodd" d="M4237.65 26303.9H4078.73V26246.3H4042.25H3936.06H3888.74V26303.9H3729.82V26246.3H3587.15V25807.3H3936.06H4042.25H4391.16V25903.2H4606.06V26150.4H4391.16V26246.3H4237.65V26303.9Z" fill="black"/>
<path fill-rule="evenodd" clip-rule="evenodd" d="M4237.65 29235.4H4078.73V29177.8H4042.25H3936.06H3888.74V29235.4H3729.82V29177.8H3587.15V28738.8H3936.06H4042.25H4391.16V28834.7H4606.06V29081.9H4391.16V29177.8H4237.65V29235.4Z" fill="black"/>
<path fill-rule="evenodd" clip-rule="evenodd" d="M4115.35 23595.1L4115.35 23754L4172.95 23754L4172.95 23907.5L4268.85 23907.5L4268.85 24122.4L4516.08 24122.4L4516.08 23907.5L4611.98 23907.5L4611.98 23452.4L4172.95 23452.4L4172.95 23595.1L4115.35 23595.1Z" fill="black"/>
<path fill-rule="evenodd" clip-rule="evenodd" d="M4115.35 26526.6L4115.35 26685.5L4172.95 26685.5L4172.95 26839L4268.85 26839L4268.85 27053.9L4516.08 27053.9L4516.08 26839L4611.98 26839L4611.98 26383.9L4172.95 26383.9L4172.95 26526.6L4115.35 26526.6Z" fill="black"/>
<path fill-rule="evenodd" clip-rule="evenodd" d="M3364.48 23943.1L3205.56 23943.1L3205.56 24000.8L3052.05 24000.8L3052.05 24096.7L2837.14 24096.7L2837.14 24343.9L3052.05 24343.9L3052.05 24439.8L3507.15 24439.8L3507.15 24000.8L3364.48 24000.8L3364.48 23943.1Z" fill="black"/>
<path fill-rule="evenodd" clip-rule="evenodd" d="M3364.48 26874.7L3205.56 26874.7L3205.56 26932.3L3052.05 26932.3L3052.05 27028.2L2837.14 27028.2L2837.14 27275.4L3052.05 27275.4L3052.05 27371.3L3507.15 27371.3L3507.15 26932.3L3364.48 26932.3L3364.48 26874.7Z" fill="black"/>
<path fill-rule="evenodd" clip-rule="evenodd" d="M2784.67 25708.8H2370.75V25231.4H2485.02H2589.14V25154.3H2784.67V25231.4H2898.95V25566.6H2784.67V25708.8Z" fill="black"/>
<path fill-rule="evenodd" clip-rule="evenodd" d="M2784.67 28640.3H2370.75V28162.9H2485.02H2589.14V28085.8H2784.67V28162.9H2898.95V28498.1H2784.67V28640.3Z" fill="black"/>
<path fill-rule="evenodd" clip-rule="evenodd" d="M4001.07 25708.8H3587.15V25231.4H3701.42H3805.54V25154.3H4001.07V25231.4H4115.35V25566.6H4001.07V25708.8Z" fill="black"/>
<path fill-rule="evenodd" clip-rule="evenodd" d="M4001.07 28640.3H3587.15V28162.9H3701.42H3805.54V28085.8H4001.07V28162.9H4115.35V28498.1H4001.07V28640.3Z" fill="black"/>
<path fill-rule="evenodd" clip-rule="evenodd" d="M3093.22 25708.8H3507.15V25231.4H3392.87H3288.76V25154.3H3093.22V25231.4H2978.95V25566.6H3093.22V25708.8Z" fill="black"/>
<path fill-rule="evenodd" clip-rule="evenodd" d="M3093.22 28640.3H3507.15V28162.9H3392.87H3288.76V28085.8H3093.22V28162.9H2978.95V28498.1H3093.22V28640.3Z" fill="black"/>
<path fill-rule="evenodd" clip-rule="evenodd" d="M4001.07 24519.8H3587.15V24997.2H3701.42H3805.54V25074.3H4001.07V24997.2H4115.35V24662H4001.07V24519.8Z" fill="black"/>
<path fill-rule="evenodd" clip-rule="evenodd" d="M4001.07 27451.3H3587.15V27928.7H3701.42H3805.54V28005.8H4001.07V27928.7H4115.35V27593.5H4001.07V27451.3Z" fill="black"/>
<path fill-rule="evenodd" clip-rule="evenodd" d="M3093.22 24519.8H3507.15V24997.2H3392.87H3288.76V25074.3H3093.22V24997.2H2978.95V24662H3093.22V24519.8Z" fill="black"/>
<path fill-rule="evenodd" clip-rule="evenodd" d="M3093.22 27451.3H3507.15V27928.7H3392.87H3288.76V28005.8H3093.22V27928.7H2978.95V27593.5H3093.22V27451.3Z" fill="black"/>
<path fill-rule="evenodd" clip-rule="evenodd" d="M4606.06 25708.8H4195.35V25475.3L4195.35 25475.3V25233.2H4564.27V25475.3H4606.06V25708.8ZM4195.35 24992.5V25233.2H4606.06V24992.5H4195.35Z" fill="black"/>
<path fill-rule="evenodd" clip-rule="evenodd" d="M4606.06 28640.3H4195.35V28406.8H4195.35V28164.7H4195.35V27924H4606.06V28164.7H4564.27V28406.8H4606.06V28640.3Z" fill="black"/>
<path fill-rule="evenodd" clip-rule="evenodd" d="M3553.45 23452.4L3553.45 23863.1L3319.97 23863.1L3077.83 23863.1L2837.14 23863.1L2837.14 23452.4L3077.83 23452.4L3077.83 23494.2L3319.97 23494.2L3319.97 23452.4L3553.45 23452.4Z" fill="black"/>
<path fill-rule="evenodd" clip-rule="evenodd" d="M3553.45 26383.9L3553.45 26794.7L3319.97 26794.7L3077.83 26794.7L2837.14 26794.7L2837.14 26383.9L3077.83 26383.9L3077.83 26425.7L3319.97 26425.7L3319.97 26383.9L3553.45 26383.9Z" fill="black"/>
<path fill-rule="evenodd" clip-rule="evenodd" d="M4606.06 24937.2H4195.35V24703.8H4606.06V24937.2ZM4564.27 24703.8H4195.35V24461.6L4195.35 24461.6V24220.9H4606.06V24461.6L4564.27 24461.6V24703.8Z" fill="black"/>
<path fill-rule="evenodd" clip-rule="evenodd" d="M4606.06 27868.7H4195.35V27635.3H4195.35V27393.1H4195.35V27152.4H4606.06V27393.1H4564.27V27635.3H4606.06V27868.7Z" fill="black"/>
<path fill-rule="evenodd" clip-rule="evenodd" d="M2346.43 23622L2757.14 23622L2757.14 23855.5L2757.14 24097.7L2757.14 24338.4L2346.43 24338.4L2346.43 24097.7L2388.22 24097.7L2388.22 23855.5L2346.43 23855.5L2346.43 23622Z" fill="black"/>
<path fill-rule="evenodd" clip-rule="evenodd" d="M2346.43 26553.6L2757.14 26553.6L2757.14 26787L2757.14 27029.2L2757.14 27269.9L2346.43 27269.9L2346.43 27029.2L2388.22 27029.2L2388.22 26787L2346.43 26787L2346.43 26553.6Z" fill="black"/>
<path fill-rule="evenodd" clip-rule="evenodd" d="M566.948 26303.9H1161.2V25807.3H566.948V26303.9ZM24.7959 26208H566.947V25903.2H24.7959V26208Z" fill="black"/>
<path fill-rule="evenodd" clip-rule="evenodd" d="M566.948 29235.4H1161.2V28738.8H566.948V29235.4ZM24.7959 29139.5H566.947V28834.7H24.7959V29139.5Z" fill="black"/>
<rect x="1704.11" y="23869" width="416.614" height="416.614" transform="rotate(180 1704.11 23869)" fill="black"/>
<rect x="1704.11" y="26800.6" width="416.614" height="416.614" transform="rotate(180 1704.11 26800.6)" fill="black"/>
<rect x="552.996" y="24992.5" width="552.719" height="552.719" transform="rotate(180 552.996 24992.5)" fill="black"/>
<rect x="552.996" y="27924" width="552.719" height="552.719" transform="rotate(180 552.996 27924)" fill="black"/>
<path fill-rule="evenodd" clip-rule="evenodd" d="M1769.4 24104.2H1691.83V24010.8H1552.52V23949H1454.38V23991.8H1354.65V24069.4H1231.17L1231.17 24419.2L1231.17 24363.8H1354.65V24419.2H1645.92V24348H1769.4V24104.2ZM1769.4 24439.8V24439.8H1354.65L1645.92 24439.8H1769.4Z" fill="black"/>
<path fill-rule="evenodd" clip-rule="evenodd" d="M1231.17 27350.7L1231.17 27000.9H1354.65V26923.3H1454.38V26880.6H1552.52V26942.3H1691.83V27035.7H1769.4V27279.5H1645.92V27350.7H1354.65V27295.3H1231.17L1231.17 27350.7ZM1769.4 27371.3V27371.3H1354.65L1645.92 27371.3H1769.4Z" fill="black"/>
<path fill-rule="evenodd" clip-rule="evenodd" d="M1891.7 26303.9H1732.78V26246.3H1696.29H1590.11H1542.79V26303.9H1383.87V26246.3H1241.2V25807.3H1590.11H1696.29H2045.2V25903.2H2260.11V26150.4H2045.2V26246.3H1891.7V26303.9Z" fill="black"/>
<path fill-rule="evenodd" clip-rule="evenodd" d="M1891.7 29235.4H1732.78V29177.8H1696.29H1590.11H1542.79V29235.4H1383.87V29177.8H1241.2V28738.8H1590.11H1696.29H2045.2V28834.7H2260.11V29081.9H2045.2V29177.8H1891.7V29235.4Z" fill="black"/>
<path fill-rule="evenodd" clip-rule="evenodd" d="M1769.4 23595.1L1769.4 23754L1827 23754L1827 23907.5L1922.9 23907.5L1922.9 24122.4L2170.13 24122.4L2170.13 23907.5L2266.03 23907.5L2266.03 23452.4L1827 23452.4L1827 23595.1L1769.4 23595.1Z" fill="black"/>
<path fill-rule="evenodd" clip-rule="evenodd" d="M1769.4 26526.6L1769.4 26685.5L1827 26685.5L1827 26839L1922.9 26839L1922.9 27053.9L2170.13 27053.9L2170.13 26839L2266.03 26839L2266.03 26383.9L1827 26383.9L1827 26526.6L1769.4 26526.6Z" fill="black"/>
<path fill-rule="evenodd" clip-rule="evenodd" d="M1018.53 23943.1L859.603 23943.1L859.603 24000.8L706.098 24000.8L706.098 24096.7L491.19 24096.7L491.19 24343.9L706.098 24343.9L706.098 24439.8L1161.2 24439.8L1161.2 24000.8L1018.53 24000.8L1018.53 23943.1Z" fill="black"/>
<path fill-rule="evenodd" clip-rule="evenodd" d="M1018.53 26874.7L859.603 26874.7L859.603 26932.3L706.098 26932.3L706.098 27028.2L491.19 27028.2L491.19 27275.4L706.098 27275.4L706.098 27371.3L1161.2 27371.3L1161.2 26932.3L1018.53 26932.3L1018.53 26874.7Z" fill="black"/>
<path fill-rule="evenodd" clip-rule="evenodd" d="M438.722 25708.8H24.7961V25231.4H139.07H243.187V25154.3H438.722V25231.4H552.996V25566.6H438.722V25708.8Z" fill="black"/>
<path fill-rule="evenodd" clip-rule="evenodd" d="M438.722 28640.3H24.7961V28162.9H139.07H243.187V28085.8H438.722V28162.9H552.996V28498.1H438.722V28640.3Z" fill="black"/>
<path fill-rule="evenodd" clip-rule="evenodd" d="M1655.12 25708.8H1241.2V25231.4H1355.47H1459.59V25154.3H1655.12V25231.4H1769.4V25566.6H1655.12V25708.8Z" fill="black"/>
<path fill-rule="evenodd" clip-rule="evenodd" d="M1655.12 28640.3H1241.2V28162.9H1355.47H1459.59V28085.8H1655.12V28162.9H1769.4V28498.1H1655.12V28640.3Z" fill="black"/>
<path fill-rule="evenodd" clip-rule="evenodd" d="M747.27 25708.8H1161.2V25231.4H1046.92H942.806V25154.3H747.27V25231.4H632.996V25566.6H747.27V25708.8Z" fill="black"/>
<path fill-rule="evenodd" clip-rule="evenodd" d="M747.27 28640.3H1161.2V28162.9H1046.92H942.806V28085.8H747.27V28162.9H632.996V28498.1H747.27V28640.3Z" fill="black"/>
<path fill-rule="evenodd" clip-rule="evenodd" d="M1655.12 24519.8H1241.2V24997.2H1355.47H1459.59V25074.3H1655.12V24997.2H1769.4V24662H1655.12V24519.8Z" fill="black"/>
<path fill-rule="evenodd" clip-rule="evenodd" d="M1655.12 27451.3H1241.2V27928.7H1355.47H1459.59V28005.8H1655.12V27928.7H1769.4V27593.5H1655.12V27451.3Z" fill="black"/>
<path fill-rule="evenodd" clip-rule="evenodd" d="M747.27 24519.8H1161.2V24997.2H1046.92H942.806V25074.3H747.27V24997.2H632.996V24662H747.27V24519.8Z" fill="black"/>
<path fill-rule="evenodd" clip-rule="evenodd" d="M747.27 27451.3H1161.2V27928.7H1046.92H942.806V28005.8H747.27V27928.7H632.996V27593.5H747.27V27451.3Z" fill="black"/>
<path fill-rule="evenodd" clip-rule="evenodd" d="M2260.11 25708.8H1849.4V25475.3L1849.4 25475.3V25233.2H2218.31V25475.3H2260.11V25708.8ZM1849.4 24992.5V25233.2H2260.11V24992.5H1849.4Z" fill="black"/>
<path fill-rule="evenodd" clip-rule="evenodd" d="M2260.11 28640.3H1849.4V28406.8H1849.4V28164.7H1849.4V27924H2260.11V28164.7H2218.31V28406.8H2260.11V28640.3Z" fill="black"/>
<path fill-rule="evenodd" clip-rule="evenodd" d="M1207.5 23452.4L1207.5 23863.1L974.014 23863.1L731.881 23863.1L491.191 23863.1L491.191 23452.4L731.881 23452.4L731.881 23494.2L974.014 23494.2L974.014 23452.4L1207.5 23452.4Z" fill="black"/>
<path fill-rule="evenodd" clip-rule="evenodd" d="M1207.5 26383.9L1207.5 26794.7L974.014 26794.7L731.881 26794.7L491.191 26794.7L491.191 26383.9L731.881 26383.9L731.881 26425.7L974.014 26425.7L974.014 26383.9L1207.5 26383.9Z" fill="black"/>
<path fill-rule="evenodd" clip-rule="evenodd" d="M2260.11 24937.2H1849.4V24703.8H2260.11V24937.2ZM2218.31 24703.8H1849.4V24461.6L1849.4 24461.6V24220.9H2260.11V24461.6L2218.31 24461.6V24703.8Z" fill="black"/>
<path fill-rule="evenodd" clip-rule="evenodd" d="M2260.11 27868.7H1849.4V27635.3H1849.4V27393.1H1849.4V27152.4H2260.11V27393.1H2218.31V27635.3H2260.11V27868.7Z" fill="black"/>
<path fill-rule="evenodd" clip-rule="evenodd" d="M0.475586 23622L411.191 23622L411.191 23855.5L411.191 24097.7L411.191 24338.4L0.475523 24338.4L0.475544 24097.7L42.2722 24097.7L42.2722 23855.5L0.475566 23855.5L0.475586 23622Z" fill="black"/>
<path fill-rule="evenodd" clip-rule="evenodd" d="M0.475586 26553.6L411.191 26553.6L411.191 26787L411.191 27029.2L411.191 27269.9L0.475523 27269.9L0.475544 27029.2L42.2722 27029.2L42.2722 26787L0.475566 26787L0.475586 26553.6Z" fill="black"/>
</svg>
