<?xml version="1.0" encoding="UTF-8"?>
<svg id="Layer_1" data-name="Layer 1" xmlns="http://www.w3.org/2000/svg" viewBox="0 0 583 3022.72">
  <g>
    <polygon points="171.95 975.16 167.49 847.56 103.42 847.56 113.07 985.54 171.95 975.16"/>
    <path d="M405.05,1405.83l9.14,94.89,75.37-2.96-9.14-94.89-75.37,2.96Zm59.15,73.18l-33.93,2.37-3.66-52.31-9.9,.69-.74-10.6,50.19-3.51,.74,10.6-6.36,.44,1.33,18.98h14.35v23.39h-12.72l.7,9.95Z"/>
    <polygon points="94.95 847.56 62.96 847.56 62.64 865.47 76.54 864.57 87.05 1038.9 36 1040.32 33.07 867.4 52.71 866.12 53.03 847.56 11.34 847.56 11.34 1066.02 110.04 1063.44 94.95 847.56"/>
    <path d="M110.6,1071.35l-99.26,2.6v92.4l105.71-2.77-6.45-92.23Zm-12.33,71.01l-41.58,8.98-5.67-34.49-25.51,3.31-1.89-35.91,47.24-1.42,3.78,21.26,22.68-1.42,2.83,14.17-28.35-4.25-.94,26.93c9.45-2.36,9.45-12.76,9.45-12.76l19.84,5.67-1.89,9.92Z"/>
    <path d="M298.4,1410.02l6.64,94.98,100.69-3.96-9.14-94.89-98.19,3.86Zm37.81,78.39l.24-7.01-18.98,1.12-4.05-48.21-3.13-12.57,17.69-4.41,1.91,7.67c8.07-.71,17.8-1.61,26.64-2.44l.26-7.36,18.22,.64-.17,4.99c4.25-.41,6.89-.66,6.89-.66l7.56,58.11-42.17,2.5-.28,8.01-10.62-.37Z"/>
    <path d="M360.38,941.93l-3.3-94.37H174.07l4.42,126.45,181.9-32.07Zm-25.89-6.5l-136.06,17.29-4.53-96.38,136.06-1.13,4.54,80.22Z"/>
    <polygon points="206.93 1561.89 175.75 1570.39 173.86 1563.31 188.98 1561.89 187.09 1534.96 216.38 1533.54 213.35 1516.54 150.37 1519.01 155.04 1585.82 202.73 1585.82 206.93 1561.89"/>
    <path d="M117.61,1171.69l-106.28,2.78v72.58l111.27-3.89-5-71.48Zm-76.98,12.63l59.53,3.4,1.89,41.1-62.36,4.72,.95-49.23Z"/>
    <path d="M371.49,1057.06l80.13,11.97,2.84-3.15c-3.17-2.85-5.18-6.98-5.18-11.58,0-3.6,1.23-6.9,3.28-9.54l-84.6-89.15,3.54,101.45Zm54.84-18.73l1.7,14.17-40.82-11.91-3.4-40.82,15.87,1.7,26.65,36.85Z"/>
    <path d="M381.06,1156.67l75.47-1.98-7.6-78.9-76.76-11.47,8.89,92.34Zm40.36-55.41l2.84-6.61,17.01,3.78,1.89,16.06,1.89,22.68-27.4,2.83-1.89-8.5-12.28,2.36-.95-7.09,8.5-.95-4.72-26.46,15.12,1.89Z"/>
    <path d="M388.81,1237.13h75.66l-7.16-74.34-75.47,1.98,6.97,72.36Zm17.49-48l.95-15.12,32.13,2.83,8.5,5.67,3.78,14.17-16.06,2.36v11.81h9.45l.95,9.45-42.52,4.72-.94-8.98,13.23-2.36,.95-8.98-10.39,.47-.95-6.61h12.28v-9.45h-11.34Z"/>
    <path d="M391.68,1266.95l64.7-2.7,.94,21.26-20.79,1.42v17.01l17.01-2.36v17.01l-36.85,2.36-6.61-33.54-16.06,3.82,10.27,106.7,75.37-2.96-14.11-146.49h-75.66l1.78,18.47Zm33.52,105.49l-5.67-41.58,33.07-1.42,6.61,41.1-34.02,1.89Z"/>
    <polygon points="221.88 1516.2 224.88 1534.96 277.79 1532.13 288.19 1570.87 260.79 1573.23 266.46 1554.8 235.28 1556.69 227.21 1585.82 303.59 1585.82 298.51 1513.19 221.88 1516.2"/>
    <path d="M429.9,1663.84h.17s152.93-24.9,152.93-24.9v-45.12h-159.84l6.74,70.01Zm143.84-53.76v20.69l-10.2-1.7-4.25,6.52-46.2,5.95,2.83-30.62-5.1,1.99-3.97,26.93-62.36,10.2-2.83-15.31,6.24,.85v-8.5l-6.8-.28-.57-11.9,74.84-6.8,58.39,1.98Z"/>
    <polygon points="255.86 1411.69 256.87 1430.86 279.19 1430.08 279.9 1450.5 272.84 1451.34 272.83 1476.85 280.8 1476.3 281.38 1492.97 260.16 1493.71 260.84 1506.74 297.96 1505.28 291.31 1410.3 255.86 1411.69"/>
    <polygon points="59.53 1482.99 71.81 1485.83 81.26 1599.21 146.92 1590.77 123.4 1254.48 9.57 1258.46 27.79 1359.21 45.35 1359.21 59.53 1482.99"/>
    <path d="M274.42,1067.06l1.3,18.61h48.37v17.48h-47.15l3.93,56.14,91.72-2.4-8.87-92.17-89.3,2.34Zm61.2,10.39h13.61v15.87h-13.61v-15.87Zm15.87,26.65v7.09h-11.34v-7.09h11.34Zm-61.23,19.56l63.5-1.98,5.67,20.98-67.46,3.4-1.7-22.39Z"/>
    <polygon points="155.6 1593.83 159.42 1648.48 308.56 1656.95 304.15 1593.83 155.6 1593.83"/>
    <path d="M381.41,1248.47h-92.37v.23s-1.92,.07-1.92,.07l10.72,153.34,97.99-3.85-14.42-149.78Zm-75.27,117.83l15.12-4.25-3.78-36.85-9.45-.94-.94-10.4,13.23,1.89v-8.5l-16.06-2.83,.95-37.32h9.45v21.26l11.34-2.84,.95-8.5,16.06-.94-1.89,14.17,11.34,2.84v-28.35l16.06,2.83,2.83,42.52,2.83,64.72-64.25,7.09-3.78-15.59Z"/>
    <polygon points="147.4 1602.05 109.61 1606.77 109.61 1614.33 134.17 1617.17 139.77 1647.37 150.92 1648 147.4 1597.67 147.4 1602.05"/>
    <path d="M311.26,1593.83l4.44,63.53,105.66,6-6.7-69.53h-103.41Zm17,31.28l.57-12.19h68.03l3.4,31.47h-71.43v-9.64h11.34v-9.07l-11.91-.57Z"/>
    <path d="M267.33,1067.25l-85.51,2.24,3.22,92.32,88.73-2.32-6.45-92.23Zm-68.9,78.42v-57.64l53.86-1.89v54.8l-53.86,4.72Z"/>
    <polygon points="373.37 1164.99 281.44 1167.4 282.91 1188.43 296.72 1188.43 296.22 1182.76 359.29 1179.92 361.42 1224.57 299.76 1223.15 297.46 1196.93 283.5 1196.93 286.31 1237.13 380.32 1237.13 373.37 1164.99"/>
    <path d="M302.17,1058.4v-30.84h15.87v30.43l46.27-1.21,.06-.42-3.72-106.42-181.9,32.07,2.78,79.56,120.63-3.16Zm37.42-93.21l10.77-1.13-2.84,9.64v25.51l-11.9-2.27v9.36h-7.37l1.13-7.09-6.24-23.24,16.44-10.77Zm-64.06,26.93v38.27h-30.05v-38.27h30.05Z"/>
    <path d="M492,1402.41l-3.12,.12,9.14,94.89,8.63-.34v-.07s1.33,.02,1.33,.02h.12s0,0,0,0l74.9,.98v-103.86l-90.99,8.36v-.1Zm18.23,14.91c1.07,.17,3.88,.17,7.7,.06l-.9-8.59,18.13-1.91,1.01,9.65c2.48-.14,4.99-.29,7.46-.44l.91-8.7,5.82,.61-.81,7.73c10.42-.66,18.79-1.25,18.79-1.25l-.42,19.4,7.5,.26-.2,5.85-7.43-.26-.87,40.65-7.01-.34-.37,3.51-5.82-.61,.34-3.19-21.16-1.04-.57,5.43-5.82-.61,.54-5.11-10.46-.51-.3,2.81-5.82-.61,.26-2.49-3.36-.17,2.84-60.14Z"/>
    <path d="M458.07,1040.28c1.97-.95,4.15-1.51,6.47-1.56l6.62-108.28-100.51,17.72,87.41,92.11Zm-7.36-95.87l8.5,14.17-3.14,18.83-13.87-1.82-2.83,12.28,13.17,10.76-2.77,16.64-39.68-42.99,4.73-10.87-11.34-4.72,1.89-5.67,45.35-6.61Z"/>
    <path d="M477.82,1062.96l28.37,42.86,29.68-28.16-13.41-12.29-43.61-4.2c-.31,.62-.64,1.22-1.02,1.8Z"/>
    <path d="M476.09,1065.09c-2.84,2.95-6.82,4.8-11.23,4.8-.93,0-1.83-.1-2.71-.25l-4.81,5.34,7.65,79.49,38.57-1.01,1.18-45.07-28.66-43.29Z"/>
    <path d="M492.51,1394.46v.05s90.49-8.31,90.49-8.31v-137.72h-108.95l14.07,146.16,4.39-.17Zm56.84-133.89h19.28v7.94h5.39v7.37h-5.39v8.5h-8.75l.79,15.02h7.96v7.37h-7.58l3.04,58.11-19.84,1.44v5.65h-7.37v-5.11l-18.69,1.35,.74,4.18-7.26,1.28-.87-4.93-11.9,.86-8.5-92.6,11.34-15.59,47.62,9.38v-10.23Z"/>
    <polygon points="252.28 1463.15 197.72 1461.24 198.9 1427.24 250.49 1429.05 249.6 1411.94 143.18 1416.12 149.82 1511.1 254.58 1506.98 252.28 1463.15"/>
    <path d="M175.25,1069.66l-56.19,1.47,6.45,92.23,52.97-1.39-3.22-92.32Zm-34.46,77.9v-61.89h23.62v61.89h-23.62Z"/>
    <path d="M280.04,1249.01l-148.18,5.17,10.77,154.02,148.14-5.82-10.72-153.37Zm-112.75,133.58l-2.38-32.6,35.64,1.42,2.38-7.09,11.88-2.83,3.83-.62-2.47-16.3-13.25,.63-6.81-6.71-8.99,3.74-4.1-5.03,13.79-3.87-5.05-14.94-11.58,2.76-3.32-5.17,14.82-2.61-1.11-6.28-7.27-.16-7.55-10.9,14.21-6.1,10.5,41.32,11.74,7.28,2.74-2.07-7.26-47.95,53.86-1.42,6.34,107.72-43.56,3.54-.73-4.79-56.3,9.04Z"/>
    <polygon points="507.4 1107.21 506.19 1153.39 583 1151.38 583 1120.85 537.23 1078.91 507.4 1107.21"/>
    <path d="M547.36,985.12l-14.71-4.22-3.79,13.23,40.91,12.17-2.83,69.45-32.6-28.35-39.68-17.01,4.73-45.03,7.74,2.3,1.98-6.89-13.21-3.79,11.92-41.55,19.75,5.66-7.42,25.89,10.22,2.93,8.73-30.44-59.77-25.99-7.75,126.75c5.23,2.49,8.86,7.8,8.89,13.97l44.8,4.31,.1-.11,.15,.13h.1s0,.08,0,.08l48.84,44.75,8.57-5.14v-139.66l-24.92-10.84-10.72,37.38Z"/>
    <polygon points="126.07 1171.47 131.06 1242.87 181.23 1241.12 178.75 1170.09 126.07 1171.47"/>
    <path d="M185.33,1169.92l2.48,70.97,91.44-3.19-4.9-70.11-89.02,2.33Zm75.46,56.64l-55.56,2.27-.22-15.59h-10.55v-8.5h10.43l-.22-15.59,54.42-2.27,.85,19.84h7.09v16.44h-6.38l.15,3.4Z"/>
    <path d="M472.04,1227.61l12.92,9.52h98.04v-77.63l-117.22,3.07,6.26,65.04Zm51.66-37.06l14.88,1.42v-9.92l-7.8-5.67h17.01l21.26,4.96-7.09,33.31-31.89,2.84-42.52-2.84v-9.92l12.05-1.42-.71-17.72-17.01,1.42-.71-9.92,40.39-.71,2.13,14.17Z"/>
    <path d="M305.6,1512.91l5.1,72.91h103.2l-7.4-76.87-100.9,3.96Zm55.35,38.11l-.95,22.68-29.29,.95-6.42-48.76,35.15,1.13,.57,5.67,6.24-.57,.38-6.61,22.68-3.31,4.72,51.5h-18.9v-23.15l-14.17,.47Z"/>
    <path d="M475.03,867.23l-110.07,2.88,2.46,70.58,104.24-18.38,3.37-55.08Zm-89.52,55.45l1.42-34.02,21.26-1.81v-3.86h13.61v2.7l31.75-2.7-7.09,29.76-60.94,9.92Z"/>
    <polygon points="0 1269.25 0 1639.43 67.63 1643.27 0 1269.25"/>
    <polygon points="0 1650.12 0 1683.78 420.95 1683.78 420.95 1674.02 0 1650.12"/>
    <path d="M363.98,841.89l.75,21.46,110.72-2.9,1.13-18.56h7.1l-3.93,64.18,103.24,44.89v-109.07h-38.43l2.52,14.17,22.68-1.42,2.83,14.17-28.35-4.25-.95,26.93c9.45-2.36,9.45-12.76,9.45-12.76l19.84,5.67-1.89,9.92-41.58,8.98-5.67-34.49-25.51,3.31-1.59-30.24h-134.94s2.56,0,2.56,0Z"/>
    <polygon points="414.95 1508.62 415.86 1518.07 422.93 1566.14 438.69 1563.97 434.83 1519.65 443.91 1519.65 444.47 1525.32 452.41 1525.04 452.41 1517.95 464.88 1517.95 464.88 1524.19 476.22 1525.04 480.19 1568.41 469.42 1568.98 467.72 1562.74 456.38 1561.04 456.94 1569.54 441.12 1571.59 444.36 1585.82 498.04 1585.82 490.32 1505.65 414.95 1508.62"/>
    <polygon points="172.22 983.16 151.34 986.84 152.51 1003.61 162.87 1002.89 164.98 1051.94 130.39 1053.64 126.03 1005.46 136.11 1004.76 135.06 989.71 113.62 993.49 118.5 1063.21 174.97 1061.74 172.22 983.16"/>
    <polygon points="433.7 1674.07 433.7 1683.78 583 1683.78 583 1649.76 433.7 1674.07"/>
    <polygon points="572.49 1505.8 571.46 1531.56 539.15 1531.56 537.45 1554.8 544.82 1554.24 545.95 1543.47 569.76 1545.73 568.63 1563.88 517.61 1566.14 518.17 1517.39 568.06 1521.36 568.06 1505.74 508.09 1504.96 498.78 1505.32 506.53 1585.82 583 1585.82 583 1505.94 572.49 1505.8"/>
    <polygon points="100.16 1187.72 40.63 1184.32 39.68 1233.54 102.05 1228.82 100.16 1187.72"/>
    <polygon points="100.16 1187.72 40.63 1184.32 39.68 1233.54 102.05 1228.82 100.16 1187.72"/>
    <polygon points="272.13 916.5 272.13 908.51 285.73 908.51 285.73 915.45 309.69 913.61 317.48 870.24 221.1 874.39 226.77 919.99 272.13 916.5"/>
    <polygon points="421.79 882.99 408.19 882.99 408.19 886.85 421.79 885.69 421.79 882.99"/>
    <polygon points="421.79 882.99 408.19 882.99 408.19 886.85 421.79 885.69 421.79 882.99"/>
    <polygon points="421.79 898.87 421.79 885.69 408.19 886.85 408.19 898.87 421.79 898.87"/>
    <polygon points="272.13 924.38 285.73 924.38 285.73 915.45 272.13 916.5 272.13 924.38"/>
    <polygon points="272.13 908.51 272.13 916.5 285.73 915.45 285.73 908.51 272.13 908.51"/>
    <polygon points="272.13 908.51 272.13 916.5 285.73 915.45 285.73 908.51 272.13 908.51"/>
  </g>
  <g>
    <polygon points="171.95 1823.45 167.49 1695.85 103.42 1695.85 113.07 1833.83 171.95 1823.45"/>
    <path d="M405.05,2254.12l9.14,94.89,75.37-2.96-9.14-94.89-75.37,2.96Zm59.15,73.18l-33.93,2.37-3.66-52.31-9.9,.69-.74-10.6,50.19-3.51,.74,10.6-6.36,.44,1.33,18.98h14.35v23.39h-12.72l.7,9.95Z"/>
    <polygon points="94.95 1695.85 62.96 1695.85 62.64 1713.76 76.54 1712.86 87.05 1887.19 36 1888.6 33.07 1715.69 52.71 1714.41 53.03 1695.85 11.34 1695.85 11.34 1914.31 110.04 1911.72 94.95 1695.85"/>
    <path d="M110.6,1919.64l-99.26,2.6v92.4l105.71-2.77-6.45-92.23Zm-12.33,71.01l-41.58,8.98-5.67-34.49-25.51,3.31-1.89-35.91,47.24-1.42,3.78,21.26,22.68-1.42,2.83,14.17-28.35-4.25-.94,26.93c9.45-2.36,9.45-12.76,9.45-12.76l19.84,5.67-1.89,9.92Z"/>
    <path d="M298.4,2258.31l6.64,94.98,100.69-3.96-9.14-94.89-98.19,3.86Zm37.81,78.39l.24-7.01-18.98,1.12-4.05-48.21-3.13-12.57,17.69-4.41,1.91,7.67c8.07-.71,17.8-1.61,26.64-2.44l.26-7.36,18.22,.64-.17,4.99c4.25-.41,6.89-.66,6.89-.66l7.56,58.11-42.17,2.5-.28,8.01-10.62-.37Z"/>
    <path d="M360.38,1790.22l-3.3-94.37H174.07l4.42,126.45,181.9-32.07Zm-25.89-6.5l-136.06,17.29-4.53-96.38,136.06-1.13,4.54,80.22Z"/>
    <polygon points="206.93 2410.18 175.75 2418.68 173.86 2411.6 188.98 2410.18 187.09 2383.25 216.38 2381.83 213.35 2364.82 150.37 2367.3 155.04 2434.11 202.73 2434.11 206.93 2410.18"/>
    <path d="M117.61,2019.98l-106.28,2.78v72.58l111.27-3.89-5-71.48Zm-76.98,12.63l59.53,3.4,1.89,41.1-62.36,4.72,.95-49.23Z"/>
    <path d="M371.49,1905.35l80.13,11.97,2.84-3.15c-3.17-2.85-5.18-6.98-5.18-11.58,0-3.6,1.23-6.9,3.28-9.54l-84.6-89.15,3.54,101.45Zm54.84-18.73l1.7,14.17-40.82-11.91-3.4-40.82,15.87,1.7,26.65,36.85Z"/>
    <path d="M381.06,2004.96l75.47-1.98-7.6-78.9-76.76-11.47,8.89,92.34Zm40.36-55.41l2.84-6.61,17.01,3.78,1.89,16.06,1.89,22.68-27.4,2.83-1.89-8.5-12.28,2.36-.95-7.09,8.5-.95-4.72-26.46,15.12,1.89Z"/>
    <path d="M388.81,2085.42h75.66l-7.16-74.34-75.47,1.98,6.97,72.36Zm17.49-48l.95-15.12,32.13,2.83,8.5,5.67,3.78,14.17-16.06,2.36v11.81h9.45l.95,9.45-42.52,4.72-.94-8.98,13.23-2.36,.95-8.98-10.39,.47-.95-6.61h12.28v-9.45h-11.34Z"/>
    <path d="M391.68,2115.24l64.7-2.7,.94,21.26-20.79,1.42v17.01l17.01-2.36v17.01l-36.85,2.36-6.61-33.54-16.06,3.82,10.27,106.7,75.37-2.96-14.11-146.49h-75.66l1.78,18.47Zm33.52,105.49l-5.67-41.58,33.07-1.42,6.61,41.1-34.02,1.89Z"/>
    <polygon points="221.88 2364.49 224.88 2383.25 277.79 2380.41 288.19 2419.15 260.79 2421.52 266.46 2403.09 235.28 2404.98 227.21 2434.11 303.59 2434.11 298.51 2361.48 221.88 2364.49"/>
    <path d="M429.9,2512.13h.17s152.93-24.9,152.93-24.9v-45.12h-159.84l6.74,70.01Zm143.84-53.76v20.69l-10.2-1.7-4.25,6.52-46.2,5.95,2.83-30.62-5.1,1.99-3.97,26.93-62.36,10.2-2.83-15.31,6.24,.85v-8.5l-6.8-.28-.57-11.9,74.84-6.8,58.39,1.98Z"/>
    <polygon points="255.86 2259.98 256.87 2279.15 279.19 2278.37 279.9 2298.79 272.84 2299.63 272.83 2325.14 280.8 2324.59 281.38 2341.26 260.16 2342 260.84 2355.03 297.96 2353.57 291.31 2258.58 255.86 2259.98"/>
    <polygon points="59.53 2331.28 71.81 2334.12 81.26 2447.5 146.92 2439.06 123.4 2102.77 9.57 2106.75 27.79 2207.5 45.35 2207.5 59.53 2331.28"/>
    <path d="M274.42,1915.35l1.3,18.61h48.37v17.48h-47.15l3.93,56.14,91.72-2.4-8.87-92.17-89.3,2.34Zm61.2,10.39h13.61v15.87h-13.61v-15.87Zm15.87,26.65v7.09h-11.34v-7.09h11.34Zm-61.23,19.56l63.5-1.98,5.67,20.98-67.46,3.4-1.7-22.39Z"/>
    <polygon points="155.6 2442.12 159.42 2496.77 308.56 2505.24 304.15 2442.12 155.6 2442.12"/>
    <path d="M381.41,2096.76h-92.37v.23s-1.92,.07-1.92,.07l10.72,153.34,97.99-3.85-14.42-149.78Zm-75.27,117.83l15.12-4.25-3.78-36.85-9.45-.94-.94-10.4,13.23,1.89v-8.5l-16.06-2.83,.95-37.32h9.45v21.26l11.34-2.84,.95-8.5,16.06-.94-1.89,14.17,11.34,2.84v-28.35l16.06,2.83,2.83,42.52,2.83,64.72-64.25,7.09-3.78-15.59Z"/>
    <polygon points="147.4 2450.34 109.61 2455.06 109.61 2462.62 134.17 2465.45 139.77 2495.65 150.92 2496.29 147.4 2445.96 147.4 2450.34"/>
    <path d="M311.26,2442.12l4.44,63.53,105.66,6-6.7-69.53h-103.41Zm17,31.28l.57-12.19h68.03l3.4,31.47h-71.43v-9.64h11.34v-9.07l-11.91-.57Z"/>
    <path d="M267.33,1915.53l-85.51,2.24,3.22,92.32,88.73-2.32-6.45-92.23Zm-68.9,78.42v-57.64l53.86-1.89v54.8l-53.86,4.72Z"/>
    <polygon points="373.37 2013.28 281.44 2015.69 282.91 2036.71 296.72 2036.71 296.22 2031.04 359.29 2028.21 361.42 2072.86 299.76 2071.44 297.46 2045.22 283.5 2045.22 286.31 2085.42 380.32 2085.42 373.37 2013.28"/>
    <path d="M302.17,1906.69v-30.84h15.87v30.43l46.27-1.21,.06-.42-3.72-106.42-181.9,32.07,2.78,79.56,120.63-3.16Zm37.42-93.21l10.77-1.13-2.84,9.64v25.51l-11.9-2.27v9.36h-7.37l1.13-7.09-6.24-23.24,16.44-10.77Zm-64.06,26.93v38.27h-30.05v-38.27h30.05Z"/>
    <path d="M492,2250.7l-3.12,.12,9.14,94.89,8.63-.34v-.07s1.33,.02,1.33,.02h.12s0,0,0,0l74.9,.98v-103.86l-90.99,8.36v-.1Zm18.23,14.91c1.07,.17,3.88,.17,7.7,.06l-.9-8.59,18.13-1.91,1.01,9.65c2.48-.14,4.99-.29,7.46-.44l.91-8.7,5.82,.61-.81,7.73c10.42-.66,18.79-1.25,18.79-1.25l-.42,19.4,7.5,.26-.2,5.85-7.43-.26-.87,40.65-7.01-.34-.37,3.51-5.82-.61,.34-3.19-21.16-1.04-.57,5.43-5.82-.61,.54-5.11-10.46-.51-.3,2.81-5.82-.61,.26-2.49-3.36-.17,2.84-60.14Z"/>
    <path d="M458.07,1888.57c1.97-.95,4.15-1.51,6.47-1.56l6.62-108.28-100.51,17.72,87.41,92.11Zm-7.36-95.87l8.5,14.17-3.14,18.83-13.87-1.82-2.83,12.28,13.17,10.76-2.77,16.64-39.68-42.99,4.73-10.87-11.34-4.72,1.89-5.67,45.35-6.61Z"/>
    <path d="M477.82,1911.25l28.37,42.86,29.68-28.16-13.41-12.29-43.61-4.2c-.31,.62-.64,1.22-1.02,1.8Z"/>
    <path d="M476.09,1913.38c-2.84,2.95-6.82,4.8-11.23,4.8-.93,0-1.83-.1-2.71-.25l-4.81,5.34,7.65,79.49,38.57-1.01,1.18-45.07-28.66-43.29Z"/>
    <path d="M492.51,2242.75v.05s90.49-8.31,90.49-8.31v-137.72h-108.95l14.07,146.16,4.39-.17Zm56.84-133.89h19.28v7.94h5.39v7.37h-5.39v8.5h-8.75l.79,15.02h7.96v7.37h-7.58l3.04,58.11-19.84,1.44v5.65h-7.37v-5.11l-18.69,1.35,.74,4.18-7.26,1.28-.87-4.93-11.9,.86-8.5-92.6,11.34-15.59,47.62,9.38v-10.23Z"/>
    <polygon points="252.28 2311.43 197.72 2309.53 198.9 2275.53 250.49 2277.33 249.6 2260.22 143.18 2264.4 149.82 2359.39 254.58 2355.27 252.28 2311.43"/>
    <path d="M175.25,1917.94l-56.19,1.47,6.45,92.23,52.97-1.39-3.22-92.32Zm-34.46,77.9v-61.89h23.62v61.89h-23.62Z"/>
    <path d="M280.04,2097.3l-148.18,5.17,10.77,154.02,148.14-5.82-10.72-153.37Zm-112.75,133.58l-2.38-32.6,35.64,1.42,2.38-7.09,11.88-2.83,3.83-.62-2.47-16.3-13.25,.63-6.81-6.71-8.99,3.74-4.1-5.03,13.79-3.87-5.05-14.94-11.58,2.76-3.32-5.17,14.82-2.61-1.11-6.28-7.27-.16-7.55-10.9,14.21-6.1,10.5,41.32,11.74,7.28,2.74-2.07-7.26-47.95,53.86-1.42,6.34,107.72-43.56,3.54-.73-4.79-56.3,9.04Z"/>
    <polygon points="507.4 1955.5 506.19 2001.68 583 1999.67 583 1969.14 537.23 1927.19 507.4 1955.5"/>
    <path d="M547.36,1833.4l-14.71-4.22-3.79,13.23,40.91,12.17-2.83,69.45-32.6-28.35-39.68-17.01,4.73-45.03,7.74,2.3,1.98-6.89-13.21-3.79,11.92-41.55,19.75,5.66-7.42,25.89,10.22,2.93,8.73-30.44-59.77-25.99-7.75,126.75c5.23,2.49,8.86,7.8,8.89,13.97l44.8,4.31,.1-.11,.15,.13h.1s0,.08,0,.08l48.84,44.75,8.57-5.14v-139.66l-24.92-10.84-10.72,37.38Z"/>
    <polygon points="126.07 2019.76 131.06 2091.16 181.23 2089.41 178.75 2018.38 126.07 2019.76"/>
    <path d="M185.33,2018.2l2.48,70.97,91.44-3.19-4.9-70.11-89.02,2.33Zm75.46,56.64l-55.56,2.27-.22-15.59h-10.55v-8.5h10.43l-.22-15.59,54.42-2.27,.85,19.84h7.09v16.44h-6.38l.15,3.4Z"/>
    <path d="M472.04,2075.9l12.92,9.52h98.04v-77.63l-117.22,3.07,6.26,65.04Zm51.66-37.06l14.88,1.42v-9.92l-7.8-5.67h17.01l21.26,4.96-7.09,33.31-31.89,2.84-42.52-2.84v-9.92l12.05-1.42-.71-17.72-17.01,1.42-.71-9.92,40.39-.71,2.13,14.17Z"/>
    <path d="M305.6,2361.2l5.1,72.91h103.2l-7.4-76.87-100.9,3.96Zm55.35,38.11l-.95,22.68-29.29,.95-6.42-48.76,35.15,1.13,.57,5.67,6.24-.57,.38-6.61,22.68-3.31,4.72,51.5h-18.9v-23.15l-14.17,.47Z"/>
    <path d="M475.03,1715.52l-110.07,2.88,2.46,70.58,104.24-18.38,3.37-55.08Zm-89.52,55.45l1.42-34.02,21.26-1.81v-3.86h13.61v2.7l31.75-2.7-7.09,29.76-60.94,9.92Z"/>
    <polygon points="0 2117.54 0 2487.72 67.63 2491.56 0 2117.54"/>
    <polygon points="0 2498.41 0 2532.07 420.95 2532.07 420.95 2522.31 0 2498.41"/>
    <path d="M363.98,1690.18l.75,21.46,110.72-2.9,1.13-18.56h7.1l-3.93,64.18,103.24,44.89v-109.07h-38.43l2.52,14.17,22.68-1.42,2.83,14.17-28.35-4.25-.95,26.93c9.45-2.36,9.45-12.76,9.45-12.76l19.84,5.67-1.89,9.92-41.58,8.98-5.67-34.49-25.51,3.31-1.59-30.24h-134.94s2.56,0,2.56,0Z"/>
    <polygon points="414.95 2356.9 415.86 2366.35 422.93 2414.43 438.69 2412.26 434.83 2367.94 443.91 2367.94 444.47 2373.61 452.41 2373.33 452.41 2366.24 464.88 2366.24 464.88 2372.48 476.22 2373.33 480.19 2416.7 469.42 2417.27 467.72 2411.03 456.38 2409.33 456.94 2417.83 441.12 2419.87 444.36 2434.11 498.04 2434.11 490.32 2353.94 414.95 2356.9"/>
    <polygon points="172.22 1831.45 151.34 1835.13 152.51 1851.9 162.87 1851.17 164.98 1900.23 130.39 1901.93 126.03 1853.75 136.11 1853.05 135.06 1838 113.62 1841.78 118.5 1911.5 174.97 1910.02 172.22 1831.45"/>
    <polygon points="433.7 2522.36 433.7 2532.07 583 2532.07 583 2498.05 433.7 2522.36"/>
    <polygon points="572.49 2354.09 571.46 2379.85 539.15 2379.85 537.45 2403.09 544.82 2402.52 545.95 2391.75 569.76 2394.02 568.63 2412.16 517.61 2414.43 518.17 2365.67 568.06 2369.64 568.06 2354.03 508.09 2353.24 498.78 2353.61 506.53 2434.11 583 2434.11 583 2354.23 572.49 2354.09"/>
    <polygon points="100.16 2036.01 40.63 2032.6 39.68 2081.83 102.05 2077.11 100.16 2036.01"/>
    <polygon points="100.16 2036.01 40.63 2032.6 39.68 2081.83 102.05 2077.11 100.16 2036.01"/>
    <polygon points="272.13 1764.78 272.13 1756.79 285.73 1756.79 285.73 1763.74 309.69 1761.89 317.48 1718.53 221.1 1722.68 226.77 1768.27 272.13 1764.78"/>
    <polygon points="421.79 1731.28 408.19 1731.28 408.19 1735.14 421.79 1733.98 421.79 1731.28"/>
    <polygon points="421.79 1731.28 408.19 1731.28 408.19 1735.14 421.79 1733.98 421.79 1731.28"/>
    <polygon points="421.79 1747.16 421.79 1733.98 408.19 1735.14 408.19 1747.16 421.79 1747.16"/>
    <polygon points="272.13 1772.67 285.73 1772.67 285.73 1763.74 272.13 1764.78 272.13 1772.67"/>
    <polygon points="272.13 1756.79 272.13 1764.78 285.73 1763.74 285.73 1756.79 272.13 1756.79"/>
    <polygon points="272.13 1756.79 272.13 1764.78 285.73 1763.74 285.73 1756.79 272.13 1756.79"/>
  </g>
  <g>
    <polygon points="171.95 2672.77 167.49 2545.17 103.42 2545.17 113.07 2683.15 171.95 2672.77"/>
    <polygon points="94.95 2545.17 62.96 2545.17 62.64 2563.08 76.54 2562.17 87.05 2736.5 36 2737.92 33.07 2565.01 52.71 2563.73 53.03 2545.17 11.34 2545.17 11.34 2763.63 110.04 2761.04 94.95 2545.17"/>
    <path d="M110.6,2768.96l-99.26,2.6v92.4l105.71-2.77-6.45-92.23Zm-12.33,71.01l-41.58,8.98-5.67-34.49-25.51,3.31-1.89-35.91,47.24-1.42,3.78,21.26,22.68-1.42,2.83,14.17-28.35-4.25-.94,26.93c9.45-2.36,9.45-12.76,9.45-12.76l19.84,5.67-1.89,9.92Z"/>
    <path d="M360.38,2639.54l-3.3-94.37H174.07l4.42,126.45,181.9-32.07Zm-25.89-6.5l-136.06,17.29-4.53-96.38,136.06-1.13,4.54,80.22Z"/>
    <path d="M117.61,2873.08l-106.28,3.65v95.09l111.27-5.09-5-93.65Zm-76.98,16.54l59.53,4.46,1.89,53.85-62.36,6.19,.95-64.5Z"/>
    <path d="M371.49,2754.66l80.13,11.97,2.84-3.15c-3.17-2.85-5.18-6.98-5.18-11.58,0-3.6,1.23-6.9,3.28-9.54l-84.6-89.15,3.54,101.45Zm54.84-18.73l1.7,14.17-40.82-11.91-3.4-40.82,15.87,1.7,26.65,36.85Z"/>
    <path d="M381.06,2854.27l75.47-1.98-7.6-78.9-76.76-11.47,8.89,92.34Zm40.36-55.41l2.84-6.61,17.01,3.78,1.89,16.06,1.89,22.68-27.4,2.83-1.89-8.5-12.28,2.36-.95-7.09,8.5-.95-4.72-26.46,15.12,1.89Z"/>
    <path d="M388.81,2958.82h75.66l-7.16-97.4-75.47,2.59,6.97,94.81Zm17.49-62.89l.95-19.81,32.13,3.71,8.5,7.43,3.78,18.57-16.06,3.09v15.47h9.45l.95,12.38-42.52,6.19-.94-11.76,13.23-3.09,.95-11.76-10.39,.62-.95-8.67h12.28v-12.38h-11.34Z"/>
    <path d="M274.42,2764.67l1.3,18.61h48.37v17.48h-47.15l3.93,56.14,91.72-2.4-8.87-92.17-89.3,2.34Zm61.2,10.39h13.61v15.87h-13.61v-15.87Zm15.87,26.65v7.09h-11.34v-7.09h11.34Zm-61.23,19.56l63.5-1.98,5.67,20.98-67.46,3.4-1.7-22.39Z"/>
    <path d="M267.33,2764.85l-85.51,2.24,3.22,92.32,88.73-2.32-6.45-92.23Zm-68.9,78.42v-57.64l53.86-1.89v54.8l-53.86,4.72Z"/>
    <polygon points="373.37 2864.3 281.44 2867.45 282.91 2895 296.72 2895 296.22 2887.58 359.29 2883.86 361.42 2942.35 299.76 2940.5 297.46 2906.15 283.5 2906.15 286.31 2958.82 380.32 2958.82 373.37 2864.3"/>
    <path d="M302.17,2756.01v-30.84h15.87v30.43l46.27-1.21,.06-.42-3.72-106.42-181.9,32.07,2.78,79.56,120.63-3.16Zm37.42-93.21l10.77-1.13-2.84,9.64v25.51l-11.9-2.27v9.36h-7.37l1.13-7.09-6.24-23.24,16.44-10.77Zm-64.06,26.93v38.27h-30.05v-38.27h30.05Z"/>
    <path d="M458.07,2737.89c1.97-.95,4.15-1.51,6.47-1.56l6.62-108.28-100.51,17.72,87.41,92.11Zm-7.36-95.87l8.5,14.17-3.14,18.83-13.87-1.82-2.83,12.28,13.17,10.76-2.77,16.64-39.68-42.99,4.73-10.87-11.34-4.72,1.89-5.67,45.35-6.61Z"/>
    <path d="M477.82,2760.57l28.37,42.86,29.68-28.16-13.41-12.29-43.61-4.2c-.31,.62-.64,1.22-1.02,1.8Z"/>
    <path d="M476.09,2762.7c-2.84,2.95-6.82,4.8-11.23,4.8-.93,0-1.83-.1-2.71-.25l-4.81,5.34,7.65,79.49,38.57-1.01,1.18-45.07-28.66-43.29Z"/>
    <path d="M175.25,2767.26l-56.19,1.47,6.45,92.23,52.97-1.39-3.22-92.32Zm-34.46,77.9v-61.89h23.62v61.89h-23.62Z"/>
    <polygon points="507.4 2804.82 506.19 2851 583 2848.99 583 2818.45 537.23 2776.51 507.4 2804.82"/>
    <path d="M547.36,2682.72l-14.71-4.22-3.79,13.23,40.91,12.17-2.83,69.45-32.6-28.35-39.68-17.01,4.73-45.03,7.74,2.3,1.98-6.89-13.21-3.79,11.92-41.55,19.75,5.66-7.42,25.89,10.22,2.93,8.73-30.44-59.77-25.99-7.75,126.75c5.23,2.49,8.86,7.8,8.89,13.97l44.8,4.31,.1-.11,.15,.13h.1s0,.08,0,.08l48.84,44.75,8.57-5.14v-139.66l-24.92-10.84-10.72,37.38Z"/>
    <polygon points="126.07 2872.78 131.06 2966.34 181.23 2964.04 178.75 2870.98 126.07 2872.78"/>
    <polygon points="582.49 2975.2 582.49 3020.04 177.69 3020.72 134.07 2975.5 582.49 2975.2"/>
    <polygon points="11.34 3022.72 11.34 2981.62 123.98 2975.71 167.6 3020.93 11.34 3022.72"/>
    <path d="M185.33,2870.75l2.48,92.99,91.44-4.18-4.9-91.86-89.02,3.05Zm75.46,74.2l-55.56,2.97-.22-20.43h-10.55v-11.14h10.43l-.22-20.43,54.42-2.97,.85,26h7.09v21.54h-6.38l.15,4.46Z"/>
    <path d="M472.04,2946.35l12.92,12.47h98.04v-101.71l-117.22,4.02,6.26,85.22Zm51.66-48.56l14.88,1.86v-13l-7.8-7.43h17.01l21.26,6.5-7.09,43.64-31.89,3.71-42.52-3.71v-13l12.05-1.86-.71-23.21-17.01,1.86-.71-13,40.39-.93,2.13,18.57Z"/>
    <path d="M475.03,2564.84l-110.07,2.88,2.46,70.58,104.24-18.38,3.37-55.08Zm-89.52,55.45l1.42-34.02,21.26-1.81v-3.86h13.61v2.7l31.75-2.7-7.09,29.76-60.94,9.92Z"/>
    <path d="M363.98,2539.5l.75,21.46,110.72-2.9,1.13-18.56h7.1l-3.93,64.18,103.24,44.89v-109.07h-38.43l2.52,14.17,22.68-1.42,2.83,14.17-28.35-4.25-.95,26.93c9.45-2.36,9.45-12.76,9.45-12.76l19.84,5.67-1.89,9.92-41.58,8.98-5.67-34.49-25.51,3.31-1.59-30.24h-134.94s2.56,0,2.56,0Z"/>
    <polygon points="172.22 2680.77 151.34 2684.45 152.51 2701.22 162.87 2700.49 164.98 2749.54 130.39 2751.24 126.03 2703.07 136.11 2702.36 135.06 2687.32 113.62 2691.1 118.5 2760.82 174.97 2759.34 172.22 2680.77"/>
    <polygon points="100.16 2894.07 40.63 2889.62 39.68 2954.11 102.05 2947.93 100.16 2894.07"/>
    <polygon points="100.16 2894.07 40.63 2889.62 39.68 2954.11 102.05 2947.93 100.16 2894.07"/>
    <polygon points="272.13 2614.1 272.13 2606.11 285.73 2606.11 285.73 2613.06 309.69 2611.21 317.48 2567.84 221.1 2572 226.77 2617.59 272.13 2614.1"/>
    <polygon points="421.79 2580.6 408.19 2580.6 408.19 2584.46 421.79 2583.3 421.79 2580.6"/>
    <polygon points="421.79 2580.6 408.19 2580.6 408.19 2584.46 421.79 2583.3 421.79 2580.6"/>
    <polygon points="421.79 2596.47 421.79 2583.3 408.19 2584.46 408.19 2596.47 421.79 2596.47"/>
    <polygon points="272.13 2621.99 285.73 2621.99 285.73 2613.06 272.13 2614.1 272.13 2621.99"/>
    <polygon points="272.13 2606.11 272.13 2614.1 285.73 2613.06 285.73 2606.11 272.13 2606.11"/>
    <polygon points="272.13 2606.11 272.13 2614.1 285.73 2613.06 285.73 2606.11 272.13 2606.11"/>
  </g>
  <g>
    <polygon points="171.95 708.62 167.49 836.22 103.42 836.22 113.07 698.24 171.95 708.62"/>
    <path d="M480.42,280.91l9.14-94.89-75.37-2.96-9.14,94.89,75.37,2.96Zm-16.92-66.19h12.72v23.39h-14.35l-1.33,18.98,6.36,.44-.74,10.6-50.19-3.51,.74-10.6,9.9,.69,3.66-52.31,33.93,2.37-.7,9.95Z"/>
    <polygon points="94.95 836.22 62.96 836.22 62.64 818.31 76.54 819.21 87.05 644.88 36 643.46 33.07 816.38 52.71 817.66 53.03 836.22 11.34 836.22 11.34 617.76 110.04 620.34 94.95 836.22"/>
    <path d="M117.05,520.2l-105.71-2.77v92.4l99.26,2.6,6.45-92.23Zm-16.89,31.14l-19.84,5.67s0-10.39-9.45-12.76l.94,26.93,28.35-4.25-2.83,14.17-22.68-1.42-3.78,21.26-47.24-1.42,1.89-35.91,25.51,3.31,5.67-34.49,41.58,8.98,1.89,9.92Z"/>
    <path d="M396.6,277.62l9.14-94.89-100.69-3.96-6.64,94.98,98.19,3.86Zm-49.76-82.62l.28,8.01,42.17,2.5-7.56,58.11s-2.64-.26-6.89-.66l.17,4.99-18.22,.64-.26-7.36c-8.84-.83-18.57-1.73-26.64-2.44l-1.91,7.67-17.69-4.41,3.13-12.57,4.05-48.21,18.98,1.12-.24-7.01,10.62-.37Z"/>
    <path d="M178.49,709.77l-4.42,126.45h183.02l3.3-94.37-181.9-32.07Zm151.47,118.79l-136.06-1.13,4.53-96.38,136.06,17.29-4.54,80.22Z"/>
    <polygon points="206.93 121.89 175.75 113.39 173.86 120.47 188.98 121.89 187.09 148.82 216.38 150.24 213.35 167.24 150.37 164.77 155.04 97.96 202.73 97.96 206.93 121.89"/>
    <path d="M122.61,440.61l-111.27-3.89v72.58l106.28,2.78,5-71.48Zm-82.93,9.62l62.36,4.72-1.89,41.1-59.53,3.4-.95-49.23Z"/>
    <path d="M367.95,728.17l84.6-89.15c-2.05-2.64-3.28-5.94-3.28-9.54,0-4.6,2.01-8.73,5.18-11.58l-2.84-3.15-80.13,11.97-3.54,101.45Zm31.74-45.87l-15.87,1.7,3.4-40.82,40.82-11.91-1.7,14.17-26.65,36.85Z"/>
    <path d="M372.17,619.46l76.76-11.47,7.6-78.9-75.47-1.98-8.89,92.34Zm34.13-35.05l4.72-26.46-8.5-.95,.95-7.09,12.28,2.36,1.89-8.5,27.4,2.83-1.89,22.68-1.89,16.06-17.01,3.78-2.84-6.61-15.12,1.89Z"/>
    <path d="M381.84,519.01l75.47,1.98,7.16-74.34h-75.66l-6.97,72.36Zm35.8-24.36v-9.45h-12.28l.95-6.61,10.39,.47-.95-8.98-13.23-2.36,.94-8.98,42.52,4.72-.95,9.45h-9.45v11.81l16.06,2.36-3.78,14.17-8.5,5.67-32.13,2.83-.95-15.12h11.34Z"/>
    <path d="M389.9,435.31h75.66l14.11-146.49-75.37-2.96-10.27,106.7,16.06,3.82,6.61-33.54,36.85,2.36v17.01l-17.01-2.36v17.01l20.79,1.42-.94,21.26-64.7-2.7-1.78,18.47Zm69.31-122.08l-6.61,41.1-33.07-1.42,5.67-41.58,34.02,1.89Z"/>
    <polygon points="221.88 167.58 224.88 148.82 277.79 151.65 288.19 112.91 260.79 110.55 266.46 128.98 235.28 127.09 227.21 97.96 303.59 97.96 298.51 170.59 221.88 167.58"/>
    <path d="M423.15,89.95h159.84V44.83l-152.93-24.91h-.17s-6.74,70.02-6.74,70.02Zm92.18-14.27l-74.84-6.8,.57-11.9,6.8-.28v-8.5l-6.24,.85,2.83-15.31,62.36,10.2,3.97,26.93,5.1,1.99-2.83-30.62,46.2,5.95,4.25,6.52,10.2-1.7v20.69l-58.39,1.98Z"/>
    <polygon points="255.86 272.09 256.87 252.92 279.19 253.7 279.9 233.28 272.84 232.44 272.83 206.93 280.8 207.48 281.38 190.81 260.16 190.07 260.84 177.04 297.96 178.5 291.31 273.48 255.86 272.09"/>
    <polygon points="59.53 200.79 71.81 197.95 81.26 84.57 146.92 93.01 123.4 429.3 9.57 425.32 27.79 324.57 45.35 324.57 59.53 200.79"/>
    <path d="M363.72,619.06l8.87-92.17-91.72-2.4-3.93,56.14h47.15v17.48h-48.37l-1.3,18.61,89.3,2.34Zm-28.1-28.6h13.61v15.87h-13.61v-15.87Zm4.54-10.77v-7.09h11.34v7.09h-11.34Zm-48.19-41.95l67.46,3.4-5.67,20.98-63.5-1.98,1.7-22.39Z"/>
    <polygon points="155.6 89.95 159.42 35.3 308.56 26.83 304.15 89.95 155.6 89.95"/>
    <path d="M395.84,285.52l-97.99-3.85-10.72,153.34,1.93,.07v.23s92.36,0,92.36,0l14.42-149.78Zm-85.91,16.37l64.25,7.09-2.83,64.72-2.83,42.52-16.06,2.83v-28.35l-11.34,2.84,1.89,14.17-16.06-.94-.95-8.5-11.34-2.84v21.26h-9.45l-.95-37.32,16.06-2.83v-8.5l-13.23,1.89,.94-10.4,9.45-.94,3.78-36.85-15.12-4.25,3.78-15.59Z"/>
    <polygon points="147.4 81.73 109.61 77.01 109.61 69.45 134.17 66.61 139.77 36.41 150.92 35.78 147.4 86.11 147.4 81.73"/>
    <path d="M414.67,89.95l6.7-69.53-105.66,6-4.44,63.53h103.41Zm-74.51-31.84v-9.07h-11.34v-9.64h71.43l-3.4,31.47h-68.03l-.57-12.19,11.91-.57Z"/>
    <path d="M273.78,524.3l-88.73-2.32-3.22,92.32,85.51,2.24,6.45-92.23Zm-21.49,18.53v54.8l-53.86-1.89v-57.64l53.86,4.72Z"/>
    <polygon points="373.37 518.79 281.44 516.38 282.91 495.35 296.72 495.35 296.22 501.02 359.29 503.86 361.42 459.21 299.76 460.63 297.46 486.85 283.5 486.85 286.31 446.65 380.32 446.65 373.37 518.79"/>
    <path d="M181.54,622.22l-2.78,79.56,181.9,32.07,3.72-106.42-.06-.42-46.27-1.21v30.43h-15.87v-30.84l-120.63-3.16Zm141.61,85.59l6.24-23.24-1.13-7.09h7.37v9.36l11.9-2.27v25.51l2.84,9.64-10.77-1.13-16.44-10.77Zm-77.67-16.16v-38.27h30.05v38.27h-30.05Z"/>
    <path d="M492.01,281.27l90.99,8.36v-103.86l-74.9,.98h0s-.12,0-.12,0l-1.33,.02v-.07s-8.63-.34-8.63-.34l-9.14,94.89,3.12,.12v-.1Zm15.4-74.95l3.36-.17-.26-2.49,5.82-.61,.3,2.81,10.46-.51-.54-5.11,5.82-.61,.57,5.43,21.16-1.04-.34-3.19,5.82-.61,.37,3.51,7.01-.34,.87,40.65,7.43-.26,.2,5.85-7.5,.26,.42,19.4s-8.38-.59-18.79-1.25l.81,7.73-5.82,.61-.91-8.7c-2.47-.15-4.97-.3-7.46-.44l-1.01,9.65-18.13-1.91,.9-8.59c-3.82-.11-6.63-.11-7.7,.06l-2.84-60.14Z"/>
    <path d="M370.66,735.61l100.51,17.72-6.62-108.28c-2.32-.05-4.51-.6-6.47-1.56l-87.41,92.11Zm34.69-2.85l-1.89-5.67,11.34-4.72-4.73-10.87,39.68-42.99,2.77,16.64-13.17,10.76,2.83,12.28,13.87-1.82,3.14,18.83-8.5,14.17-45.35-6.61Z"/>
    <path d="M477.82,620.82l28.37-42.86,29.68,28.16-13.41,12.29-43.61,4.2c-.31-.62-.64-1.22-1.02-1.8Z"/>
    <path d="M476.09,618.69c-2.84-2.95-6.82-4.8-11.23-4.8-.93,0-1.83,.1-2.71,.25l-4.81-5.34,7.65-79.49,38.57,1.01,1.18,45.07-28.66,43.29Z"/>
    <path d="M488.12,289.15l-14.07,146.16h108.95v-137.72l-90.48-8.31v.05s-4.4-.17-4.4-.17Zm61.24,123.83l-47.62,9.38-11.34-15.59,8.5-92.6,11.9,.86,.87-4.93,7.26,1.28-.74,4.18,18.69,1.35v-5.11h7.37v5.65l19.84,1.44-3.04,58.11h7.58v7.37h-7.96l-.79,15.02h8.75v8.5h5.39v7.37h-5.39v7.94h-19.28v-10.23Z"/>
    <polygon points="252.28 220.63 197.72 222.54 198.9 256.54 250.49 254.73 249.6 271.84 143.18 267.66 149.82 172.68 254.58 176.8 252.28 220.63"/>
    <path d="M178.47,521.81l-52.97-1.39-6.45,92.23,56.19,1.47,3.22-92.32Zm-14.06,14.41v61.89h-23.62v-61.89h23.62Z"/>
    <path d="M290.76,281.39l-148.14-5.82-10.77,154.02,148.18,5.17,10.72-153.37Zm-67.17,28.83l.73-4.79,43.56,3.54-6.34,107.72-53.86-1.42,7.26-47.95-2.74-2.07-11.74,7.28-10.5,41.32-14.21-6.1,7.55-10.9,7.27-.16,1.11-6.28-14.82-2.61,3.32-5.17,11.58,2.76,5.05-14.94-13.79-3.87,4.1-5.03,8.99,3.74,6.81-6.71,13.25,.63,2.47-16.3-3.83-.62-11.88-2.83-2.38-7.09-35.64,1.42,2.38-32.6,56.3,9.04Z"/>
    <polygon points="507.4 576.57 506.19 530.39 583 532.4 583 562.93 537.23 604.87 507.4 576.57"/>
    <path d="M547.36,698.66l-14.71,4.22-3.79-13.23,40.91-12.17-2.83-69.45-32.6,28.35-39.68,17.01,4.73,45.03,7.74-2.3,1.98,6.89-13.21,3.79,11.92,41.55,19.75-5.66-7.42-25.89,10.22-2.93,8.73,30.44-59.77,25.99-7.75-126.75c5.23-2.49,8.86-7.8,8.89-13.97l44.8-4.31,.1,.11,.15-.13h.1s0-.08,0-.08l48.84-44.75,8.57,5.14v139.66l-24.92,10.84-10.72-37.38Z"/>
    <polygon points="126.07 512.31 131.06 440.91 181.23 442.66 178.75 513.69 126.07 512.31"/>
    <path d="M274.34,516.2l4.9-70.11-91.44-3.19-2.48,70.97,89.02,2.33Zm-13.7-55.57h6.38v16.44h-7.09l-.85,19.84-54.42-2.27,.22-15.59h-10.43v-8.5h10.55l.22-15.59,55.56,2.27-.15,3.4Z"/>
    <path d="M465.77,521.21l117.22,3.07v-77.63h-98.04l-12.92,9.52-6.26,65.04Zm55.8-13.81l-40.39-.71,.71-9.92,17.01,1.42,.71-17.72-12.05-1.42v-9.92l42.52-2.84,31.89,2.84,7.09,33.31-21.26,4.96h-17.01l7.8-5.67v-9.92l-14.88,1.42-2.13,14.17Z"/>
    <path d="M406.49,174.83l7.4-76.87h-103.2l-5.1,72.91,100.9,3.96Zm-31.38-41.6v-23.15h18.9l-4.72,51.5-22.68-3.31-.38-6.61-6.24-.57-.57,5.67-35.15,1.13,6.42-48.76,29.29,.95,.95,22.68,14.17,.47Z"/>
    <path d="M471.66,761.47l-104.24-18.38-2.46,70.58,110.07,2.88-3.37-55.08Zm-25.21,9.56l7.09,29.76-31.75-2.7v2.7h-13.61v-3.86l-21.26-1.81-1.42-34.02,60.94,9.92Z"/>
    <polygon points="0 414.53 0 44.35 67.63 40.51 0 414.53"/>
    <polygon points="0 33.66 0 0 420.95 0 420.95 9.76 0 33.66"/>
    <path d="M363.98,841.89l.75-21.46,110.72,2.9,1.13,18.56h7.1l-3.93-64.18,103.24-44.89v109.07h-38.43l2.52-14.17,22.68,1.42,2.83-14.17-28.35,4.25-.95-26.93c9.45,2.36,9.45,12.76,9.45,12.76l19.84-5.67-1.89-9.92-41.58-8.98-5.67,34.49-25.51-3.31-1.59,30.24h-134.94s2.56,0,2.56,0Z"/>
    <polygon points="414.95 175.16 415.86 165.71 422.93 117.64 438.69 119.81 434.83 164.13 443.91 164.13 444.47 158.46 452.41 158.74 452.41 165.83 464.88 165.83 464.88 159.59 476.22 158.74 480.19 115.37 469.42 114.8 467.72 121.04 456.38 122.74 456.94 114.24 441.12 112.19 444.36 97.96 498.04 97.96 490.32 178.13 414.95 175.16"/>
    <polygon points="172.22 700.62 151.34 696.94 152.51 680.17 162.87 680.89 164.98 631.84 130.39 630.14 126.03 678.32 136.11 679.02 135.06 694.07 113.62 690.29 118.5 620.57 174.97 622.04 172.22 700.62"/>
    <polygon points="433.7 9.71 433.7 0 583 0 583 34.02 433.7 9.71"/>
    <polygon points="572.49 177.98 571.46 152.22 539.15 152.22 537.45 128.98 544.82 129.54 545.95 140.31 569.76 138.05 568.63 119.9 517.61 117.64 518.17 166.39 568.06 162.42 568.06 178.04 508.09 178.82 498.78 178.46 506.53 97.96 583 97.96 583 177.84 572.49 177.98"/>
    <polygon points="100.16 496.06 40.63 499.46 39.68 450.24 102.05 454.96 100.16 496.06"/>
    <polygon points="100.16 496.06 40.63 499.46 39.68 450.24 102.05 454.96 100.16 496.06"/>
    <polygon points="272.13 767.28 272.13 775.28 285.73 775.28 285.73 768.33 309.69 770.17 317.48 813.54 221.1 809.39 226.77 763.79 272.13 767.28"/>
    <polygon points="421.79 800.79 408.19 800.79 408.19 796.93 421.79 798.09 421.79 800.79"/>
    <polygon points="421.79 800.79 408.19 800.79 408.19 796.93 421.79 798.09 421.79 800.79"/>
    <polygon points="421.79 784.91 421.79 798.09 408.19 796.93 408.19 784.91 421.79 784.91"/>
    <polygon points="272.13 759.4 285.73 759.4 285.73 768.33 272.13 767.28 272.13 759.4"/>
    <polygon points="272.13 775.28 272.13 767.28 285.73 768.33 285.73 775.28 272.13 775.28"/>
    <polygon points="272.13 775.28 272.13 767.28 285.73 768.33 285.73 775.28 272.13 775.28"/>
  </g>
</svg>