<?xml version="1.0" encoding="UTF-8"?>
<svg id="Layer_1" data-name="Layer 1" xmlns="http://www.w3.org/2000/svg" viewBox="0 0 575.35 3023.72">
  <g>
    <polygon points="165.48 314.86 165.48 332.49 194.02 336.76 195.48 315.91 165.48 314.86"/>
    <path d="M1.52,413.51v142.74l80.63-1.05,13.47-109.75L1.52,413.51Zm64.3,115.16H20.47v-26.93l13.22,.12v-15.24h-8.4v-43.94l42.42,17.01v26.93h-15.12v15.42l17.96,.17-4.73,26.46Z"/>
    <path d="M575.35,419.89v332.05h-26.23l-123.56-313.66c1.18-1.43,2.1-3.08,2.72-4.87l147.07-13.52Z"/>
    <path d="M399.97,436.01l-41.86,3.85,6.03,142.67h14.9l-1.42-117.64,31.18-2.83,36.85,140.31-65.2,21.26-1.42-32.6h-14.54l2.86,67.63,123.59-32.54-72.13-183.12c-1.65,.59-3.42,.93-5.27,.93-5.82,0-10.89-3.2-13.57-7.93Z"/>
    <path d="M472.35,117.75l5.65,37.82h.08v.46s12.79,85.61,12.79,85.61l84.48-47.8V106.01l-103,11.74Zm76.78,49.5l.94,9.45-42.52,4.72-.94-8.97,13.23-2.37,.94-8.97-10.39,.47-.95-6.61h12.29v-9.45h-11.34l.94-15.12,32.13,2.83,8.5,5.67,3.78,14.18-16.06,2.36v11.81h9.45Z"/>
    <path d="M319.52,650.56l1.42,6.37-10.63,2.84-.71-10.63-4.96,2.83v-26.22h-4.25v-15.59h54.91l-1.38-17.48-129.43,9.62,7.25,92.07,98.99-26.06c.26-4.39-2.7-17.75-2.7-17.75h-8.51Zm-76.53-34.02h42.52v14.17h-24.1v14.18h-18.42v-28.35Zm10.74,56.54l-2.95-13.86,17.53-3.72-1.94-9.2,19.14-2.12,2.51,7.12,8.8-1.87,2.95,13.87-46.04,9.78Z"/>
    <polygon points="333.49 625.75 334.4 638.51 347.16 637.8 347.16 646.3 338.65 646.3 341.83 665.38 359.28 660.79 356.52 625.75 333.49 625.75"/>
    <path d="M389.6,309.13l14.7,58.96h.47s-.05,1.67-.05,1.67l10.75,43.13c5.53,.68,10.17,4.26,12.34,9.18l147.54-13.56v-106.68l-185.75,7.3Zm113.1,79.12l-1.09-12.46-21.15,.28,2.98,8.63,10.79,.1-1.53,3.8-58.71,4.09-9.06-52.55,62.27-10.15,2.13-5.42,22.35,.66,3.3,16.45,.22,2.59,.1,1.64,1.25,22.3,20.61-2.33,2.05,19.17-36.51,3.2Z"/>
    <polygon points="453.96 273.27 430.18 290.55 423.01 280.68 329.84 283.92 328.94 304.42 575.34 294.74 575.34 198.34 450.74 268.83 453.96 273.27"/>
    <polygon points="140.44 608.55 140.44 743.94 165.74 743.94 165.74 718.59 158.65 718.59 158.65 675.36 166.73 675.36 166.73 668.27 152.98 668.27 152.98 625.04 173.53 625.04 173.53 651.97 184.16 651.97 184.16 618.67 204.71 618.67 204.71 661.89 189.41 661.89 189.41 675.36 194.08 675.36 194.08 718.59 173.53 718.59 173.53 743.94 181.62 743.94 224.28 701.65 216.51 602.89 140.44 608.55"/>
    <polygon points="1.51 692.51 1.51 743.94 38.9 743.94 25.12 692.51 1.51 692.51"/>
    <polygon points="453.76 112.76 575.34 98.91 575.34 40.52 452.04 46.98 453.76 112.76"/>
    <path d="M196.25,345.4L1.52,316.29v85.25l97.75,33.18,104.55,6.85-7.57-96.17Zm-143.14,8.44l-7.72,14.52-10.51-5.59,7.72-14.52,2.47,1.32,6.36-11.96,5.9,3.14-6.36,11.95,2.14,1.14Zm126.1,73.35l-60.1-3.97-56.13-30.06,25.21-47.42,71.17,11.43,25.52,20.13-5.67,49.89Z"/>
    <polygon points="60.06 299.08 48.7 282.87 32.37 295.38 16.21 289.99 17.91 250.87 38.11 256.39 44.18 250.85 35.85 236.42 18.34 237.83 15.64 164.98 30.38 164.98 36.9 222.81 46.54 235.56 38.24 236.23 45.82 249.35 48.81 246.62 68.65 267.6 60.42 273.9 73.02 291.9 101.73 275.99 57.86 235.52 57.91 235.46 57.72 235.49 41.84 149.8 1.51 151.91 1.51 307.99 34.98 312.99 60.06 299.08"/>
    <path d="M213.25,561.41l-173.63,2.27-.44,17.71,40.81-3.97,1.7,6.52,7.94-.85-.57-6.8,6.24,.57,1.7,7.37,10.21,.56,.56,5.11-82.48,3.96,2.55,8.51h-6.81l-2.83-6.81-.57-11.62,4.54-.28-.57-5.39-2.83-1.41,.53-12.91-17.78,.23v46.74l214.37-15.93-2.64-33.58Zm-92.15,26.22l-1.42-10.77,27.21-2.84v3.97h4.54v-4.54h15.02v2.84h4.82v-2.27l9.35-.57v3.41h6.52l-.56-2.84,8.5-1.13,1.13,9.07-75.11,5.67Z"/>
    <polygon points="49.94 615.27 1.72 618.85 1.51 616.07 1.51 643.75 49.94 636.94 49.94 615.27"/>
    <polygon points="431.37 122.42 439.28 197.72 437.87 197.87 436.97 249.87 448.43 265.65 453.77 262.63 450.05 120.29 431.37 122.42"/>
    <path d="M342.24,0l-1.89,43.23h27.36v1.11l207.64-10.89V0h-233.11Zm-118.65,43.23h107.53l1.88-43.23h-106.39l-3.02,43.23Zm-89.43,6.22h79.96L217.58,0h-82.56l-.86,49.45Zm13.87-42.36h53.29v13.61h-3.97v7.65h-29.48v4.25h-10.21v-11.9h-9.63V7.09ZM1.52,144.84l121.16-6.35,1.44-81.98H40.29v-7.06H124.24l.86-49.45H1.52V144.84Zm55.8-38.54l10.2-2.45v-25.89h13.04v16.15h17.01v-6.23l9.07,3.68,3.97,17.58h-13.04v-7.94h-17.01v13.04h-9.07v20.41l-14.17-5.67v-22.68ZM98.7,10.78h15.88v31.74h-15.88V10.78Z"/>
    <path d="M322.23,312.16l-109.26,29.28-7.81,15.25,6.71,85.22,129.03-11.86-18.67-117.89Zm-58.55,33.67h16.44v10.49h-16.44v-10.49Zm43.65,54.14l-33.45,5.67-2.26-11.62-8.51,4.25,10.77,22.68-37.98,2.27-2.83-21.55,17.57-2.83-1.13-18.14-23.81,2.83,2.83-27.78,19.84-8.5c2.27,0,7.37,3.4,7.37,3.4l5.1,24.38,2.27,16.44,28.92-7.37,2.26-18.43,13.04-.85v35.15Z"/>
    <path d="M342.01,441.33l-129.25,11.88,11.11,141.19,129.43-9.62-11.29-143.45Zm-51.54,132.69l-.65-4.79-50.38,9.04-2.12-32.6,31.89,1.42,2.12-7.09,10.63-2.83,3.43-.62-.88-6.47h-8.96l.03,2.84h-41.81l-.18-14.17h16.77l-2.41-36.15-9.22-9.21-4.96,2.84-.71-9.93,14.89,2.13,4.96,7.8,8.5-2.13,2.84,5.67-12.76,1.42,2.13,15.59,10.63-.71,2.12,5.67h-13.46v6.38l6.38,1.41,3.79,9.22h12.32l.07,5.66h8.28l-8.17-60.23,48.19-1.42,5.67,107.72-38.97,3.54Z"/>
    <path d="M204.72,452.99l-102.06-6.69-13.36,108.8,123.32-1.61-7.9-100.5Zm-92.98,87.58l2.35-19.85h31.1s-1.13-31.17-1.13-31.17l-26.18-.76,2.93-24.75,64.07,4.53,6.8,71.44-79.94,.56Z"/>
    <polygon points="395.97 367.8 381.43 309.45 329.29 311.5 337.89 365.77 395.97 367.8"/>
    <polygon points="426.34 64.85 426.32 65.55 427.64 115.74 449.86 113.21 448.13 47.19 425.87 48.36 426.3 64.85 426.34 64.85"/>
    <polygon points="269.68 286.02 258.64 286.4 267.4 298.92 269.68 286.02"/>
    <polygon points="456.15 204.05 457.63 260.45 487.62 243.48 481.83 204.72 456.15 204.05"/>
    <polygon points="474.99 158.93 454.96 158.41 456.08 201.33 481.42 201.99 474.99 158.93"/>
    <polygon points="474.47 155.48 468.89 118.14 453.95 119.85 454.87 154.96 474.47 155.48"/>
    <polygon points="422.39 64.75 421.97 48.56 408.23 49.28 408.63 64.39 422.39 64.75"/>
    <polygon points="122.51 728.51 122.51 693.08 108.9 693.08 108.9 698.18 79.99 698.18 79.99 693.08 70.35 693.08 70.35 681.74 79.99 681.74 79.99 657.93 108.9 657.93 108.9 668.7 122.51 668.7 122.51 636.38 132.44 636.38 132.44 609.14 81.12 612.95 81.12 638.65 76.02 638.65 76.02 613.33 53.42 615.01 53.91 640.07 53.86 640.06 53.91 640.35 1.51 647.22 1.51 661.89 51.64 661.89 51.64 692.51 29.46 692.51 43.24 743.94 132.44 743.94 132.44 728.51 122.51 728.51"/>
    <polygon points="213.51 287.97 206.46 288.22 206.25 291.12 209.53 291.12 209.53 326.71 215.46 325.13 213.51 287.97"/>
    <polygon points="267.59 311.16 320.03 297.11 320.59 284.25 272.03 285.94 267.59 311.16"/>
    <path d="M210.56,229.54l-3.61,51.62,113.95-3.98,2.25-51.57-112.59,3.93Zm53.69,31.25h-11.34v-11.34h11.34v11.34Zm42.52,2.84h-19.85v-22.68h19.85v22.68Z"/>
    <polygon points="150.86 295.02 150.86 330.3 161.49 331.89 161.49 313.43 150.86 295.02"/>
    <polygon points="265.13 311.82 266.84 302.13 255.89 286.5 215.81 287.89 217.73 324.52 265.13 311.82"/>
    <polygon points="266.05 319.88 319.66 305.51 319.92 299.52 267.14 313.66 266.05 319.88"/>
    <polygon points="217.85 326.87 218.16 332.71 263.59 320.53 264.69 314.32 217.85 326.87"/>
    <polygon points="215.58 327.48 209.53 329.1 209.53 331.09 203.46 331.09 203.06 336.75 215.88 333.32 215.58 327.48"/>
    <polygon points="112.2 304.87 146.89 306.08 146.89 290.29 122.17 291.15 112.2 304.87"/>
    <polygon points="117.63 290.65 104.8 278.82 95.58 283.93 107.51 304.58 117.63 290.65"/>
    <path d="M118.02,232.77l.2,11.35,16.74,.58-.38,10.8-1.21-.04,.08,4.6,22.86,.8-.18,5.26-26.25-.92,.17-4.76-.09-5.1-21.62-.76,.38-10.8,7.2,.26-.2-11.19-41.7,1.46-1.36,5.97,49.56,43.84,75.67-2.64,3.61-51.62-83.48,2.91Zm-17.62,20.94l-12.47-9.08,14.74-.85-2.27,9.93Zm83.62,8.29l-10.48-.37,.57-16.43,10.48,.37-.57,16.43Z"/>
    <polygon points="422.48 68.05 408.71 67.69 409.19 86.01 422.96 86.37 422.48 68.05"/>
    <polygon points="423.06 90.28 409.3 89.92 410.02 117.75 423.74 116.18 423.06 90.28"/>
    <path d="M433.45,198.34l-3.75,.39-7.91-75.22-85.37,9.73-6.27,143.62,87.86-3.07-6.82-9.39,21.38-15.53,.88-50.53Zm-44.27,32.77l-5.26-16.17,16.18-5.26,5.26,16.18-16.18,5.25Z"/>
    <path d="M407.49,413.98l-9.98-40.04-58.65-2.05,9.11,57.52,50.41-4.63c1.15-4.88,4.57-8.88,9.11-10.79Z"/>
    <polygon points="93.42 285.13 41.42 313.95 94.9 321.94 105.92 306.77 93.42 285.13"/>
    <path d="M132.49,145.05l-1.4,80.2,70.91-2.47,5.71-81.67-75.22,3.94Zm43.68,10.43l7.06,.62-.99,11.29-7.06-.61,.99-11.3Zm-24.67,29.83l-7.06-.62,.6-6.95,7.06,.61-.6,6.96Zm41.88,10.29h-30.05v-9.36h30.05v9.36Z"/>
    <polygon points="109.37 308.77 99.32 322.6 146.89 329.71 146.89 310.08 109.37 308.77"/>
    <path d="M216.78,140.63l-5.72,81.83,112.4-3.92,3.66-83.69-110.34,5.78Zm64.47,47.17h-17v-4.73l-6.38,.9v5.96h2.83v12.04h-29.05v-12.04h16.3v-7.09h-12.05v-28.35h15.59v22.68h3.84l8.92-1.25v-5.13h3.54v-13.46h7.09v13.46h6.37v17.01Z"/>
    <path d="M97,187.09l-3.4,22.96,27.92-4.74,1.04-59.74-65.08,3.41-5.86,14.66,11.85,63.98,42.05-1.47-2.28-10.71-21.54,.28-1.14-31.18,10.77-.28-2.83-22.68,18.14-1.42-3.97,19.28-5.67,7.65Zm-13.6-11.34h-16.45v-9.35h16.45v9.35Z"/>
    <path d="M134.04,56.51l-1.42,81.46,75.59-3.96,5.42-77.5h-79.59Zm51.97,54.9h-28.35v-35.72h28.35v35.72Z"/>
    <polygon points="540.51 751.94 185.8 751.94 185.8 751.71 247.05 698.53 493.88 633.55 540.51 751.94"/>
    <polygon points="152.59 290.09 164.52 310.75 165.48 310.75 165.48 310.86 195.76 311.92 197.4 288.53 152.59 290.09"/>
    <polygon points="336.73 126.1 406.13 118.19 404.33 49.49 367.71 51.4 367.71 52.66 343.77 52.66 339.93 52.86 336.73 126.1"/>
    <polygon points="234.57 132.63 327.42 127.76 330.7 52.66 222.93 52.66 218.18 120.55 234.57 132.63"/>
  </g>
  <g>
    <polygon points="165.48 2586.64 165.48 2604.27 194.02 2608.54 195.48 2587.69 165.48 2586.64"/>
    <path d="M1.52,2685.29v142.74l80.63-1.05,13.47-109.75-94.1-31.94Zm64.3,115.16H20.47v-26.93l13.22,.12v-15.24h-8.4v-43.94l42.42,17.01v26.93h-15.12v15.42l17.96,.17-4.73,26.46Z"/>
    <path d="M575.35,2691.67v332.05h-26.23l-123.56-313.66c1.18-1.43,2.1-3.08,2.72-4.87l147.07-13.52Z"/>
    <path d="M399.97,2707.79l-41.86,3.85,6.03,142.67h14.9l-1.42-117.64,31.18-2.83,36.85,140.31-65.2,21.26-1.42-32.6h-14.54l2.86,67.63,123.59-32.54-72.13-183.12c-1.65,.59-3.42,.93-5.27,.93-5.82,0-10.89-3.2-13.57-7.93Z"/>
    <path d="M472.35,2389.53l5.65,37.82h.08v.46s12.79,85.61,12.79,85.61l84.48-47.8v-87.83l-103,11.74Zm76.78,49.5l.94,9.45-42.52,4.72-.94-8.97,13.23-2.37,.94-8.97-10.39,.47-.95-6.61h12.29v-9.45h-11.34l.94-15.12,32.13,2.83,8.5,5.67,3.78,14.18-16.06,2.36v11.81h9.45Z"/>
    <path d="M319.52,2922.34l1.42,6.37-10.63,2.84-.71-10.63-4.96,2.83v-26.22h-4.25v-15.59h54.91l-1.38-17.48-129.43,9.62,7.25,92.07,98.99-26.06c.26-4.39-2.7-17.75-2.7-17.75h-8.51Zm-76.53-34.02h42.52v14.17h-24.1v14.18h-18.42v-28.35Zm10.74,56.54l-2.95-13.86,17.53-3.72-1.94-9.2,19.14-2.12,2.51,7.12,8.8-1.87,2.95,13.87-46.04,9.78Z"/>
    <polygon points="333.49 2897.53 334.4 2910.29 347.16 2909.58 347.16 2918.08 338.65 2918.08 341.83 2937.16 359.28 2932.57 356.52 2897.53 333.49 2897.53"/>
    <path d="M389.6,2580.91l14.7,58.96h.47s-.05,1.67-.05,1.67l10.75,43.13c5.53,.68,10.17,4.26,12.34,9.18l147.54-13.56v-106.68l-185.75,7.3Zm113.1,79.12l-1.09-12.46-21.15,.28,2.98,8.63,10.79,.1-1.53,3.8-58.71,4.09-9.06-52.55,62.27-10.15,2.13-5.42,22.35,.66,3.3,16.45,.22,2.59,.1,1.64,1.25,22.3,20.61-2.33,2.05,19.17-36.51,3.2Z"/>
    <polygon points="453.96 2545.05 430.18 2562.32 423.01 2552.46 329.84 2555.7 328.94 2576.2 575.34 2566.52 575.34 2470.11 450.74 2540.61 453.96 2545.05"/>
    <polygon points="140.44 2880.32 140.44 3015.72 165.74 3015.72 165.74 2990.37 158.65 2990.37 158.65 2947.14 166.73 2947.14 166.73 2940.05 152.98 2940.05 152.98 2896.82 173.53 2896.82 173.53 2923.75 184.16 2923.75 184.16 2890.44 204.71 2890.44 204.71 2933.67 189.41 2933.67 189.41 2947.14 194.08 2947.14 194.08 2990.37 173.53 2990.37 173.53 3015.72 181.62 3015.72 224.28 2973.43 216.51 2874.67 140.44 2880.32"/>
    <polygon points="1.51 2964.29 1.51 3015.72 38.9 3015.72 25.12 2964.29 1.51 2964.29"/>
    <polygon points="453.76 2384.54 575.34 2370.69 575.34 2312.3 452.04 2318.76 453.76 2384.54"/>
    <path d="M196.25,2617.18L1.52,2588.07v85.25l97.75,33.18,104.55,6.85-7.57-96.17Zm-143.14,8.44l-7.72,14.52-10.51-5.59,7.72-14.52,2.47,1.32,6.36-11.96,5.9,3.14-6.36,11.95,2.14,1.14Zm126.1,73.35l-60.1-3.97-56.13-30.06,25.21-47.42,71.17,11.43,25.52,20.13-5.67,49.89Z"/>
    <polygon points="60.06 2570.86 48.7 2554.65 32.37 2567.15 16.21 2561.77 17.91 2522.65 38.11 2528.16 44.18 2522.63 35.85 2508.2 18.34 2509.61 15.64 2436.76 30.38 2436.76 36.9 2494.59 46.54 2507.34 38.24 2508.01 45.82 2521.13 48.81 2518.4 68.65 2539.37 60.42 2545.68 73.02 2563.68 101.73 2547.76 57.86 2507.3 57.91 2507.24 57.72 2507.27 41.84 2421.58 1.51 2423.69 1.51 2579.76 34.98 2584.76 60.06 2570.86"/>
    <path d="M213.25,2833.19l-173.63,2.27-.44,17.71,40.81-3.97,1.7,6.52,7.94-.85-.57-6.8,6.24,.57,1.7,7.37,10.21,.56,.56,5.11-82.48,3.96,2.55,8.51h-6.81l-2.83-6.81-.57-11.62,4.54-.28-.57-5.39-2.83-1.41,.53-12.91-17.78,.23v46.74l214.37-15.93-2.64-33.58Zm-92.15,26.22l-1.42-10.77,27.21-2.84v3.97h4.54v-4.54h15.02v2.84h4.82v-2.27l9.35-.57v3.41h6.52l-.56-2.84,8.5-1.13,1.13,9.07-75.11,5.67Z"/>
    <polygon points="49.94 2887.05 1.72 2890.63 1.51 2887.85 1.51 2915.53 49.94 2908.72 49.94 2887.05"/>
    <polygon points="431.37 2394.2 439.28 2469.5 437.87 2469.65 436.97 2521.65 448.43 2537.43 453.77 2534.4 450.05 2392.07 431.37 2394.2"/>
    <path d="M342.24,2271.78l-1.89,43.23h27.36v1.11l207.64-10.89v-33.45h-233.11Zm-118.65,43.23h107.53l1.88-43.23h-106.39l-3.02,43.23Zm-89.43,6.22h79.96l3.46-49.45h-82.56l-.86,49.45Zm13.87-42.36h53.29v13.61h-3.97v7.65h-29.48v4.25h-10.21v-11.9h-9.63v-13.61ZM1.52,2416.62l121.16-6.35,1.44-81.98H40.29v-7.06H124.24l.86-49.45H1.52v144.84Zm55.8-38.54l10.2-2.45v-25.89h13.04v16.15h17.01v-6.23l9.07,3.68,3.97,17.58h-13.04v-7.94h-17.01v13.04h-9.07v20.41l-14.17-5.67v-22.68Zm41.38-95.52h15.88v31.74h-15.88v-31.74Z"/>
    <path d="M322.23,2583.94l-109.26,29.28-7.81,15.25,6.71,85.22,129.03-11.86-18.67-117.89Zm-58.55,33.67h16.44v10.49h-16.44v-10.49Zm43.65,54.14l-33.45,5.67-2.26-11.62-8.51,4.25,10.77,22.68-37.98,2.27-2.83-21.55,17.57-2.83-1.13-18.14-23.81,2.83,2.83-27.78,19.84-8.5c2.27,0,7.37,3.4,7.37,3.4l5.1,24.38,2.27,16.44,28.92-7.37,2.26-18.43,13.04-.85v35.15Z"/>
    <path d="M342.01,2713.11l-129.25,11.88,11.11,141.19,129.43-9.62-11.29-143.45Zm-51.54,132.69l-.65-4.79-50.38,9.04-2.12-32.6,31.89,1.42,2.12-7.09,10.63-2.83,3.43-.62-.88-6.47h-8.96l.03,2.84h-41.81l-.18-14.17h16.77l-2.41-36.15-9.22-9.21-4.96,2.84-.71-9.93,14.89,2.13,4.96,7.8,8.5-2.13,2.84,5.67-12.76,1.42,2.13,15.59,10.63-.71,2.12,5.67h-13.46v6.38l6.38,1.41,3.79,9.22h12.32l.07,5.66h8.28l-8.17-60.23,48.19-1.42,5.67,107.72-38.97,3.54Z"/>
    <path d="M204.72,2724.77l-102.06-6.69-13.36,108.8,123.32-1.61-7.9-100.5Zm-92.98,87.58l2.35-19.85h31.1s-1.13-31.17-1.13-31.17l-26.18-.76,2.93-24.75,64.07,4.53,6.8,71.44-79.94,.56Z"/>
    <polygon points="395.97 2639.57 381.43 2581.23 329.29 2583.28 337.89 2637.55 395.97 2639.57"/>
    <polygon points="426.34 2336.63 426.32 2337.33 427.64 2387.52 449.86 2384.99 448.13 2318.97 425.87 2320.13 426.3 2336.63 426.34 2336.63"/>
    <polygon points="269.68 2557.8 258.64 2558.18 267.4 2570.7 269.68 2557.8"/>
    <polygon points="456.15 2475.83 457.63 2532.22 487.62 2515.25 481.83 2476.5 456.15 2475.83"/>
    <polygon points="474.99 2430.71 454.96 2430.19 456.08 2473.11 481.42 2473.77 474.99 2430.71"/>
    <polygon points="474.47 2427.25 468.89 2389.92 453.95 2391.63 454.87 2426.74 474.47 2427.25"/>
    <polygon points="422.39 2336.53 421.97 2320.34 408.23 2321.06 408.63 2336.17 422.39 2336.53"/>
    <polygon points="122.51 3000.29 122.51 2964.85 108.9 2964.85 108.9 2969.96 79.99 2969.96 79.99 2964.85 70.35 2964.85 70.35 2953.52 79.99 2953.52 79.99 2929.71 108.9 2929.71 108.9 2940.48 122.51 2940.48 122.51 2908.16 132.44 2908.16 132.44 2880.92 81.12 2884.73 81.12 2910.43 76.02 2910.43 76.02 2885.11 53.42 2886.79 53.91 2911.85 53.86 2911.84 53.91 2912.13 1.51 2919 1.51 2933.67 51.64 2933.67 51.64 2964.29 29.46 2964.29 43.24 3015.72 132.44 3015.72 132.44 3000.29 122.51 3000.29"/>
    <polygon points="213.51 2559.75 206.46 2560 206.25 2562.9 209.53 2562.9 209.53 2598.49 215.46 2596.91 213.51 2559.75"/>
    <polygon points="267.59 2582.94 320.03 2568.89 320.59 2556.02 272.03 2557.71 267.59 2582.94"/>
    <path d="M210.56,2501.32l-3.61,51.62,113.95-3.98,2.25-51.57-112.59,3.93Zm53.69,31.25h-11.34v-11.34h11.34v11.34Zm42.52,2.84h-19.85v-22.68h19.85v22.68Z"/>
    <polygon points="150.86 2566.8 150.86 2602.08 161.49 2603.67 161.49 2585.21 150.86 2566.8"/>
    <polygon points="265.13 2583.6 266.84 2573.91 255.89 2558.28 215.81 2559.67 217.73 2596.3 265.13 2583.6"/>
    <polygon points="266.05 2591.65 319.66 2577.29 319.92 2571.3 267.14 2585.44 266.05 2591.65"/>
    <polygon points="217.85 2598.65 218.16 2604.49 263.59 2592.31 264.69 2586.1 217.85 2598.65"/>
    <polygon points="215.58 2599.26 209.53 2600.88 209.53 2602.87 203.46 2602.87 203.06 2608.53 215.88 2605.1 215.58 2599.26"/>
    <polygon points="112.2 2576.65 146.89 2577.86 146.89 2562.07 122.17 2562.93 112.2 2576.65"/>
    <polygon points="117.63 2562.43 104.8 2550.6 95.58 2555.71 107.51 2576.36 117.63 2562.43"/>
    <path d="M118.02,2504.55l.2,11.35,16.74,.58-.38,10.8-1.21-.04,.08,4.6,22.86,.8-.18,5.26-26.25-.92,.17-4.76-.09-5.1-21.62-.76,.38-10.8,7.2,.26-.2-11.19-41.7,1.46-1.36,5.97,49.56,43.84,75.67-2.64,3.61-51.62-83.48,2.91Zm-17.62,20.94l-12.47-9.08,14.74-.85-2.27,9.93Zm83.62,8.29l-10.48-.37,.57-16.43,10.48,.37-.57,16.43Z"/>
    <polygon points="422.48 2339.83 408.71 2339.47 409.19 2357.78 422.96 2358.14 422.48 2339.83"/>
    <polygon points="423.06 2362.06 409.3 2361.7 410.02 2389.52 423.74 2387.96 423.06 2362.06"/>
    <path d="M433.45,2470.12l-3.75,.39-7.91-75.22-85.37,9.73-6.27,143.62,87.86-3.07-6.82-9.39,21.38-15.53,.88-50.53Zm-44.27,32.77l-5.26-16.17,16.18-5.26,5.26,16.18-16.18,5.25Z"/>
    <path d="M407.49,2685.76l-9.98-40.04-58.65-2.05,9.11,57.52,50.41-4.63c1.15-4.88,4.57-8.88,9.11-10.79Z"/>
    <polygon points="93.42 2556.91 41.42 2585.73 94.9 2593.72 105.92 2578.55 93.42 2556.91"/>
    <path d="M132.49,2416.83l-1.4,80.2,70.91-2.47,5.71-81.67-75.22,3.94Zm43.68,10.43l7.06,.62-.99,11.29-7.06-.61,.99-11.3Zm-24.67,29.83l-7.06-.62,.6-6.95,7.06,.61-.6,6.96Zm41.88,10.29h-30.05v-9.36h30.05v9.36Z"/>
    <polygon points="109.37 2580.55 99.32 2594.38 146.89 2601.49 146.89 2581.86 109.37 2580.55"/>
    <path d="M216.78,2412.41l-5.72,81.83,112.4-3.92,3.66-83.69-110.34,5.78Zm64.47,47.17h-17v-4.73l-6.38,.9v5.96h2.83v12.04h-29.05v-12.04h16.3v-7.09h-12.05v-28.35h15.59v22.68h3.84l8.92-1.25v-5.13h3.54v-13.46h7.09v13.46h6.37v17.01Z"/>
    <path d="M97,2458.87l-3.4,22.96,27.92-4.74,1.04-59.74-65.08,3.41-5.86,14.66,11.85,63.98,42.05-1.47-2.28-10.71-21.54,.28-1.14-31.18,10.77-.28-2.83-22.68,18.14-1.42-3.97,19.28-5.67,7.65Zm-13.6-11.34h-16.45v-9.35h16.45v9.35Z"/>
    <path d="M134.04,2328.29l-1.42,81.46,75.59-3.96,5.42-77.5h-79.59Zm51.97,54.9h-28.35v-35.72h28.35v35.72Z"/>
    <polygon points="540.51 3023.72 185.8 3023.72 185.8 3023.49 247.05 2970.31 493.88 2905.33 540.51 3023.72"/>
    <polygon points="152.59 2561.87 164.52 2582.53 165.48 2582.53 165.48 2582.64 195.76 2583.7 197.4 2560.31 152.59 2561.87"/>
    <polygon points="336.73 2397.88 406.13 2389.97 404.33 2321.26 367.71 2323.18 367.71 2324.44 343.77 2324.44 339.93 2324.64 336.73 2397.88"/>
    <polygon points="234.57 2404.41 327.42 2399.54 330.7 2324.44 222.93 2324.44 218.18 2392.33 234.57 2404.41"/>
  </g>
  <g>
    <polygon points="165.48 1187.42 165.48 1169.79 194.02 1165.52 195.48 1186.37 165.48 1187.42"/>
    <path d="M95.62,1056.83l-13.47-109.75-80.63-1.05v142.74l94.1-31.94Zm-25.07-56.76l-17.96,.17v15.42h15.12v26.93l-42.42,17.01v-43.94h8.4v-15.24l-13.22,.12v-26.93h45.35l4.73,26.46Z"/>
    <path d="M575.35,1082.39v-332.05h-26.23l-123.56,313.66c1.18,1.43,2.1,3.08,2.72,4.87l147.07,13.52Z"/>
    <path d="M399.97,1066.27l-41.86-3.85,6.03-142.67h14.9l-1.42,117.64,31.18,2.83,36.85-140.31-65.2-21.26-1.42,32.6h-14.54l2.86-67.63,123.59,32.54-72.13,183.12c-1.65-.59-3.42-.93-5.27-.93-5.82,0-10.89,3.2-13.57,7.93Z"/>
    <path d="M575.35,1396.27v-87.83l-84.48-47.8-12.8,85.61v.46s-.07,0-.07,0l-5.65,37.82,103,11.74Zm-35.67-61.24v11.81l16.06,2.36-3.78,14.18-8.5,5.67-32.13,2.83-.94-15.12h11.34v-9.45h-12.29l.95-6.61,10.39,.47-.94-8.97-13.23-2.37,.94-8.97,42.52,4.72-.94,9.45h-9.45Z"/>
    <path d="M328.03,851.72s2.96-13.36,2.7-17.75l-98.99-26.06-7.25,92.07,129.43,9.62,1.38-17.48h-54.91v-15.59h4.25v-26.22l4.96,2.83,.71-10.63,10.63,2.84-1.42,6.37h8.51Zm-85.04,5.67h18.42v14.18h24.1v14.17h-42.52v-28.35Zm56.78-18.41l-2.95,13.87-8.8-1.87-2.51,7.12-19.14-2.12,1.94-9.2-17.53-3.72,2.95-13.86,46.04,9.78Z"/>
    <polygon points="333.49 876.53 334.4 863.77 347.16 864.48 347.16 855.97 338.65 855.97 341.83 836.9 359.28 841.49 356.52 876.53 333.49 876.53"/>
    <path d="M575.35,1200.45v-106.68l-147.54-13.56c-2.17,4.92-6.81,8.5-12.34,9.18l-10.75,43.13,.05,1.66h-.47s-14.7,58.97-14.7,58.97l185.75,7.3Zm-36.14-83.22l-2.05,19.17-20.61-2.33-1.25,22.3-.1,1.64-.22,2.59-3.3,16.45-22.35,.66-2.13-5.42-62.27-10.15,9.06-52.55,58.71,4.09,1.53,3.8-10.79,.1-2.98,8.63,21.15,.28,1.09-12.46,36.51,3.2Z"/>
    <polygon points="453.96 1229.01 430.18 1211.73 423.01 1221.6 329.84 1218.36 328.94 1197.86 575.34 1207.54 575.34 1303.94 450.74 1233.45 453.96 1229.01"/>
    <polygon points="140.44 893.73 140.44 758.34 165.74 758.34 165.74 783.69 158.65 783.69 158.65 826.92 166.73 826.92 166.73 834.01 152.98 834.01 152.98 877.23 173.53 877.23 173.53 850.3 184.16 850.3 184.16 883.61 204.71 883.61 204.71 840.38 189.41 840.38 189.41 826.92 194.08 826.92 194.08 783.69 173.53 783.69 173.53 758.34 181.62 758.34 224.28 800.63 216.51 899.39 140.44 893.73"/>
    <polygon points="1.51 809.77 1.51 758.34 38.9 758.34 25.12 809.77 1.51 809.77"/>
    <polygon points="453.76 1389.52 575.34 1403.37 575.34 1461.76 452.04 1455.29 453.76 1389.52"/>
    <path d="M203.82,1060.71l-104.55,6.85L1.52,1100.74v85.25l194.73-29.11,7.57-96.17Zm-152.85,88.87l6.36,11.95-5.9,3.14-6.36-11.96-2.47,1.32-7.72-14.52,10.51-5.59,7.72,14.52-2.14,1.14Zm133.91-24.6l-25.52,20.13-71.17,11.43-25.21-47.42,56.13-30.06,60.1-3.97,5.67,49.89Z"/>
    <polygon points="60.06 1203.19 48.7 1219.41 32.37 1206.9 16.21 1212.29 17.91 1251.41 38.11 1245.89 44.18 1251.43 35.85 1265.85 18.34 1264.45 15.64 1337.3 30.38 1337.3 36.9 1279.47 46.54 1266.71 38.24 1266.05 45.82 1252.93 48.81 1255.66 68.65 1234.68 60.42 1228.38 73.02 1210.38 101.73 1226.29 57.86 1266.76 57.91 1266.82 57.72 1266.78 41.84 1352.48 1.51 1350.37 1.51 1194.29 34.98 1189.29 60.06 1203.19"/>
    <path d="M215.89,907.29L1.52,891.36v46.74l17.78,.23-.53-12.91,2.83-1.41,.57-5.39-4.54-.28,.57-11.62,2.83-6.81h6.81l-2.55,8.51,82.48,3.96-.56,5.11-10.21,.56-1.7,7.37-6.24,.57,.57-6.8-7.94-.85-1.7,6.52-40.81-3.97,.44,17.71,173.63,2.27,2.64-33.58Zm-19.68,13.03l-1.13,9.07-8.5-1.13,.56-2.84h-6.52v3.41l-9.35-.57v-2.27h-4.82v2.84h-15.02v-4.54h-4.54v3.97l-27.21-2.84,1.42-10.77,75.11,5.67Z"/>
    <polygon points="49.94 887.01 1.72 883.42 1.51 886.2 1.51 858.53 49.94 865.34 49.94 887.01"/>
    <polygon points="431.37 1379.86 439.28 1304.56 437.87 1304.41 436.97 1252.41 448.43 1236.63 453.77 1239.65 450.05 1381.99 431.37 1379.86"/>
    <path d="M575.35,1502.28v-33.45l-207.64-10.89v1.11h-27.36l1.89,43.23h233.11Zm-348.74,0h106.39l-1.88-43.23h-107.53l3.02,43.23Zm-91.59,0h82.56l-3.46-49.45h-79.96l.86,49.45Zm13.01-20.7h9.63v-11.9h10.21v4.25h29.48v7.65h3.97v13.61h-53.29v-13.61ZM1.52,1502.28H125.1l-.86-49.45H40.29v-7.06H124.12l-1.44-81.98-121.16-6.35v144.84Zm55.8-128.98l14.17-5.67v20.41h9.07v13.04h17.01v-7.94h13.04l-3.97,17.58-9.07,3.68v-6.23h-17.01v16.15h-13.04v-25.89l-10.2-2.45v-22.68Zm41.38,86.46h15.88v31.74h-15.88v-31.74Z"/>
    <path d="M340.9,1072.23l-129.03-11.86-6.71,85.22,7.81,15.25,109.26,29.28,18.67-117.89Zm-77.22,73.73h16.44v10.49h-16.44v-10.49Zm43.65-8.5l-13.04-.85-2.26-18.43-28.92-7.37-2.27,16.44-5.1,24.38s-5.1,3.4-7.37,3.4l-19.84-8.5-2.83-27.78,23.81,2.83,1.13-18.14-17.57-2.83,2.83-21.55,37.98,2.27-10.77,22.68,8.51,4.25,2.26-11.62,33.45,5.67v35.15Z"/>
    <path d="M353.3,917.5l-129.43-9.62-11.11,141.19,129.25,11.88,11.29-143.45Zm-23.86,14.3l-5.67,107.72-48.19-1.42,8.17-60.23h-8.28l-.07,5.66h-12.32l-3.79,9.22-6.38,1.41v6.38h13.46l-2.12,5.67-10.63-.71-2.13,15.59,12.76,1.42-2.84,5.67-8.5-2.13-4.96,7.8-14.89,2.13,.71-9.93,4.96,2.84,9.22-9.21,2.41-36.15h-16.77l.18-14.17h41.81l-.03,2.84h8.96l.88-6.47-3.43-.62-10.63-2.83-2.12-7.09-31.89,1.42,2.12-32.6,50.38,9.04,.65-4.79,38.97,3.54Z"/>
    <path d="M212.62,948.79l-123.32-1.61,13.36,108.8,102.06-6.69,7.9-100.5Zm-20.94,13.48l-6.8,71.44-64.07,4.53-2.93-24.75,26.18-.76,1.13-31.18h-31.1s-2.35-19.84-2.35-19.84l79.94,.56Z"/>
    <polygon points="395.97 1134.48 381.43 1192.83 329.29 1190.78 337.89 1136.51 395.97 1134.48"/>
    <polygon points="426.34 1437.43 426.32 1436.73 427.64 1386.54 449.86 1389.07 448.13 1455.09 425.87 1453.92 426.3 1437.43 426.34 1437.43"/>
    <polygon points="269.68 1216.26 258.64 1215.88 267.4 1203.36 269.68 1216.26"/>
    <polygon points="456.15 1298.23 457.63 1241.83 487.62 1258.8 481.83 1297.56 456.15 1298.23"/>
    <polygon points="474.99 1343.34 454.96 1343.87 456.08 1300.95 481.42 1300.29 474.99 1343.34"/>
    <polygon points="474.47 1346.8 468.89 1384.13 453.95 1382.43 454.87 1347.32 474.47 1346.8"/>
    <polygon points="422.39 1437.53 421.97 1453.72 408.23 1453 408.63 1437.89 422.39 1437.53"/>
    <polygon points="122.51 773.77 122.51 809.2 108.9 809.2 108.9 804.1 79.99 804.1 79.99 809.2 70.35 809.2 70.35 820.54 79.99 820.54 79.99 844.35 108.9 844.35 108.9 833.58 122.51 833.58 122.51 865.9 132.44 865.9 132.44 893.14 81.12 889.33 81.12 863.63 76.02 863.63 76.02 888.95 53.42 887.27 53.91 862.21 53.86 862.21 53.91 861.93 1.51 855.06 1.51 840.38 51.64 840.38 51.64 809.77 29.46 809.77 43.24 758.34 132.44 758.34 132.44 773.77 122.51 773.77"/>
    <polygon points="213.51 1214.31 206.46 1214.06 206.25 1211.16 209.53 1211.16 209.53 1175.56 215.46 1177.15 213.51 1214.31"/>
    <polygon points="267.59 1191.12 320.03 1205.17 320.59 1218.03 272.03 1216.34 267.59 1191.12"/>
    <path d="M323.15,1276.67l-2.25-51.57-113.95-3.98,3.61,51.62,112.59,3.93Zm-58.9-23.84h-11.34v-11.34h11.34v11.34Zm42.52,8.5h-19.85v-22.68h19.85v22.68Z"/>
    <polygon points="150.86 1207.26 150.86 1171.97 161.49 1170.39 161.49 1188.85 150.86 1207.26"/>
    <polygon points="265.13 1190.46 266.84 1200.15 255.89 1215.78 215.81 1214.39 217.73 1177.76 265.13 1190.46"/>
    <polygon points="266.05 1182.4 319.66 1196.77 319.92 1202.76 267.14 1188.62 266.05 1182.4"/>
    <polygon points="217.85 1175.41 218.16 1169.57 263.59 1181.75 264.69 1187.96 217.85 1175.41"/>
    <polygon points="215.58 1174.8 209.53 1173.18 209.53 1171.19 203.46 1171.19 203.06 1165.53 215.88 1168.96 215.58 1174.8"/>
    <polygon points="112.2 1197.41 146.89 1196.2 146.89 1211.99 122.17 1211.13 112.2 1197.41"/>
    <polygon points="117.63 1211.62 104.8 1223.46 95.58 1218.35 107.51 1197.69 117.63 1211.62"/>
    <path d="M201.5,1272.42l-3.61-51.62-75.67-2.64-49.56,43.84,1.36,5.97,41.7,1.46,.2-11.19-7.2,.26-.38-10.8,21.62-.76,.09-5.1-.17-4.76,26.25-.92,.18,5.26-22.86,.8-.08,4.6,1.21-.04,.38,10.8-16.74,.58-.2,11.35,83.48,2.91Zm-98.83-13.92l-14.74-.85,12.47-9.08,2.27,9.93Zm81.92-1.79l-10.48,.37-.57-16.43,10.48-.37,.57,16.43Z"/>
    <polygon points="422.48 1434.23 408.71 1434.59 409.19 1416.27 422.96 1415.91 422.48 1434.23"/>
    <polygon points="423.06 1412 409.3 1412.36 410.02 1384.53 423.74 1386.09 423.06 1412"/>
    <path d="M432.57,1253.41l-21.38-15.53,6.82-9.39-87.86-3.07,6.27,143.62,85.37,9.73,7.91-75.22,3.75,.39-.88-50.53Zm-27.21,23.01l-5.26,16.18-16.18-5.26,5.26-16.17,16.18,5.25Z"/>
    <path d="M407.49,1088.3l-9.98,40.04-58.65,2.05,9.11-57.52,50.41,4.63c1.15,4.88,4.57,8.88,9.11,10.79Z"/>
    <polygon points="93.42 1217.15 41.42 1188.33 94.9 1180.34 105.92 1195.51 93.42 1217.15"/>
    <path d="M207.71,1361.17l-5.71-81.67-70.91-2.47,1.4,80.2,75.22,3.94Zm-32.53-25.67l7.06-.61,.99,11.29-7.06,.62-.99-11.3Zm-23.08-11.57l-7.06,.61-.6-6.95,7.06-.62,.6,6.96Zm41.28-7.89h-30.05v-9.36h30.05v9.36Z"/>
    <polygon points="109.37 1193.51 99.32 1179.68 146.89 1172.57 146.89 1192.2 109.37 1193.51"/>
    <path d="M327.12,1367.43l-3.66-83.69-112.4-3.92,5.72,81.83,110.34,5.78Zm-45.87-35.94h-6.37v13.46h-7.09v-13.46h-3.54v-5.13l-8.92-1.25h-3.84v22.68h-15.59v-28.35h12.05v-7.09h-16.3v-12.04h29.05v12.04h-2.83v5.96l6.38,.9v-4.73h17v17.01Z"/>
    <path d="M102.67,1322.84l3.97,19.28-18.14-1.42,2.83-22.68-10.77-.28,1.14-31.18,21.54,.28,2.28-10.71-42.05-1.47-11.85,63.98,5.86,14.66,65.08,3.41-1.04-59.74-27.92-4.74,3.4,22.96,5.67,7.65Zm-19.27,13.04h-16.45v-9.35h16.45v9.35Z"/>
    <path d="M213.63,1445.77l-5.42-77.5-75.59-3.96,1.42,81.46h79.59Zm-27.62-19.18h-28.35v-35.72h28.35v35.72Z"/>
    <polygon points="540.51 750.34 185.8 750.34 185.8 750.57 247.05 803.75 493.88 868.73 540.51 750.34"/>
    <polygon points="152.59 1212.19 164.52 1191.53 165.48 1191.53 165.48 1191.42 195.76 1190.36 197.4 1213.75 152.59 1212.19"/>
    <polygon points="336.73 1376.18 406.13 1384.09 404.33 1452.79 367.71 1450.87 367.71 1449.62 343.77 1449.62 339.93 1449.42 336.73 1376.18"/>
    <polygon points="234.57 1369.65 327.42 1374.51 330.7 1449.62 222.93 1449.62 218.18 1381.73 234.57 1369.65"/>
  </g>
  <g>
    <polygon points="409.87 1825.92 409.87 1843.55 381.32 1847.82 379.86 1826.97 409.87 1825.92"/>
    <path d="M479.73,1956.51l13.47,109.75,80.63,1.05v-142.74s-94.1,31.94-94.1,31.94Zm25.07,56.76l17.96-.17v-15.42s-15.12,0-15.12,0v-26.93s42.42-17.01,42.42-17.01v43.94h-8.4s0,15.24,0,15.24l13.22-.12v26.93h-45.35s-4.73-26.46-4.73-26.46Z"/>
    <path d="M0,1930.95v332.05s26.23,0,26.23,0l123.56-313.66c-1.18-1.43-2.1-3.08-2.72-4.87L0,1930.95Z"/>
    <path d="M175.38,1947.07l41.86,3.85-6.03,142.67h-14.9s1.42-117.64,1.42-117.64l-31.18-2.83-36.85,140.31,65.2,21.26,1.42-32.6h14.54s-2.86,67.63-2.86,67.63l-123.59-32.54,72.13-183.12c1.65,.59,3.42,.93,5.27,.93,5.82,0,10.89-3.2,13.57-7.93Z"/>
    <path d="M0,1617.07v87.83s84.48,47.8,84.48,47.8l12.8-85.61v-.46s.07,0,.07,0l5.65-37.82L0,1617.07Zm35.67,61.24v-11.81s-16.06-2.36-16.06-2.36l3.78-14.18,8.5-5.67,32.13-2.83,.94,15.12h-11.34s0,9.45,0,9.45h12.29s-.95,6.61-.95,6.61l-10.39-.47,.94,8.97,13.23,2.37-.94,8.97-42.52-4.72,.94-9.45h9.45Z"/>
    <path d="M247.32,2161.62s-2.96,13.36-2.7,17.75l98.99,26.06,7.25-92.07-129.43-9.62-1.38,17.48h54.91v15.59h-4.25s0,26.22,0,26.22l-4.96-2.83-.71,10.63-10.63-2.84,1.42-6.37h-8.51Zm85.04-5.67h-18.42v-14.18s-24.1,0-24.1,0v-14.17h42.52v28.35Zm-56.78,18.41l2.95-13.87,8.8,1.87,2.51-7.12,19.14,2.12-1.94,9.2,17.53,3.72-2.95,13.86-46.04-9.78Z"/>
    <polygon points="241.86 2136.81 240.95 2149.57 228.19 2148.86 228.19 2157.36 236.69 2157.36 233.51 2176.44 216.07 2171.85 218.82 2136.81 241.86 2136.81"/>
    <path d="M0,1812.89v106.68s147.54,13.56,147.54,13.56c2.17-4.92,6.81-8.5,12.34-9.18l10.75-43.13-.05-1.66h.47s14.7-58.97,14.7-58.97L0,1812.89Zm36.14,83.22l2.05-19.17,20.61,2.33,1.25-22.3,.1-1.64,.22-2.59,3.3-16.45,22.35-.66,2.13,5.42,62.27,10.15-9.06,52.55-58.71-4.09-1.53-3.8,10.79-.1,2.98-8.63-21.15-.28-1.09,12.46-36.51-3.2Z"/>
    <polygon points="121.38 1784.33 145.17 1801.6 152.33 1791.74 245.51 1794.98 246.4 1815.48 0 1805.8 0 1709.39 124.6 1779.89 121.38 1784.33"/>
    <polygon points="434.91 2119.6 434.91 2255 409.61 2255 409.61 2229.65 416.69 2229.65 416.69 2186.42 408.62 2186.42 408.62 2179.33 422.36 2179.33 422.36 2136.1 401.81 2136.1 401.81 2163.03 391.18 2163.03 391.18 2129.72 370.63 2129.72 370.63 2172.95 385.94 2172.95 385.94 2186.42 381.26 2186.42 381.26 2229.65 401.81 2229.65 401.81 2255 393.72 2255 351.07 2212.71 358.84 2113.95 434.91 2119.6"/>
    <polygon points="573.83 2203.57 573.83 2255 536.44 2255 550.22 2203.57 573.83 2203.57"/>
    <polygon points="121.58 1623.82 0 1609.97 0 1551.58 123.31 1558.04 121.58 1623.82"/>
    <path d="M371.53,1952.63l104.55-6.85,97.75-33.18v-85.25s-194.73,29.11-194.73,29.11l-7.57,96.17Zm152.85-88.87l-6.36-11.95,5.9-3.14,6.36,11.96,2.47-1.32,7.72,14.52-10.51,5.59-7.72-14.52,2.14-1.14Zm-133.91,24.6l25.52-20.13,71.17-11.43,25.21,47.42-56.13,30.06-60.1,3.97-5.67-49.89Z"/>
    <polygon points="515.29 1810.14 526.64 1793.93 542.98 1806.43 559.14 1801.05 557.43 1761.93 537.23 1767.44 531.17 1761.91 539.5 1747.48 557 1748.89 559.7 1676.04 544.96 1676.04 538.44 1733.87 528.8 1746.62 537.1 1747.29 529.53 1760.41 526.54 1757.68 506.69 1778.65 514.93 1784.96 502.33 1802.96 473.62 1787.04 517.49 1746.58 517.44 1746.52 517.62 1746.55 533.51 1660.86 573.83 1662.97 573.83 1819.04 540.37 1824.04 515.29 1810.14"/>
    <path d="M359.46,2106.05l214.37,15.93v-46.74s-17.78-.23-17.78-.23l.53,12.91-2.83,1.41-.57,5.39,4.54,.28-.57,11.62-2.83,6.81h-6.81s2.55-8.51,2.55-8.51l-82.48-3.96,.56-5.11,10.21-.56,1.7-7.37,6.24-.57-.57,6.8,7.94,.85,1.7-6.52,40.81,3.97-.44-17.71-173.63-2.27-2.64,33.58Zm19.68-13.03l1.13-9.07,8.5,1.13-.56,2.84h6.52s0-3.41,0-3.41l9.35,.57v2.27s4.82,0,4.82,0v-2.84h15.02v4.54s4.54,0,4.54,0v-3.97s27.21,2.84,27.21,2.84l-1.42,10.77-75.11-5.67Z"/>
    <polygon points="525.4 2126.33 573.62 2129.91 573.83 2127.13 573.83 2154.81 525.4 2148 525.4 2126.33"/>
    <polygon points="143.98 1633.48 136.06 1708.78 137.47 1708.93 138.38 1760.93 126.92 1776.71 121.57 1773.68 125.3 1631.35 143.98 1633.48"/>
    <path d="M0,1511.06v33.45s207.64,10.89,207.64,10.89v-1.11h27.36s-1.89-43.23-1.89-43.23H0Zm348.74,0h-106.39s1.88,43.23,1.88,43.23h107.53s-3.02-43.23-3.02-43.23Zm91.59,0h-82.56s3.46,49.45,3.46,49.45h79.96s-.86-49.45-.86-49.45Zm-13.01,20.7h-9.63s0,11.9,0,11.9h-10.21v-4.25s-29.48,0-29.48,0v-7.65s-3.97,0-3.97,0v-13.61h53.29v13.61Zm146.51-20.7h-123.58s.86,49.45,.86,49.45h83.95v7.06h-83.83s1.44,81.98,1.44,81.98l121.16,6.35v-144.84Zm-55.8,128.98l-14.17,5.67v-20.41s-9.07,0-9.07,0v-13.04s-17.01,0-17.01,0v7.94h-13.04s3.97-17.58,3.97-17.58l9.07-3.68v6.23s17.01,0,17.01,0v-16.15h13.04v25.89s10.2,2.45,10.2,2.45v22.68Zm-41.38-86.46h-15.88v-31.74h15.88v31.74Z"/>
    <path d="M234.45,1941.11l129.03,11.86,6.71-85.22-7.81-15.25-109.26-29.28-18.67,117.89Zm77.22-73.73h-16.44v-10.49h16.44v10.49Zm-43.65,8.5l13.04,.85,2.26,18.43,28.92,7.37,2.27-16.44,5.1-24.38s5.1-3.4,7.37-3.4l19.84,8.5,2.83,27.78-23.81-2.83-1.13,18.14,17.57,2.83-2.83,21.55-37.98-2.27,10.77-22.68-8.51-4.25-2.26,11.62-33.45-5.67v-35.15Z"/>
    <path d="M222.05,2095.84l129.43,9.62,11.11-141.19-129.25-11.88-11.29,143.45Zm23.86-14.3l5.67-107.72,48.19,1.42-8.17,60.23h8.28s.07-5.66,.07-5.66h12.32s3.79-9.22,3.79-9.22l6.38-1.41v-6.38s-13.46,0-13.46,0l2.12-5.67,10.63,.71,2.13-15.59-12.76-1.42,2.84-5.67,8.5,2.13,4.96-7.8,14.89-2.13-.71,9.93-4.96-2.84-9.22,9.21-2.41,36.15h16.77s-.18,14.17-.18,14.17h-41.81s.03-2.84,.03-2.84h-8.96s-.88,6.47-.88,6.47l3.43,.62,10.63,2.83,2.12,7.09,31.89-1.42-2.12,32.6-50.38-9.04-.65,4.79-38.97-3.54Z"/>
    <path d="M362.73,2064.55l123.32,1.61-13.36-108.8-102.06,6.69-7.9,100.5Zm20.94-13.48l6.8-71.44,64.07-4.53,2.93,24.75-26.18,.76-1.13,31.18h31.1s2.35,19.84,2.35,19.84l-79.94-.56Z"/>
    <polygon points="179.37 1878.85 193.92 1820.51 246.05 1822.56 237.46 1876.83 179.37 1878.85"/>
    <polygon points="149.01 1575.91 149.02 1576.61 147.71 1626.8 125.48 1624.27 127.21 1558.25 149.47 1559.41 149.04 1575.91 149.01 1575.91"/>
    <polygon points="305.67 1797.08 316.71 1797.46 307.94 1809.98 305.67 1797.08"/>
    <polygon points="119.19 1715.11 117.72 1771.5 87.72 1754.53 93.52 1715.78 119.19 1715.11"/>
    <polygon points="100.36 1669.99 120.39 1669.47 119.27 1712.39 93.92 1713.05 100.36 1669.99"/>
    <polygon points="100.88 1666.53 106.46 1629.2 121.4 1630.91 120.48 1666.02 100.88 1666.53"/>
    <polygon points="152.96 1575.81 153.38 1559.62 167.11 1560.34 166.72 1575.45 152.96 1575.81"/>
    <polygon points="452.84 2239.57 452.84 2204.13 466.44 2204.13 466.44 2209.24 495.36 2209.24 495.36 2204.13 504.99 2204.13 504.99 2192.8 495.36 2192.8 495.36 2168.99 466.44 2168.99 466.44 2179.76 452.84 2179.76 452.84 2147.44 442.91 2147.44 442.91 2120.2 494.22 2124.01 494.22 2149.71 499.32 2149.71 499.32 2124.39 521.92 2126.07 521.43 2151.13 521.49 2151.12 521.44 2151.41 573.83 2158.28 573.83 2172.95 523.7 2172.95 523.7 2203.57 545.88 2203.57 532.1 2255 442.91 2255 442.91 2239.57 452.84 2239.57"/>
    <polygon points="361.84 1799.03 368.89 1799.28 369.09 1802.18 365.81 1802.18 365.81 1837.77 359.89 1836.19 361.84 1799.03"/>
    <polygon points="307.76 1822.22 255.32 1808.17 254.76 1795.3 303.31 1796.99 307.76 1822.22"/>
    <path d="M252.2,1736.67l2.25,51.57,113.95,3.98-3.61-51.62-112.59-3.93Zm58.9,23.84h11.34v11.34h-11.34v-11.34Zm-42.52-8.5h19.85v22.68h-19.85v-22.68Z"/>
    <polygon points="424.49 1806.08 424.49 1841.36 413.86 1842.95 413.86 1824.49 424.49 1806.08"/>
    <polygon points="310.21 1822.88 308.51 1813.19 319.45 1797.56 359.54 1798.95 357.62 1835.58 310.21 1822.88"/>
    <polygon points="309.3 1830.93 255.68 1816.57 255.42 1810.58 308.2 1824.72 309.3 1830.93"/>
    <polygon points="357.49 1837.93 357.19 1843.77 311.75 1831.59 310.66 1825.38 357.49 1837.93"/>
    <polygon points="359.77 1838.54 365.81 1840.16 365.81 1842.15 371.89 1842.15 372.28 1847.81 359.46 1844.38 359.77 1838.54"/>
    <polygon points="463.14 1815.93 428.46 1817.14 428.46 1801.35 453.17 1802.21 463.14 1815.93"/>
    <polygon points="457.72 1801.71 470.55 1789.88 479.77 1794.99 467.84 1815.64 457.72 1801.71"/>
    <path d="M373.85,1740.92l3.61,51.62,75.67,2.64,49.56-43.84-1.36-5.97-41.7-1.46-.2,11.19,7.2-.26,.38,10.8-21.62,.76-.09,5.1,.17,4.76-26.25,.92-.18-5.26,22.86-.8,.08-4.6-1.21,.04-.38-10.8,16.74-.58,.2-11.35-83.48-2.91Zm98.83,13.92l14.74,.85-12.47,9.08-2.27-9.93Zm-81.92,1.79l10.48-.37,.57,16.43-10.48,.37-.57-16.43Z"/>
    <polygon points="152.87 1579.11 166.63 1578.75 166.15 1597.06 152.39 1597.42 152.87 1579.11"/>
    <polygon points="152.29 1601.34 166.05 1600.98 165.32 1628.8 151.61 1627.24 152.29 1601.34"/>
    <path d="M142.78,1759.93l21.38,15.53-6.82,9.39,87.86,3.07-6.27-143.62-85.37-9.73-7.91,75.22-3.75-.39,.88,50.53Zm27.21-23.01l5.26-16.18,16.18,5.26-5.26,16.17-16.18-5.25Z"/>
    <path d="M167.86,1925.04l9.98-40.04,58.65-2.05-9.11,57.52-50.41-4.63c-1.15-4.88-4.57-8.88-9.11-10.79Z"/>
    <polygon points="481.92 1796.19 533.92 1825.01 480.45 1833 469.43 1817.83 481.92 1796.19"/>
    <path d="M367.64,1652.17l5.71,81.67,70.91,2.47-1.4-80.2-75.22-3.94Zm32.53,25.67l-7.06,.61-.99-11.29,7.06-.62,.99,11.3Zm23.08,11.57l7.06-.61,.6,6.95-7.06,.62-.6-6.96Zm-41.28,7.89h30.05v9.36h-30.05v-9.36Z"/>
    <polygon points="465.97 1819.83 476.03 1833.66 428.46 1840.77 428.46 1821.14 465.97 1819.83"/>
    <path d="M248.23,1645.91l3.66,83.69,112.4,3.92-5.72-81.83-110.34-5.78Zm45.87,35.94h6.37s0-13.46,0-13.46h7.09v13.46s3.54,0,3.54,0v5.13s8.92,1.25,8.92,1.25h3.84s0-22.68,0-22.68h15.59v28.35h-12.05s0,7.09,0,7.09h16.3v12.04h-29.05v-12.04h2.83s0-5.96,0-5.96l-6.38-.9v4.73h-17v-17.01Z"/>
    <path d="M472.68,1690.5l-3.97-19.28,18.14,1.42-2.83,22.68,10.77,.28-1.14,31.18-21.54-.28-2.28,10.71,42.05,1.47,11.85-63.98-5.86-14.66-65.08-3.41,1.04,59.74,27.92,4.74-3.4-22.96-5.67-7.65Zm19.27-13.04h16.45v9.35h-16.45v-9.35Z"/>
    <path d="M361.72,1567.57l5.42,77.5,75.59,3.96-1.42-81.46h-79.59Zm27.62,19.18h28.35v35.72h-28.35v-35.72Z"/>
    <polygon points="34.84 2263 389.55 2263 389.55 2262.77 328.3 2209.59 81.47 2144.61 34.84 2263"/>
    <polygon points="422.75 1801.15 410.82 1821.81 409.87 1821.81 409.87 1821.92 379.58 1822.98 377.95 1799.59 422.75 1801.15"/>
    <polygon points="238.62 1637.16 169.22 1629.25 171.02 1560.54 207.64 1562.46 207.64 1563.72 231.58 1563.72 235.42 1563.92 238.62 1637.16"/>
    <polygon points="340.78 1643.69 247.92 1638.82 244.64 1563.72 352.42 1563.72 357.17 1631.61 340.78 1643.69"/>
  </g>
</svg>