<?xml version="1.0" encoding="UTF-8"?>
<svg id="Vrstva_1" data-name="Vrstva 1" xmlns="http://www.w3.org/2000/svg"
  viewBox="0 0 202.24 47.21">
  <defs>
    <style>
      .cls-1 {
      fill: #fff;
      }

      .cls-2 {
      fill: #14bdc4;
      }
    </style>
  </defs>
  <path class="cls-1"
    d="M72.52,15.42c-.59-.56-1.22-1.03-1.88-1.43V.04h-11.67V13.99c-.66,.4-1.29,.87-1.88,1.43-2.08,1.98-3.12,4.5-3.12,7.57s1.04,5.59,3.12,7.56c.59,.56,1.22,1.03,1.88,1.43v15.02h11.67v-15.02c.67-.4,1.3-.87,1.88-1.43,2.08-1.98,3.12-4.5,3.12-7.56s-1.04-5.59-3.12-7.57Zm-7.72,13.11c-3.06,0-5.55-2.48-5.55-5.55s2.48-5.55,5.55-5.55,5.55,2.48,5.55,5.55-2.48,5.55-5.55,5.55Z" />
  <g>
    <path class="cls-1"
      d="M139.59,10.82l-2.92-9.13h-.04V10.82h-1.34V0h2.17l2.85,9.27h.04l2.83-9.27h2.09V10.82h-1.36V1.7h-.03l-2.9,9.13h-1.39Z" />
    <path class="cls-1"
      d="M147.24,7.05c0-2.59,1.56-3.95,3.57-3.95s3.32,1.33,3.32,3.8c0,2.7-1.3,4.1-3.48,4.1-2.3,0-3.41-1.42-3.41-3.95Zm5.5-.06c0-1.67-.56-2.83-2-2.83s-2.09,1.22-2.09,2.87,.55,2.93,2.06,2.93,2.03-1.28,2.03-2.98Z" />
    <path class="cls-1"
      d="M155.78,10.82V0h1.36V4.31c.34-.53,1.11-1.21,2.37-1.21,1.43,0,2.87,.86,2.87,3.82,0,2.65-1.15,4.08-3.16,4.08-.97,0-1.67-.35-2.15-1.05h-.04l-.28,.87h-.97Zm3.18-.81c1.31,0,2.02-1.02,2.02-3.11s-.75-2.82-1.84-2.82c-1.24,0-2.06,.81-2.06,2.99s.71,2.93,1.89,2.93Z" />
    <path class="cls-1" d="M164.05,0h1.37V1.58h-1.37V0Zm0,3.27h1.37v7.55h-1.37V3.27Z" />
    <path class="cls-1" d="M168.82,10.82h-1.37V0h1.37V10.82Z" />
    <path class="cls-1" d="M170.86,0h1.37V1.58h-1.37V0Zm0,3.27h1.37v7.55h-1.37V3.27Z" />
    <path class="cls-1"
      d="M173.6,3.27h.91V1.64l1.36-.43V3.27h1.8v1.02h-1.8v4.07c0,1.09,.22,1.59,1.08,1.59,.37,0,.63-.06,.93-.15l.13,.99c-.28,.1-.77,.21-1.36,.21-1.65,0-2.14-.93-2.14-2.51V4.29h-.91v-1.02Z" />
    <path class="cls-1"
      d="M182.15,10.84c-.75,2.17-1.28,2.86-2.71,2.86-.38,0-.84-.07-1.08-.16l.16-.96c.29,.07,.44,.12,.75,.12,.8,0,1.11-.52,1.53-1.78l.04-.15-2.57-7.49h1.43l1.83,5.99h.02l1.89-5.99h1.39l-2.68,7.56Z" />
    <path class="cls-1"
      d="M137.32,27.88h1.16v1.05h-3.7v-1.05h1.12v-8.73h-1.12v-1.05h3.7v1.05h-1.16v8.73Z" />
    <path class="cls-1"
      d="M146.64,28.93h-1.36v-4.41c0-1.61-.53-2.24-1.61-2.24-1.56,0-1.98,1.18-1.98,2.37v4.28h-1.37v-7.55h1.27l.06,1.14h.01c.31-.59,.99-1.31,2.33-1.31,1.68,0,2.64,.99,2.64,3.17v4.56Z" />
    <path class="cls-1"
      d="M154.94,28.93h-1.36v-4.41c0-1.61-.53-2.24-1.61-2.24-1.56,0-1.98,1.18-1.98,2.37v4.28h-1.37v-7.55h1.27l.06,1.14h.01c.31-.59,.99-1.31,2.33-1.31,1.68,0,2.64,.99,2.64,3.17v4.56Z" />
    <path class="cls-1"
      d="M156.54,25.15c0-2.6,1.56-3.95,3.57-3.95s3.32,1.33,3.32,3.8c0,2.7-1.3,4.1-3.48,4.1-2.3,0-3.41-1.42-3.41-3.95Zm5.5-.06c0-1.67-.56-2.83-2-2.83s-2.09,1.22-2.09,2.88,.55,2.93,2.06,2.93,2.03-1.28,2.03-2.98Z" />
    <path class="cls-1" d="M166.7,28.93l-2.61-7.55h1.42l1.92,6.07,1.9-6.07h1.4l-2.64,7.55h-1.39Z" />
    <path class="cls-1"
      d="M178.11,28.91c-1.53,.32-1.9-.21-2.03-1.03-.43,.75-1.27,1.22-2.42,1.22-1.67,0-2.37-1.02-2.37-2.08,0-2.06,2.05-2.3,4.66-2.43v-.37c0-1.61-.71-2.03-1.64-2.03-1.62,0-1.56,.86-1.45,1.87l-1.21,.1c-.35-1.68,.41-2.96,2.74-2.96s2.87,1.53,2.87,3.54v2.74c0,.56,.19,.72,.83,.58l.02,.86Zm-2.17-3.39c-2.77,.06-3.27,.56-3.27,1.4,0,.75,.47,1.21,1.42,1.21,1,0,1.86-.78,1.86-1.89v-.72Z" />
    <path class="cls-1"
      d="M178.69,21.38h.91v-1.64l1.36-.43v2.06h1.8v1.02h-1.8v4.07c0,1.09,.22,1.59,1.08,1.59,.37,0,.63-.06,.93-.15l.13,.99c-.28,.1-.77,.21-1.36,.21-1.65,0-2.14-.93-2.14-2.51v-4.2h-.91v-1.02Z" />
    <path class="cls-1" d="M184.38,18.1h1.37v1.58h-1.37v-1.58Zm0,3.27h1.37v7.55h-1.37v-7.55Z" />
    <path class="cls-1"
      d="M187.4,25.15c0-2.6,1.56-3.95,3.57-3.95s3.32,1.33,3.32,3.8c0,2.7-1.3,4.1-3.48,4.1-2.3,0-3.41-1.42-3.41-3.95Zm5.5-.06c0-1.67-.56-2.83-2-2.83s-2.09,1.22-2.09,2.88,.55,2.93,2.06,2.93,2.03-1.28,2.03-2.98Z" />
    <path class="cls-1"
      d="M202.24,28.93h-1.36v-4.41c0-1.61-.53-2.24-1.61-2.24-1.56,0-1.98,1.18-1.98,2.37v4.28h-1.37v-7.55h1.27l.06,1.14h.01c.31-.59,.99-1.31,2.33-1.31,1.68,0,2.64,.99,2.64,3.17v4.56Z" />
    <path class="cls-1"
      d="M142.9,47.03h-1.46v-4.81h-4.7v4.81h-1.45v-10.82h1.45v4.81h4.7v-4.81h1.46v10.82Z" />
    <path class="cls-1"
      d="M145.18,39.48h1.36v4.45c0,1.56,.53,2.2,1.52,2.2,1.47,0,1.89-1.27,1.89-2.56v-4.08h1.37v7.55h-1.24l-.09-1.14h-.02c-.31,.53-.9,1.31-2.24,1.31-1.65,0-2.55-.99-2.55-3.18v-4.54Z" />
    <path class="cls-1"
      d="M153.33,47.03v-10.82h1.36v4.3c.34-.53,1.11-1.21,2.37-1.21,1.43,0,2.87,.86,2.87,3.82,0,2.65-1.15,4.08-3.16,4.08-.97,0-1.67-.35-2.15-1.05h-.04l-.28,.87h-.97Zm3.18-.81c1.31,0,2.02-1.02,2.02-3.11s-.75-2.82-1.84-2.82c-1.24,0-2.06,.81-2.06,2.99s.71,2.93,1.89,2.93Z" />
    <path class="cls-1"
      d="M166.26,47.03h-1.45v-10.82h3.46c2.73,0,3.49,1.39,3.49,3.1,0,1.53-.58,3.61-4.01,3.61h-1.5v4.11Zm1.4-5.25c1.81,0,2.61-.8,2.61-2.4,0-1.37-.63-2.02-2.3-2.02h-1.71v4.42h1.4Z" />
    <path class="cls-1" d="M173.39,36.21h1.37v1.58h-1.37v-1.58Zm0,3.27h1.37v7.55h-1.37v-7.55Z" />
    <path class="cls-1" d="M178.17,47.03h-1.37v-10.82h1.37v10.82Z" />
    <path class="cls-1"
      d="M184.36,41.77c-.12-.96-.56-1.45-1.56-1.45-.94,0-1.5,.34-1.5,1.08,0,1.95,4.34,.34,4.34,3.45,0,1.46-1.28,2.36-3.04,2.36s-2.7-.72-2.89-2.33l1.21-.21c.15,.96,.47,1.52,1.71,1.52s1.68-.52,1.68-1.21c0-2.05-4.29-.44-4.29-3.44,0-1.46,1.19-2.24,2.79-2.24,1.71,0,2.56,.81,2.74,2.24l-1.18,.22Z" />
    <path class="cls-1"
      d="M193.24,44.66c-.28,2.08-1.8,2.55-2.99,2.55-2.51,0-3.39-1.67-3.39-3.88,0-2.43,1.25-4.03,3.54-4.03,2.12,0,3.16,1.55,2.86,4.22h-5c0,1.46,.49,2.64,2.02,2.64,.97,0,1.67-.46,1.83-1.64l1.14,.13Zm-1.24-2.06c.06-1.37-.46-2.3-1.75-2.3s-1.95,1.09-1.99,2.3h3.74Z" />
    <path class="cls-1"
      d="M201.29,47.03h-1.36v-4.41c0-1.61-.53-2.24-1.61-2.24-1.56,0-1.98,1.18-1.98,2.37v4.28h-1.37v-7.55h1.27l.06,1.14h.01c.31-.59,.99-1.31,2.33-1.31,1.68,0,2.64,.99,2.64,3.17v4.56Z" />
  </g>
  <path class="cls-1"
    d="M50.68,47h-11.67V23.45l-10.43,16.09v.07h-6.49v-.07L11.6,23.31l.07,23.69H0V.04H8.7L25.34,25.11,41.98,.04h8.7V47Z" />
  <path class="cls-1"
    d="M121.33,.04V47h-11.6V29.39h-19.13v17.61h-11.67V.04h11.67V18.9h19.13V.04h11.6Z" />
  <circle class="cls-2" cx="64.81" cy="22.98" r="5.54" />
</svg>