<?xml version="1.0" encoding="UTF-8" standalone="no"?>
<!DOCTYPE svg PUBLIC "-//W3C//DTD SVG 1.1//EN" "http://www.w3.org/Graphics/SVG/1.1/DTD/svg11.dtd">
<svg width="100%" height="100%" viewBox="0 0 1847 772" version="1.1" xmlns="http://www.w3.org/2000/svg" xmlns:xlink="http://www.w3.org/1999/xlink" xml:space="preserve" xmlns:serif="http://www.serif.com/" style="fill-rule:evenodd;clip-rule:evenodd;stroke-linejoin:round;stroke-miterlimit:2;">
    <g transform="matrix(1,0,0,1,-5041,-7819)">
        <g transform="matrix(0.724487,0,0,0.288957,4849.18,7002.97)">
            <rect id="PINE-logo-circle" serif:id="PINE logo circle" x="265.119" y="2824.93" width="2548.92" height="2670.49" style="fill:none;"/>
            <g id="PINE-logo-circle1" serif:id="PINE logo circle">
                <g transform="matrix(10.2083,0,0,25.5948,-2456.9,-3628.21)">
                    <path d="M382.293,287.815L367.712,287.815L367.712,324.001L376.706,324.001L376.706,314.795L381.601,314.795C391.446,314.795 397.619,309.527 397.619,301.066C397.619,292.924 391.765,287.815 382.293,287.815ZM382.133,306.919L376.706,306.919L376.706,295.691L382.133,295.691C386.071,295.691 388.679,297.82 388.679,301.066C388.679,304.631 386.071,306.919 382.133,306.919Z" style="fill:white;fill-rule:nonzero;"/>
                    <rect x="402.887" y="287.815" width="8.993" height="36.186" style="fill:white;fill-rule:nonzero;"/>
                    <path d="M444.128,287.815L444.128,308.196L426.674,287.815L419.809,287.815L419.809,324.001L428.802,324.001L428.802,304.152L446.15,324.001L453.068,324.001L453.068,287.815L444.128,287.815Z" style="fill:white;fill-rule:nonzero;"/>
                    <path d="M488.349,295.638L488.349,287.815L460.997,287.815L460.997,324.001L488.349,324.001L488.349,316.179L469.99,316.179L469.99,309.899L486.061,309.899L486.061,302.236L469.99,302.236L469.99,295.638L488.349,295.638Z" style="fill:white;fill-rule:nonzero;"/>
                </g>
                <g transform="matrix(1,0,0,2.40039,47.677,-5543.2)">
                    <g transform="matrix(0.329578,-0.34425,0.329578,0.34425,-2477.23,4570.95)">
                        <path d="M6091.69,4606.57C6215.16,4483.09 6284.53,4315.62 6284.53,4140.99C6284.53,3966.37 6215.16,3798.9 6091.69,3675.42L5939.72,3827.38C6022.89,3910.56 6069.62,4023.37 6069.62,4140.99C6069.62,4258.62 6022.89,4371.43 5939.72,4454.61L6091.69,4606.57Z" style="fill:rgb(106,104,173);"/>
                    </g>
                    <g transform="matrix(0.329789,0.34447,-0.329578,0.34425,250.834,695.975)">
                        <path d="M6091.69,4606.57C6215.16,4483.09 6284.53,4315.62 6284.53,4140.99C6284.53,3966.37 6215.16,3798.9 6091.69,3675.42L5940.09,3827.01C6023.37,3910.28 6070.15,4023.23 6070.15,4140.99C6070.15,4258.76 6023.37,4371.7 5940.09,4454.98L6091.69,4606.57Z" style="fill:rgb(42,164,221);"/>
                    </g>
                    <g transform="matrix(-0.329789,0.34447,-0.329578,-0.34425,3963.92,3547.13)">
                        <path d="M6091.69,4606.57C6215.16,4483.09 6284.53,4315.62 6284.53,4140.99C6284.53,3966.37 6215.16,3798.9 6091.69,3675.42L5939.68,3827.42C6022.85,3910.59 6069.57,4023.38 6069.57,4140.99C6069.57,4258.61 6022.85,4371.4 5939.68,4454.57L6091.69,4606.57Z" style="fill:rgb(88,182,127);"/>
                    </g>
                    <g transform="matrix(-0.329789,-0.34447,0.329578,-0.34425,1234.36,7423.34)">
                        <path d="M6091.69,4606.57C6215.16,4483.09 6284.53,4315.62 6284.53,4140.99C6284.53,3966.37 6215.16,3798.9 6091.69,3675.42L5940.32,3826.79C6023.65,3910.12 6070.47,4023.14 6070.47,4140.99C6070.47,4258.85 6023.65,4371.87 5940.32,4455.2L6091.69,4606.57Z" style="fill:rgb(251,194,4);"/>
                    </g>
                </g>
            </g>
        </g>
    </g>
</svg>
